<?xml version="1.0" encoding="utf-8"?>
<svg xmlns="http://www.w3.org/2000/svg" viewBox="4.432 2.671 24.316 28" width="24.316px" height="28px">
  <path d="M 5.41 21.075 C 5.168 20.366 5.085 19.658 4.998 18.944 C 4.817 15.868 6.107 12.607 8.475 10.673 C 7.397 13.002 7.65 15.907 9.254 17.939 C 9.314 18.037 9.369 18.109 9.457 18.18 C 9.726 18.405 10.067 18.494 10.391 18.35 C 10.677 18.235 10.89 17.951 10.89 17.642 C 10.89 17.456 10.83 17.313 10.775 17.17 C 9.046 12.705 10.49 7.493 14.164 4.543 C 15.174 3.737 16.35 2.996 17.701 2.671 C 16.35 5.296 16.818 8.718 18.931 10.788 C 19.048 10.897 19.165 11.009 19.286 11.113 L 15.839 14.326 C 15.773 14.198 15.708 14.069 15.641 13.935 C 15.537 14.205 15.453 14.471 15.4 14.736 L 6.273 23.261 C 5.907 22.579 5.59 21.827 5.41 21.075 Z" style="fill: rgb(255, 0, 0);"/>
  <path d="M 28.733 21.985 L 26.221 22.654 L 26.891 25.164 L 24.222 25.889 L 23.343 22.583 L 20.504 20.98 L 16.957 23.039 L 16.957 26.242 L 19.367 28.669 L 17.368 30.671 L 15.539 28.839 L 13.705 30.671 L 11.695 28.669 L 14.117 26.242 L 14.117 23.039 L 11.683 21.608 L 13.819 19.586 L 15.539 20.584 L 19.087 18.525 L 19.087 14.593 L 26.398 7.663 L 26.891 7.798 L 26.238 10.308 L 28.748 10.978 L 28.012 13.713 L 24.705 12.835 L 21.866 14.439 L 21.866 18.525 L 24.705 20.129 L 28.012 19.249 L 28.733 21.985 Z" style="fill: rgb(102, 102, 230);"/>
  <line style="stroke: rgb(175, 175, 175);" x1="27.552" y1="4.866" x2="4.432" y2="26.702"/>
</svg>
