%TF.GenerationSoftware,KiCad,Pcbnew,6.0.11+dfsg-1~bpo11+1*%
%TF.CreationDate,2024-01-26T07:42:42-05:00*%
%TF.ProjectId,Thermostat,54686572-6d6f-4737-9461-742e6b696361,V0.5.2*%
%TF.SameCoordinates,Original*%
%TF.FileFunction,Soldermask,Bot*%
%TF.FilePolarity,Negative*%
%FSLAX46Y46*%
G04 Gerber Fmt 4.6, Leading zero omitted, Abs format (unit mm)*
G04 Created by KiCad (PCBNEW 6.0.11+dfsg-1~bpo11+1) date 2024-01-26 07:42:42*
%MOMM*%
%LPD*%
G01*
G04 APERTURE LIST*
%ADD10C,1.381000*%
%ADD11C,1.500000*%
%ADD12C,2.700000*%
%ADD13C,2.000000*%
%ADD14R,1.700000X1.700000*%
%ADD15O,1.700000X1.700000*%
%ADD16C,0.650000*%
%ADD17O,1.000000X2.100000*%
%ADD18O,1.000000X1.800000*%
%ADD19R,2.000000X2.000000*%
%ADD20R,2.200000X2.200000*%
%ADD21C,2.200000*%
G04 APERTURE END LIST*
D10*
%TO.C,K1*%
X128015000Y-87170000D03*
X128015000Y-83970000D03*
X128015000Y-81770000D03*
X128015000Y-79570000D03*
X122935000Y-79570000D03*
X122935000Y-81770000D03*
X122935000Y-83970000D03*
X122935000Y-87170000D03*
%TD*%
D11*
%TO.C,R12*%
X113440000Y-137010000D03*
X113440000Y-140410000D03*
%TD*%
D12*
%TO.C,H3*%
X181040000Y-134700000D03*
%TD*%
D13*
%TO.C,TP2*%
X210390000Y-136490000D03*
%TD*%
D14*
%TO.C,J2*%
X130040000Y-68660000D03*
D15*
X130040000Y-71200000D03*
%TD*%
D13*
%TO.C,TP3*%
X206870000Y-74770000D03*
%TD*%
%TO.C,TP5*%
X210390000Y-74770000D03*
%TD*%
D10*
%TO.C,K4*%
X157110000Y-87170000D03*
X157110000Y-83970000D03*
X157110000Y-81770000D03*
X157110000Y-79570000D03*
X152030000Y-79570000D03*
X152030000Y-81770000D03*
X152030000Y-83970000D03*
X152030000Y-87170000D03*
%TD*%
D16*
%TO.C,J1*%
X167080000Y-142320000D03*
X172860000Y-142320000D03*
D17*
X174290000Y-141800000D03*
D18*
X165650000Y-146000000D03*
D17*
X165650000Y-141800000D03*
D18*
X174290000Y-146000000D03*
%TD*%
D12*
%TO.C,H2*%
X209120000Y-68950000D03*
%TD*%
D19*
%TO.C,BZ1*%
X146120000Y-141410000D03*
D13*
X151120000Y-141410000D03*
%TD*%
D12*
%TO.C,H5*%
X117290000Y-80140000D03*
%TD*%
D10*
%TO.C,K5*%
X166790000Y-87170000D03*
X166790000Y-83970000D03*
X166790000Y-81770000D03*
X166790000Y-79570000D03*
X161710000Y-79570000D03*
X161710000Y-81770000D03*
X161710000Y-83970000D03*
X161710000Y-87170000D03*
%TD*%
D13*
%TO.C,TP4*%
X201450000Y-70260000D03*
%TD*%
%TO.C,TP4*%
X199060000Y-83750000D03*
%TD*%
%TO.C,TP4*%
X210390000Y-78260000D03*
%TD*%
%TO.C,TP1*%
X206830000Y-136570000D03*
%TD*%
D12*
%TO.C,H4*%
X113750000Y-146300000D03*
%TD*%
D13*
%TO.C,TP4*%
X199170000Y-73540000D03*
%TD*%
D12*
%TO.C,H9*%
X208310000Y-115860000D03*
%TD*%
%TO.C,H1*%
X113750000Y-68950000D03*
%TD*%
D10*
%TO.C,K3*%
X147400000Y-87170000D03*
X147400000Y-83970000D03*
X147400000Y-81770000D03*
X147400000Y-79570000D03*
X142320000Y-79570000D03*
X142320000Y-81770000D03*
X142320000Y-83970000D03*
X142320000Y-87170000D03*
%TD*%
D12*
%TO.C,H6*%
X200400000Y-80140000D03*
%TD*%
D14*
%TO.C,J6*%
X179990000Y-142010000D03*
D15*
X182530000Y-142010000D03*
X185070000Y-142010000D03*
X187610000Y-142010000D03*
%TD*%
D14*
%TO.C,J5*%
X189960000Y-135440000D03*
D15*
X187420000Y-135440000D03*
%TD*%
D10*
%TO.C,K2*%
X137700000Y-87170000D03*
X137700000Y-83970000D03*
X137700000Y-81770000D03*
X137700000Y-79570000D03*
X132620000Y-79570000D03*
X132620000Y-81770000D03*
X132620000Y-83970000D03*
X132620000Y-87170000D03*
%TD*%
D12*
%TO.C,H8*%
X117290000Y-129040000D03*
%TD*%
D14*
%TO.C,J7*%
X201505000Y-121120000D03*
D15*
X201505000Y-118580000D03*
X201505000Y-116040000D03*
X201505000Y-113500000D03*
X201505000Y-110960000D03*
X201505000Y-108420000D03*
X201505000Y-105880000D03*
X201505000Y-103340000D03*
X201505000Y-100800000D03*
X201505000Y-98260000D03*
X201505000Y-95720000D03*
X201505000Y-93180000D03*
X201505000Y-90640000D03*
X201505000Y-88100000D03*
%TD*%
D20*
%TO.C,J3*%
X158940000Y-69550000D03*
D21*
X156400000Y-69550000D03*
X153860000Y-69550000D03*
X151320000Y-69550000D03*
X148780000Y-69550000D03*
X146240000Y-69550000D03*
X143700000Y-69550000D03*
X141160000Y-69550000D03*
X138620000Y-69550000D03*
X136080000Y-69550000D03*
%TD*%
D12*
%TO.C,H7*%
X200400000Y-129040000D03*
%TD*%
M02*
