%TF.GenerationSoftware,KiCad,Pcbnew,6.0.11+dfsg-1~bpo11+1*%
%TF.CreationDate,2024-01-26T07:42:42-05:00*%
%TF.ProjectId,Thermostat,54686572-6d6f-4737-9461-742e6b696361,V0.5.2*%
%TF.SameCoordinates,Original*%
%TF.FileFunction,Legend,Top*%
%TF.FilePolarity,Positive*%
%FSLAX46Y46*%
G04 Gerber Fmt 4.6, Leading zero omitted, Abs format (unit mm)*
G04 Created by KiCad (PCBNEW 6.0.11+dfsg-1~bpo11+1) date 2024-01-26 07:42:42*
%MOMM*%
%LPD*%
G01*
G04 APERTURE LIST*
G04 Aperture macros list*
%AMRoundRect*
0 Rectangle with rounded corners*
0 $1 Rounding radius*
0 $2 $3 $4 $5 $6 $7 $8 $9 X,Y pos of 4 corners*
0 Add a 4 corners polygon primitive as box body*
4,1,4,$2,$3,$4,$5,$6,$7,$8,$9,$2,$3,0*
0 Add four circle primitives for the rounded corners*
1,1,$1+$1,$2,$3*
1,1,$1+$1,$4,$5*
1,1,$1+$1,$6,$7*
1,1,$1+$1,$8,$9*
0 Add four rect primitives between the rounded corners*
20,1,$1+$1,$2,$3,$4,$5,0*
20,1,$1+$1,$4,$5,$6,$7,0*
20,1,$1+$1,$6,$7,$8,$9,0*
20,1,$1+$1,$8,$9,$2,$3,0*%
G04 Aperture macros list end*
%ADD10C,0.150000*%
%ADD11C,0.367062*%
%ADD12C,0.050000*%
%ADD13C,0.200000*%
%ADD14C,0.300000*%
%ADD15C,0.250000*%
%ADD16C,0.187500*%
%ADD17C,0.254000*%
%ADD18C,0.125000*%
%ADD19C,0.120000*%
%ADD20C,0.100000*%
%ADD21C,0.152400*%
%ADD22C,0.127000*%
%ADD23R,1.100000X4.600000*%
%ADD24R,10.800000X9.400000*%
%ADD25C,1.381000*%
%ADD26RoundRect,0.150000X-0.150000X0.587500X-0.150000X-0.587500X0.150000X-0.587500X0.150000X0.587500X0*%
%ADD27RoundRect,0.200000X-0.275000X0.200000X-0.275000X-0.200000X0.275000X-0.200000X0.275000X0.200000X0*%
%ADD28C,1.500000*%
%ADD29C,2.700000*%
%ADD30R,0.700000X1.000000*%
%ADD31C,2.000000*%
%ADD32R,1.700000X1.700000*%
%ADD33O,1.700000X1.700000*%
%ADD34RoundRect,0.150000X0.150000X-0.587500X0.150000X0.587500X-0.150000X0.587500X-0.150000X-0.587500X0*%
%ADD35RoundRect,0.225000X0.250000X-0.225000X0.250000X0.225000X-0.250000X0.225000X-0.250000X-0.225000X0*%
%ADD36RoundRect,0.200000X0.275000X-0.200000X0.275000X0.200000X-0.275000X0.200000X-0.275000X-0.200000X0*%
%ADD37C,0.650000*%
%ADD38R,0.600000X1.240000*%
%ADD39R,0.300000X1.240000*%
%ADD40O,1.000000X2.100000*%
%ADD41O,1.000000X1.800000*%
%ADD42R,0.900000X1.200000*%
%ADD43RoundRect,0.200000X0.200000X0.275000X-0.200000X0.275000X-0.200000X-0.275000X0.200000X-0.275000X0*%
%ADD44RoundRect,0.225000X-0.225000X-0.250000X0.225000X-0.250000X0.225000X0.250000X-0.225000X0.250000X0*%
%ADD45RoundRect,0.225000X0.225000X0.250000X-0.225000X0.250000X-0.225000X-0.250000X0.225000X-0.250000X0*%
%ADD46R,1.800000X2.500000*%
%ADD47R,1.500000X2.000000*%
%ADD48R,3.800000X2.000000*%
%ADD49R,0.800000X0.500000*%
%ADD50R,2.000000X2.000000*%
%ADD51RoundRect,0.250000X1.500000X0.550000X-1.500000X0.550000X-1.500000X-0.550000X1.500000X-0.550000X0*%
%ADD52RoundRect,0.200000X-0.200000X-0.275000X0.200000X-0.275000X0.200000X0.275000X-0.200000X0.275000X0*%
%ADD53RoundRect,0.243750X-0.456250X0.243750X-0.456250X-0.243750X0.456250X-0.243750X0.456250X0.243750X0*%
%ADD54RoundRect,0.249998X-3.650002X-4.550002X3.650002X-4.550002X3.650002X4.550002X-3.650002X4.550002X0*%
%ADD55R,5.410200X2.895600*%
%ADD56R,1.400000X1.600000*%
%ADD57RoundRect,0.250000X0.700000X-0.275000X0.700000X0.275000X-0.700000X0.275000X-0.700000X-0.275000X0*%
%ADD58RoundRect,0.243750X-0.243750X-0.456250X0.243750X-0.456250X0.243750X0.456250X-0.243750X0.456250X0*%
%ADD59R,2.500000X1.800000*%
%ADD60RoundRect,0.250000X1.750000X1.000000X-1.750000X1.000000X-1.750000X-1.000000X1.750000X-1.000000X0*%
%ADD61R,1.500000X0.900000*%
%ADD62R,0.900000X1.500000*%
%ADD63R,0.900000X0.900000*%
%ADD64R,2.200000X2.200000*%
%ADD65C,2.200000*%
%ADD66R,0.650000X1.800000*%
G04 APERTURE END LIST*
D10*
X132820000Y-106200000D02*
X132820000Y-104780000D01*
X169080000Y-92315000D02*
X168500000Y-92315000D01*
X205185174Y-132140000D02*
G75*
G03*
X205185174Y-132140000I-1655174J0D01*
G01*
X185780000Y-123070000D02*
X186880000Y-123070000D01*
X185640000Y-122160000D02*
X187060000Y-122160000D01*
X132830000Y-105430000D02*
X133730000Y-106060000D01*
X178220000Y-144130000D02*
X189370000Y-144130000D01*
X189370000Y-144130000D02*
X189370000Y-149080000D01*
X189370000Y-149080000D02*
X178220000Y-149080000D01*
X178220000Y-149080000D02*
X178220000Y-144130000D01*
D11*
X161653531Y-70920000D02*
G75*
G03*
X161653531Y-70920000I-183531J0D01*
G01*
D10*
X206250000Y-143280000D02*
X211230000Y-143280000D01*
X211230000Y-143280000D02*
X211230000Y-148280000D01*
X211230000Y-148280000D02*
X206250000Y-148280000D01*
X206250000Y-148280000D02*
X206250000Y-143280000D01*
X114200000Y-79545173D02*
X114200000Y-74545173D01*
X111710000Y-132120000D02*
X116710000Y-132120000D01*
X203540000Y-134640000D02*
X203540000Y-129640000D01*
X186370000Y-123090000D02*
X186370000Y-123670000D01*
X186370000Y-122130000D02*
X186370000Y-121760000D01*
X186880000Y-123070000D02*
X186350000Y-122230000D01*
X169100000Y-92825000D02*
X169940000Y-92295000D01*
D11*
X119643531Y-86660000D02*
G75*
G03*
X119643531Y-86660000I-183531J0D01*
G01*
D12*
X203544827Y-77070000D02*
X114190000Y-77045173D01*
D10*
X170040000Y-92315000D02*
X170410000Y-92315000D01*
D11*
X115683531Y-116270000D02*
G75*
G03*
X115683531Y-116270000I-183531J0D01*
G01*
D10*
X169100000Y-91725000D02*
X169100000Y-92825000D01*
X203544827Y-79580000D02*
X203544827Y-74580000D01*
D12*
X203544827Y-77070000D02*
X203540000Y-132130000D01*
D11*
X204193531Y-121132062D02*
G75*
G03*
X204193531Y-121132062I-183531J0D01*
G01*
D10*
X111700000Y-77035173D02*
X116700000Y-77035173D01*
X201044827Y-77070000D02*
X206044827Y-77070000D01*
X133750000Y-105470000D02*
X134330000Y-105470000D01*
X133730000Y-104960000D02*
X132890000Y-105490000D01*
X115845174Y-77045173D02*
G75*
G03*
X115845174Y-77045173I-1655174J0D01*
G01*
X201040000Y-132130000D02*
X206040000Y-132130000D01*
X115855174Y-132130000D02*
G75*
G03*
X115855174Y-132130000I-1655174J0D01*
G01*
X186410000Y-122170000D02*
X185780000Y-123070000D01*
X170000000Y-92355000D02*
X169100000Y-91725000D01*
X114210000Y-134630000D02*
X114210000Y-129630000D01*
X132790000Y-105470000D02*
X132420000Y-105470000D01*
D11*
X211313531Y-86660000D02*
G75*
G03*
X211313531Y-86660000I-183531J0D01*
G01*
X207113531Y-141090000D02*
G75*
G03*
X207113531Y-141090000I-183531J0D01*
G01*
D12*
X114200000Y-132130000D02*
X114200000Y-77040000D01*
X203540000Y-132130000D02*
X114200000Y-132130000D01*
D10*
X133730000Y-106060000D02*
X133730000Y-104960000D01*
X205190001Y-77080000D02*
G75*
G03*
X205190001Y-77080000I-1655174J0D01*
G01*
D13*
X204816000Y-82202000D02*
X211836000Y-82202000D01*
X211836000Y-82202000D02*
X211836000Y-117332000D01*
X211836000Y-117332000D02*
X204816000Y-117332000D01*
X204816000Y-117332000D02*
X204816000Y-82202000D01*
D10*
X170010000Y-91585000D02*
X170010000Y-93005000D01*
D14*
X179408571Y-145097142D02*
X180551428Y-145097142D01*
X179980000Y-145668571D02*
X179980000Y-144525714D01*
D15*
X115049047Y-95421428D02*
X115810952Y-95421428D01*
X115430000Y-95802380D02*
X115430000Y-95040476D01*
D14*
X203075714Y-69558571D02*
X204004285Y-69558571D01*
X203504285Y-70130000D01*
X203718571Y-70130000D01*
X203861428Y-70201428D01*
X203932857Y-70272857D01*
X204004285Y-70415714D01*
X204004285Y-70772857D01*
X203932857Y-70915714D01*
X203861428Y-70987142D01*
X203718571Y-71058571D01*
X203290000Y-71058571D01*
X203147142Y-70987142D01*
X203075714Y-70915714D01*
X205290000Y-70058571D02*
X205290000Y-71058571D01*
X204932857Y-69487142D02*
X204575714Y-70558571D01*
X205504285Y-70558571D01*
D10*
X204371904Y-118140000D02*
X204276666Y-118092380D01*
X204133809Y-118092380D01*
X203990952Y-118140000D01*
X203895714Y-118235238D01*
X203848095Y-118330476D01*
X203800476Y-118520952D01*
X203800476Y-118663809D01*
X203848095Y-118854285D01*
X203895714Y-118949523D01*
X203990952Y-119044761D01*
X204133809Y-119092380D01*
X204229047Y-119092380D01*
X204371904Y-119044761D01*
X204419523Y-118997142D01*
X204419523Y-118663809D01*
X204229047Y-118663809D01*
D14*
X200865714Y-72668571D02*
X201794285Y-72668571D01*
X201294285Y-73240000D01*
X201508571Y-73240000D01*
X201651428Y-73311428D01*
X201722857Y-73382857D01*
X201794285Y-73525714D01*
X201794285Y-73882857D01*
X201722857Y-74025714D01*
X201651428Y-74097142D01*
X201508571Y-74168571D01*
X201080000Y-74168571D01*
X200937142Y-74097142D01*
X200865714Y-74025714D01*
X203151428Y-72668571D02*
X202437142Y-72668571D01*
X202365714Y-73382857D01*
X202437142Y-73311428D01*
X202580000Y-73240000D01*
X202937142Y-73240000D01*
X203080000Y-73311428D01*
X203151428Y-73382857D01*
X203222857Y-73525714D01*
X203222857Y-73882857D01*
X203151428Y-74025714D01*
X203080000Y-74097142D01*
X202937142Y-74168571D01*
X202580000Y-74168571D01*
X202437142Y-74097142D01*
X202365714Y-74025714D01*
X206752285Y-133242857D02*
X206966571Y-133314285D01*
X207038000Y-133385714D01*
X207109428Y-133528571D01*
X207109428Y-133742857D01*
X207038000Y-133885714D01*
X206966571Y-133957142D01*
X206823714Y-134028571D01*
X206252285Y-134028571D01*
X206252285Y-132528571D01*
X206752285Y-132528571D01*
X206895142Y-132600000D01*
X206966571Y-132671428D01*
X207038000Y-132814285D01*
X207038000Y-132957142D01*
X206966571Y-133100000D01*
X206895142Y-133171428D01*
X206752285Y-133242857D01*
X206252285Y-133242857D01*
X208038000Y-132528571D02*
X208323714Y-132528571D01*
X208466571Y-132600000D01*
X208609428Y-132742857D01*
X208680857Y-133028571D01*
X208680857Y-133528571D01*
X208609428Y-133814285D01*
X208466571Y-133957142D01*
X208323714Y-134028571D01*
X208038000Y-134028571D01*
X207895142Y-133957142D01*
X207752285Y-133814285D01*
X207680857Y-133528571D01*
X207680857Y-133028571D01*
X207752285Y-132742857D01*
X207895142Y-132600000D01*
X208038000Y-132528571D01*
X209609428Y-132528571D02*
X209895142Y-132528571D01*
X210038000Y-132600000D01*
X210180857Y-132742857D01*
X210252285Y-133028571D01*
X210252285Y-133528571D01*
X210180857Y-133814285D01*
X210038000Y-133957142D01*
X209895142Y-134028571D01*
X209609428Y-134028571D01*
X209466571Y-133957142D01*
X209323714Y-133814285D01*
X209252285Y-133528571D01*
X209252285Y-133028571D01*
X209323714Y-132742857D01*
X209466571Y-132600000D01*
X209609428Y-132528571D01*
X210680857Y-132528571D02*
X211538000Y-132528571D01*
X211109428Y-134028571D02*
X211109428Y-132528571D01*
D10*
X205967142Y-72299285D02*
X206431428Y-72299285D01*
X206181428Y-72585000D01*
X206288571Y-72585000D01*
X206360000Y-72620714D01*
X206395714Y-72656428D01*
X206431428Y-72727857D01*
X206431428Y-72906428D01*
X206395714Y-72977857D01*
X206360000Y-73013571D01*
X206288571Y-73049285D01*
X206074285Y-73049285D01*
X206002857Y-73013571D01*
X205967142Y-72977857D01*
X206681428Y-72549285D02*
X206860000Y-73049285D01*
X207038571Y-72549285D01*
X207252857Y-72299285D02*
X207717142Y-72299285D01*
X207467142Y-72585000D01*
X207574285Y-72585000D01*
X207645714Y-72620714D01*
X207681428Y-72656428D01*
X207717142Y-72727857D01*
X207717142Y-72906428D01*
X207681428Y-72977857D01*
X207645714Y-73013571D01*
X207574285Y-73049285D01*
X207360000Y-73049285D01*
X207288571Y-73013571D01*
X207252857Y-72977857D01*
D14*
X200835714Y-83428571D02*
X201764285Y-83428571D01*
X201264285Y-84000000D01*
X201478571Y-84000000D01*
X201621428Y-84071428D01*
X201692857Y-84142857D01*
X201764285Y-84285714D01*
X201764285Y-84642857D01*
X201692857Y-84785714D01*
X201621428Y-84857142D01*
X201478571Y-84928571D01*
X201050000Y-84928571D01*
X200907142Y-84857142D01*
X200835714Y-84785714D01*
X202264285Y-83428571D02*
X203192857Y-83428571D01*
X202692857Y-84000000D01*
X202907142Y-84000000D01*
X203050000Y-84071428D01*
X203121428Y-84142857D01*
X203192857Y-84285714D01*
X203192857Y-84642857D01*
X203121428Y-84785714D01*
X203050000Y-84857142D01*
X202907142Y-84928571D01*
X202478571Y-84928571D01*
X202335714Y-84857142D01*
X202264285Y-84785714D01*
D15*
X187861904Y-144590000D02*
X187766666Y-144542380D01*
X187623809Y-144542380D01*
X187480952Y-144590000D01*
X187385714Y-144685238D01*
X187338095Y-144780476D01*
X187290476Y-144970952D01*
X187290476Y-145113809D01*
X187338095Y-145304285D01*
X187385714Y-145399523D01*
X187480952Y-145494761D01*
X187623809Y-145542380D01*
X187719047Y-145542380D01*
X187861904Y-145494761D01*
X187909523Y-145447142D01*
X187909523Y-145113809D01*
X187719047Y-145113809D01*
D10*
X210576428Y-72335000D02*
X210505000Y-72299285D01*
X210397857Y-72299285D01*
X210290714Y-72335000D01*
X210219285Y-72406428D01*
X210183571Y-72477857D01*
X210147857Y-72620714D01*
X210147857Y-72727857D01*
X210183571Y-72870714D01*
X210219285Y-72942142D01*
X210290714Y-73013571D01*
X210397857Y-73049285D01*
X210469285Y-73049285D01*
X210576428Y-73013571D01*
X210612142Y-72977857D01*
X210612142Y-72727857D01*
X210469285Y-72727857D01*
D16*
X174794732Y-113729285D02*
X174794732Y-114265000D01*
X174759017Y-114372142D01*
X174687589Y-114443571D01*
X174580446Y-114479285D01*
X174509017Y-114479285D01*
X175509017Y-114479285D02*
X175151875Y-114479285D01*
X175151875Y-113729285D01*
X176187589Y-114407857D02*
X176151875Y-114443571D01*
X176044732Y-114479285D01*
X175973303Y-114479285D01*
X175866160Y-114443571D01*
X175794732Y-114372142D01*
X175759017Y-114300714D01*
X175723303Y-114157857D01*
X175723303Y-114050714D01*
X175759017Y-113907857D01*
X175794732Y-113836428D01*
X175866160Y-113765000D01*
X175973303Y-113729285D01*
X176044732Y-113729285D01*
X176151875Y-113765000D01*
X176187589Y-113800714D01*
X176723303Y-113729285D02*
X176723303Y-114265000D01*
X176687589Y-114372142D01*
X176616160Y-114443571D01*
X176509017Y-114479285D01*
X176437589Y-114479285D01*
X177437589Y-114479285D02*
X177080446Y-114479285D01*
X177080446Y-113729285D01*
X178116160Y-114407857D02*
X178080446Y-114443571D01*
X177973303Y-114479285D01*
X177901875Y-114479285D01*
X177794732Y-114443571D01*
X177723303Y-114372142D01*
X177687589Y-114300714D01*
X177651875Y-114157857D01*
X177651875Y-114050714D01*
X177687589Y-113907857D01*
X177723303Y-113836428D01*
X177794732Y-113765000D01*
X177901875Y-113729285D01*
X177973303Y-113729285D01*
X178080446Y-113765000D01*
X178116160Y-113800714D01*
X178651875Y-113729285D02*
X178651875Y-114265000D01*
X178616160Y-114372142D01*
X178544732Y-114443571D01*
X178437589Y-114479285D01*
X178366160Y-114479285D01*
X179366160Y-114479285D02*
X179009017Y-114479285D01*
X179009017Y-113729285D01*
X180044732Y-114407857D02*
X180009017Y-114443571D01*
X179901875Y-114479285D01*
X179830446Y-114479285D01*
X179723303Y-114443571D01*
X179651875Y-114372142D01*
X179616160Y-114300714D01*
X179580446Y-114157857D01*
X179580446Y-114050714D01*
X179616160Y-113907857D01*
X179651875Y-113836428D01*
X179723303Y-113765000D01*
X179830446Y-113729285D01*
X179901875Y-113729285D01*
X180009017Y-113765000D01*
X180044732Y-113800714D01*
X180580446Y-113729285D02*
X180580446Y-114265000D01*
X180544732Y-114372142D01*
X180473303Y-114443571D01*
X180366160Y-114479285D01*
X180294732Y-114479285D01*
X181294732Y-114479285D02*
X180937589Y-114479285D01*
X180937589Y-113729285D01*
X181973303Y-114407857D02*
X181937589Y-114443571D01*
X181830446Y-114479285D01*
X181759017Y-114479285D01*
X181651875Y-114443571D01*
X181580446Y-114372142D01*
X181544732Y-114300714D01*
X181509017Y-114157857D01*
X181509017Y-114050714D01*
X181544732Y-113907857D01*
X181580446Y-113836428D01*
X181651875Y-113765000D01*
X181759017Y-113729285D01*
X181830446Y-113729285D01*
X181937589Y-113765000D01*
X181973303Y-113800714D01*
D14*
X196618571Y-147517142D02*
X197761428Y-147517142D01*
X197190000Y-148088571D02*
X197190000Y-146945714D01*
D15*
X184369523Y-144492380D02*
X184940952Y-144492380D01*
X184655238Y-145492380D02*
X184655238Y-144492380D01*
X185179047Y-145492380D02*
X185702857Y-144825714D01*
X185179047Y-144825714D02*
X185702857Y-145492380D01*
X182404761Y-145492380D02*
X182071428Y-145016190D01*
X181833333Y-145492380D02*
X181833333Y-144492380D01*
X182214285Y-144492380D01*
X182309523Y-144540000D01*
X182357142Y-144587619D01*
X182404761Y-144682857D01*
X182404761Y-144825714D01*
X182357142Y-144920952D01*
X182309523Y-144968571D01*
X182214285Y-145016190D01*
X181833333Y-145016190D01*
X182738095Y-145492380D02*
X183261904Y-144825714D01*
X182738095Y-144825714D02*
X183261904Y-145492380D01*
D10*
X119761904Y-95050000D02*
X119666666Y-95002380D01*
X119523809Y-95002380D01*
X119380952Y-95050000D01*
X119285714Y-95145238D01*
X119238095Y-95240476D01*
X119190476Y-95430952D01*
X119190476Y-95573809D01*
X119238095Y-95764285D01*
X119285714Y-95859523D01*
X119380952Y-95954761D01*
X119523809Y-96002380D01*
X119619047Y-96002380D01*
X119761904Y-95954761D01*
X119809523Y-95907142D01*
X119809523Y-95573809D01*
X119619047Y-95573809D01*
D16*
X208619285Y-111167428D02*
X207869285Y-111167428D01*
X208405000Y-110917428D01*
X207869285Y-110667428D01*
X208619285Y-110667428D01*
X208619285Y-110310285D02*
X208119285Y-110310285D01*
X207869285Y-110310285D02*
X207905000Y-110346000D01*
X207940714Y-110310285D01*
X207905000Y-110274571D01*
X207869285Y-110310285D01*
X207940714Y-110310285D01*
X208583571Y-109631714D02*
X208619285Y-109703142D01*
X208619285Y-109846000D01*
X208583571Y-109917428D01*
X208547857Y-109953142D01*
X208476428Y-109988857D01*
X208262142Y-109988857D01*
X208190714Y-109953142D01*
X208155000Y-109917428D01*
X208119285Y-109846000D01*
X208119285Y-109703142D01*
X208155000Y-109631714D01*
X208619285Y-109310285D02*
X208119285Y-109310285D01*
X208262142Y-109310285D02*
X208190714Y-109274571D01*
X208155000Y-109238857D01*
X208119285Y-109167428D01*
X208119285Y-109096000D01*
X208619285Y-108738857D02*
X208583571Y-108810285D01*
X208547857Y-108846000D01*
X208476428Y-108881714D01*
X208262142Y-108881714D01*
X208190714Y-108846000D01*
X208155000Y-108810285D01*
X208119285Y-108738857D01*
X208119285Y-108631714D01*
X208155000Y-108560285D01*
X208190714Y-108524571D01*
X208262142Y-108488857D01*
X208476428Y-108488857D01*
X208547857Y-108524571D01*
X208583571Y-108560285D01*
X208619285Y-108631714D01*
X208619285Y-108738857D01*
X208119285Y-108238857D02*
X208619285Y-108096000D01*
X208262142Y-107953142D01*
X208619285Y-107810285D01*
X208119285Y-107667428D01*
X208619285Y-107060285D02*
X208226428Y-107060285D01*
X208155000Y-107096000D01*
X208119285Y-107167428D01*
X208119285Y-107310285D01*
X208155000Y-107381714D01*
X208583571Y-107060285D02*
X208619285Y-107131714D01*
X208619285Y-107310285D01*
X208583571Y-107381714D01*
X208512142Y-107417428D01*
X208440714Y-107417428D01*
X208369285Y-107381714D01*
X208333571Y-107310285D01*
X208333571Y-107131714D01*
X208297857Y-107060285D01*
X208119285Y-106774571D02*
X208619285Y-106596000D01*
X208119285Y-106417428D01*
X208583571Y-105846000D02*
X208619285Y-105917428D01*
X208619285Y-106060285D01*
X208583571Y-106131714D01*
X208512142Y-106167428D01*
X208226428Y-106167428D01*
X208155000Y-106131714D01*
X208119285Y-106060285D01*
X208119285Y-105917428D01*
X208155000Y-105846000D01*
X208226428Y-105810285D01*
X208297857Y-105810285D01*
X208369285Y-106167428D01*
X208619285Y-104917428D02*
X207869285Y-104917428D01*
X208619285Y-104596000D02*
X208226428Y-104596000D01*
X208155000Y-104631714D01*
X208119285Y-104703142D01*
X208119285Y-104810285D01*
X208155000Y-104881714D01*
X208190714Y-104917428D01*
X208119285Y-103917428D02*
X208619285Y-103917428D01*
X208119285Y-104238857D02*
X208512142Y-104238857D01*
X208583571Y-104203142D01*
X208619285Y-104131714D01*
X208619285Y-104024571D01*
X208583571Y-103953142D01*
X208547857Y-103917428D01*
X208619285Y-103560285D02*
X208119285Y-103560285D01*
X208190714Y-103560285D02*
X208155000Y-103524571D01*
X208119285Y-103453142D01*
X208119285Y-103346000D01*
X208155000Y-103274571D01*
X208226428Y-103238857D01*
X208619285Y-103238857D01*
X208226428Y-103238857D02*
X208155000Y-103203142D01*
X208119285Y-103131714D01*
X208119285Y-103024571D01*
X208155000Y-102953142D01*
X208226428Y-102917428D01*
X208619285Y-102917428D01*
X208619285Y-102238857D02*
X208226428Y-102238857D01*
X208155000Y-102274571D01*
X208119285Y-102346000D01*
X208119285Y-102488857D01*
X208155000Y-102560285D01*
X208583571Y-102238857D02*
X208619285Y-102310285D01*
X208619285Y-102488857D01*
X208583571Y-102560285D01*
X208512142Y-102596000D01*
X208440714Y-102596000D01*
X208369285Y-102560285D01*
X208333571Y-102488857D01*
X208333571Y-102310285D01*
X208297857Y-102238857D01*
X208119285Y-101881714D02*
X208619285Y-101881714D01*
X208190714Y-101881714D02*
X208155000Y-101846000D01*
X208119285Y-101774571D01*
X208119285Y-101667428D01*
X208155000Y-101596000D01*
X208226428Y-101560285D01*
X208619285Y-101560285D01*
X208583571Y-100667428D02*
X208619285Y-100596000D01*
X208619285Y-100453142D01*
X208583571Y-100381714D01*
X208512142Y-100346000D01*
X208476428Y-100346000D01*
X208405000Y-100381714D01*
X208369285Y-100453142D01*
X208369285Y-100560285D01*
X208333571Y-100631714D01*
X208262142Y-100667428D01*
X208226428Y-100667428D01*
X208155000Y-100631714D01*
X208119285Y-100560285D01*
X208119285Y-100453142D01*
X208155000Y-100381714D01*
X208583571Y-99738857D02*
X208619285Y-99810285D01*
X208619285Y-99953142D01*
X208583571Y-100024571D01*
X208512142Y-100060285D01*
X208226428Y-100060285D01*
X208155000Y-100024571D01*
X208119285Y-99953142D01*
X208119285Y-99810285D01*
X208155000Y-99738857D01*
X208226428Y-99703142D01*
X208297857Y-99703142D01*
X208369285Y-100060285D01*
X208119285Y-99381714D02*
X208619285Y-99381714D01*
X208190714Y-99381714D02*
X208155000Y-99346000D01*
X208119285Y-99274571D01*
X208119285Y-99167428D01*
X208155000Y-99096000D01*
X208226428Y-99060285D01*
X208619285Y-99060285D01*
X208583571Y-98738857D02*
X208619285Y-98667428D01*
X208619285Y-98524571D01*
X208583571Y-98453142D01*
X208512142Y-98417428D01*
X208476428Y-98417428D01*
X208405000Y-98453142D01*
X208369285Y-98524571D01*
X208369285Y-98631714D01*
X208333571Y-98703142D01*
X208262142Y-98738857D01*
X208226428Y-98738857D01*
X208155000Y-98703142D01*
X208119285Y-98631714D01*
X208119285Y-98524571D01*
X208155000Y-98453142D01*
X208619285Y-97988857D02*
X208583571Y-98060285D01*
X208547857Y-98096000D01*
X208476428Y-98131714D01*
X208262142Y-98131714D01*
X208190714Y-98096000D01*
X208155000Y-98060285D01*
X208119285Y-97988857D01*
X208119285Y-97881714D01*
X208155000Y-97810285D01*
X208190714Y-97774571D01*
X208262142Y-97738857D01*
X208476428Y-97738857D01*
X208547857Y-97774571D01*
X208583571Y-97810285D01*
X208619285Y-97881714D01*
X208619285Y-97988857D01*
X208619285Y-97417428D02*
X208119285Y-97417428D01*
X208262142Y-97417428D02*
X208190714Y-97381714D01*
X208155000Y-97346000D01*
X208119285Y-97274571D01*
X208119285Y-97203142D01*
X208905000Y-96167428D02*
X208869285Y-96203142D01*
X208762142Y-96274571D01*
X208690714Y-96310285D01*
X208583571Y-96346000D01*
X208405000Y-96381714D01*
X208262142Y-96381714D01*
X208083571Y-96346000D01*
X207976428Y-96310285D01*
X207905000Y-96274571D01*
X207797857Y-96203142D01*
X207762142Y-96167428D01*
X208619285Y-95524571D02*
X208619285Y-95881714D01*
X207869285Y-95881714D01*
X208619285Y-95274571D02*
X207869285Y-95274571D01*
X207869285Y-95096000D01*
X207905000Y-94988857D01*
X207976428Y-94917428D01*
X208047857Y-94881714D01*
X208190714Y-94846000D01*
X208297857Y-94846000D01*
X208440714Y-94881714D01*
X208512142Y-94917428D01*
X208583571Y-94988857D01*
X208619285Y-95096000D01*
X208619285Y-95274571D01*
X207940714Y-94560285D02*
X207905000Y-94524571D01*
X207869285Y-94453142D01*
X207869285Y-94274571D01*
X207905000Y-94203142D01*
X207940714Y-94167428D01*
X208012142Y-94131714D01*
X208083571Y-94131714D01*
X208190714Y-94167428D01*
X208619285Y-94596000D01*
X208619285Y-94131714D01*
X208119285Y-93488857D02*
X208619285Y-93488857D01*
X207833571Y-93667428D02*
X208369285Y-93846000D01*
X208369285Y-93381714D01*
X208619285Y-92703142D02*
X208619285Y-93131714D01*
X208619285Y-92917428D02*
X207869285Y-92917428D01*
X207976428Y-92988857D01*
X208047857Y-93060285D01*
X208083571Y-93131714D01*
X207869285Y-92238857D02*
X207869285Y-92167428D01*
X207905000Y-92096000D01*
X207940714Y-92060285D01*
X208012142Y-92024571D01*
X208155000Y-91988857D01*
X208333571Y-91988857D01*
X208476428Y-92024571D01*
X208547857Y-92060285D01*
X208583571Y-92096000D01*
X208619285Y-92167428D01*
X208619285Y-92238857D01*
X208583571Y-92310285D01*
X208547857Y-92346000D01*
X208476428Y-92381714D01*
X208333571Y-92417428D01*
X208155000Y-92417428D01*
X208012142Y-92381714D01*
X207940714Y-92346000D01*
X207905000Y-92310285D01*
X207869285Y-92238857D01*
X208905000Y-91738857D02*
X208869285Y-91703142D01*
X208762142Y-91631714D01*
X208690714Y-91596000D01*
X208583571Y-91560285D01*
X208405000Y-91524571D01*
X208262142Y-91524571D01*
X208083571Y-91560285D01*
X207976428Y-91596000D01*
X207905000Y-91631714D01*
X207797857Y-91703142D01*
X207762142Y-91738857D01*
D14*
X157508571Y-144758571D02*
X156794285Y-145258571D01*
X157508571Y-145615714D02*
X156008571Y-145615714D01*
X156008571Y-145044285D01*
X156080000Y-144901428D01*
X156151428Y-144830000D01*
X156294285Y-144758571D01*
X156508571Y-144758571D01*
X156651428Y-144830000D01*
X156722857Y-144901428D01*
X156794285Y-145044285D01*
X156794285Y-145615714D01*
X156722857Y-144115714D02*
X156722857Y-143615714D01*
X157508571Y-143401428D02*
X157508571Y-144115714D01*
X156008571Y-144115714D01*
X156008571Y-143401428D01*
X157437142Y-142830000D02*
X157508571Y-142615714D01*
X157508571Y-142258571D01*
X157437142Y-142115714D01*
X157365714Y-142044285D01*
X157222857Y-141972857D01*
X157080000Y-141972857D01*
X156937142Y-142044285D01*
X156865714Y-142115714D01*
X156794285Y-142258571D01*
X156722857Y-142544285D01*
X156651428Y-142687142D01*
X156580000Y-142758571D01*
X156437142Y-142830000D01*
X156294285Y-142830000D01*
X156151428Y-142758571D01*
X156080000Y-142687142D01*
X156008571Y-142544285D01*
X156008571Y-142187142D01*
X156080000Y-141972857D01*
X156722857Y-141330000D02*
X156722857Y-140830000D01*
X157508571Y-140615714D02*
X157508571Y-141330000D01*
X156008571Y-141330000D01*
X156008571Y-140615714D01*
X156008571Y-140187142D02*
X156008571Y-139330000D01*
X157508571Y-139758571D02*
X156008571Y-139758571D01*
D15*
X209195714Y-139224761D02*
X209338571Y-139272380D01*
X209576666Y-139272380D01*
X209671904Y-139224761D01*
X209719523Y-139177142D01*
X209767142Y-139081904D01*
X209767142Y-138986666D01*
X209719523Y-138891428D01*
X209671904Y-138843809D01*
X209576666Y-138796190D01*
X209386190Y-138748571D01*
X209290952Y-138700952D01*
X209243333Y-138653333D01*
X209195714Y-138558095D01*
X209195714Y-138462857D01*
X209243333Y-138367619D01*
X209290952Y-138320000D01*
X209386190Y-138272380D01*
X209624285Y-138272380D01*
X209767142Y-138320000D01*
X210195714Y-139272380D02*
X210195714Y-138272380D01*
X210433809Y-138272380D01*
X210576666Y-138320000D01*
X210671904Y-138415238D01*
X210719523Y-138510476D01*
X210767142Y-138700952D01*
X210767142Y-138843809D01*
X210719523Y-139034285D01*
X210671904Y-139129523D01*
X210576666Y-139224761D01*
X210433809Y-139272380D01*
X210195714Y-139272380D01*
X211148095Y-138986666D02*
X211624285Y-138986666D01*
X211052857Y-139272380D02*
X211386190Y-138272380D01*
X211719523Y-139272380D01*
D14*
X170728571Y-69697142D02*
X171871428Y-69697142D01*
X171300000Y-70268571D02*
X171300000Y-69125714D01*
D10*
X136317023Y-74277142D02*
X136269404Y-74324761D01*
X136126547Y-74372380D01*
X136031309Y-74372380D01*
X135888452Y-74324761D01*
X135793214Y-74229523D01*
X135745595Y-74134285D01*
X135697976Y-73943809D01*
X135697976Y-73800952D01*
X135745595Y-73610476D01*
X135793214Y-73515238D01*
X135888452Y-73420000D01*
X136031309Y-73372380D01*
X136126547Y-73372380D01*
X136269404Y-73420000D01*
X136317023Y-73467619D01*
X138078928Y-74372380D02*
X137745595Y-73896190D01*
X137507500Y-74372380D02*
X137507500Y-73372380D01*
X137888452Y-73372380D01*
X137983690Y-73420000D01*
X138031309Y-73467619D01*
X138078928Y-73562857D01*
X138078928Y-73705714D01*
X138031309Y-73800952D01*
X137983690Y-73848571D01*
X137888452Y-73896190D01*
X137507500Y-73896190D01*
X138507500Y-74372380D02*
X138507500Y-73372380D01*
X138507500Y-73848571D02*
X139078928Y-73848571D01*
X139078928Y-74372380D02*
X139078928Y-73372380D01*
X140888452Y-74372380D02*
X140555119Y-73896190D01*
X140317023Y-74372380D02*
X140317023Y-73372380D01*
X140697976Y-73372380D01*
X140793214Y-73420000D01*
X140840833Y-73467619D01*
X140888452Y-73562857D01*
X140888452Y-73705714D01*
X140840833Y-73800952D01*
X140793214Y-73848571D01*
X140697976Y-73896190D01*
X140317023Y-73896190D01*
X141888452Y-74277142D02*
X141840833Y-74324761D01*
X141697976Y-74372380D01*
X141602738Y-74372380D01*
X141459880Y-74324761D01*
X141364642Y-74229523D01*
X141317023Y-74134285D01*
X141269404Y-73943809D01*
X141269404Y-73800952D01*
X141317023Y-73610476D01*
X141364642Y-73515238D01*
X141459880Y-73420000D01*
X141602738Y-73372380D01*
X141697976Y-73372380D01*
X141840833Y-73420000D01*
X141888452Y-73467619D01*
X143078928Y-73991428D02*
X143840833Y-73991428D01*
X145745595Y-73372380D02*
X145983690Y-74372380D01*
X146174166Y-73658095D01*
X146364642Y-74372380D01*
X146602738Y-73372380D01*
X148697976Y-73896190D02*
X148697976Y-74372380D01*
X148364642Y-73372380D02*
X148697976Y-73896190D01*
X149031309Y-73372380D01*
X151412261Y-73420000D02*
X151317023Y-73372380D01*
X151174166Y-73372380D01*
X151031309Y-73420000D01*
X150936071Y-73515238D01*
X150888452Y-73610476D01*
X150840833Y-73800952D01*
X150840833Y-73943809D01*
X150888452Y-74134285D01*
X150936071Y-74229523D01*
X151031309Y-74324761D01*
X151174166Y-74372380D01*
X151269404Y-74372380D01*
X151412261Y-74324761D01*
X151459880Y-74277142D01*
X151459880Y-73943809D01*
X151269404Y-73943809D01*
X153602738Y-73372380D02*
X153793214Y-73372380D01*
X153888452Y-73420000D01*
X153983690Y-73515238D01*
X154031309Y-73705714D01*
X154031309Y-74039047D01*
X153983690Y-74229523D01*
X153888452Y-74324761D01*
X153793214Y-74372380D01*
X153602738Y-74372380D01*
X153507500Y-74324761D01*
X153412261Y-74229523D01*
X153364642Y-74039047D01*
X153364642Y-73705714D01*
X153412261Y-73515238D01*
X153507500Y-73420000D01*
X153602738Y-73372380D01*
X154793214Y-73848571D02*
X154936071Y-73896190D01*
X154983690Y-73943809D01*
X155031309Y-74039047D01*
X155031309Y-74181904D01*
X154983690Y-74277142D01*
X154936071Y-74324761D01*
X154840833Y-74372380D01*
X154459880Y-74372380D01*
X154459880Y-73372380D01*
X154793214Y-73372380D01*
X154888452Y-73420000D01*
X154936071Y-73467619D01*
X154983690Y-73562857D01*
X154983690Y-73658095D01*
X154936071Y-73753333D01*
X154888452Y-73800952D01*
X154793214Y-73848571D01*
X154459880Y-73848571D01*
X156221785Y-73848571D02*
X156555119Y-73848571D01*
X156697976Y-74372380D02*
X156221785Y-74372380D01*
X156221785Y-73372380D01*
X156697976Y-73372380D01*
X158650357Y-73991428D02*
X159412261Y-73991428D01*
D15*
X183413809Y-137722380D02*
X183413809Y-138531904D01*
X183461428Y-138627142D01*
X183509047Y-138674761D01*
X183604285Y-138722380D01*
X183794761Y-138722380D01*
X183890000Y-138674761D01*
X183937619Y-138627142D01*
X183985238Y-138531904D01*
X183985238Y-137722380D01*
X184413809Y-138436666D02*
X184890000Y-138436666D01*
X184318571Y-138722380D02*
X184651904Y-137722380D01*
X184985238Y-138722380D01*
X185890000Y-138722380D02*
X185556666Y-138246190D01*
X185318571Y-138722380D02*
X185318571Y-137722380D01*
X185699523Y-137722380D01*
X185794761Y-137770000D01*
X185842380Y-137817619D01*
X185890000Y-137912857D01*
X185890000Y-138055714D01*
X185842380Y-138150952D01*
X185794761Y-138198571D01*
X185699523Y-138246190D01*
X185318571Y-138246190D01*
X186175714Y-137722380D02*
X186747142Y-137722380D01*
X186461428Y-138722380D02*
X186461428Y-137722380D01*
X187842380Y-138722380D02*
X187842380Y-137722380D01*
X188223333Y-137722380D01*
X188318571Y-137770000D01*
X188366190Y-137817619D01*
X188413809Y-137912857D01*
X188413809Y-138055714D01*
X188366190Y-138150952D01*
X188318571Y-138198571D01*
X188223333Y-138246190D01*
X187842380Y-138246190D01*
X188985238Y-138722380D02*
X188890000Y-138674761D01*
X188842380Y-138627142D01*
X188794761Y-138531904D01*
X188794761Y-138246190D01*
X188842380Y-138150952D01*
X188890000Y-138103333D01*
X188985238Y-138055714D01*
X189128095Y-138055714D01*
X189223333Y-138103333D01*
X189270952Y-138150952D01*
X189318571Y-138246190D01*
X189318571Y-138531904D01*
X189270952Y-138627142D01*
X189223333Y-138674761D01*
X189128095Y-138722380D01*
X188985238Y-138722380D01*
X189651904Y-138055714D02*
X189842380Y-138722380D01*
X190032857Y-138246190D01*
X190223333Y-138722380D01*
X190413809Y-138055714D01*
X191175714Y-138674761D02*
X191080476Y-138722380D01*
X190890000Y-138722380D01*
X190794761Y-138674761D01*
X190747142Y-138579523D01*
X190747142Y-138198571D01*
X190794761Y-138103333D01*
X190890000Y-138055714D01*
X191080476Y-138055714D01*
X191175714Y-138103333D01*
X191223333Y-138198571D01*
X191223333Y-138293809D01*
X190747142Y-138389047D01*
X191651904Y-138722380D02*
X191651904Y-138055714D01*
X191651904Y-138246190D02*
X191699523Y-138150952D01*
X191747142Y-138103333D01*
X191842380Y-138055714D01*
X191937619Y-138055714D01*
X193509047Y-137722380D02*
X193032857Y-137722380D01*
X192985238Y-138198571D01*
X193032857Y-138150952D01*
X193128095Y-138103333D01*
X193366190Y-138103333D01*
X193461428Y-138150952D01*
X193509047Y-138198571D01*
X193556666Y-138293809D01*
X193556666Y-138531904D01*
X193509047Y-138627142D01*
X193461428Y-138674761D01*
X193366190Y-138722380D01*
X193128095Y-138722380D01*
X193032857Y-138674761D01*
X192985238Y-138627142D01*
X193842380Y-137722380D02*
X194175714Y-138722380D01*
X194509047Y-137722380D01*
D10*
X208172857Y-77299285D02*
X207815714Y-77299285D01*
X207780000Y-77656428D01*
X207815714Y-77620714D01*
X207887142Y-77585000D01*
X208065714Y-77585000D01*
X208137142Y-77620714D01*
X208172857Y-77656428D01*
X208208571Y-77727857D01*
X208208571Y-77906428D01*
X208172857Y-77977857D01*
X208137142Y-78013571D01*
X208065714Y-78049285D01*
X207887142Y-78049285D01*
X207815714Y-78013571D01*
X207780000Y-77977857D01*
X208458571Y-77549285D02*
X208637142Y-78049285D01*
X208815714Y-77549285D01*
D15*
X205699523Y-139284761D02*
X205842380Y-139332380D01*
X206080476Y-139332380D01*
X206175714Y-139284761D01*
X206223333Y-139237142D01*
X206270952Y-139141904D01*
X206270952Y-139046666D01*
X206223333Y-138951428D01*
X206175714Y-138903809D01*
X206080476Y-138856190D01*
X205890000Y-138808571D01*
X205794761Y-138760952D01*
X205747142Y-138713333D01*
X205699523Y-138618095D01*
X205699523Y-138522857D01*
X205747142Y-138427619D01*
X205794761Y-138380000D01*
X205890000Y-138332380D01*
X206128095Y-138332380D01*
X206270952Y-138380000D01*
X207270952Y-139237142D02*
X207223333Y-139284761D01*
X207080476Y-139332380D01*
X206985238Y-139332380D01*
X206842380Y-139284761D01*
X206747142Y-139189523D01*
X206699523Y-139094285D01*
X206651904Y-138903809D01*
X206651904Y-138760952D01*
X206699523Y-138570476D01*
X206747142Y-138475238D01*
X206842380Y-138380000D01*
X206985238Y-138332380D01*
X207080476Y-138332380D01*
X207223333Y-138380000D01*
X207270952Y-138427619D01*
X208175714Y-139332380D02*
X207699523Y-139332380D01*
X207699523Y-138332380D01*
D16*
X174773571Y-111709285D02*
X174773571Y-112316428D01*
X174737857Y-112387857D01*
X174702142Y-112423571D01*
X174630714Y-112459285D01*
X174523571Y-112459285D01*
X174452142Y-112423571D01*
X174773571Y-112173571D02*
X174702142Y-112209285D01*
X174559285Y-112209285D01*
X174487857Y-112173571D01*
X174452142Y-112137857D01*
X174416428Y-112066428D01*
X174416428Y-111852142D01*
X174452142Y-111780714D01*
X174487857Y-111745000D01*
X174559285Y-111709285D01*
X174702142Y-111709285D01*
X174773571Y-111745000D01*
X175130714Y-112209285D02*
X175130714Y-111709285D01*
X175130714Y-111459285D02*
X175095000Y-111495000D01*
X175130714Y-111530714D01*
X175166428Y-111495000D01*
X175130714Y-111459285D01*
X175130714Y-111530714D01*
X175380714Y-111709285D02*
X175666428Y-111709285D01*
X175487857Y-111459285D02*
X175487857Y-112102142D01*
X175523571Y-112173571D01*
X175595000Y-112209285D01*
X175666428Y-112209285D01*
X175916428Y-112209285D02*
X175916428Y-111459285D01*
X176237857Y-112209285D02*
X176237857Y-111816428D01*
X176202142Y-111745000D01*
X176130714Y-111709285D01*
X176023571Y-111709285D01*
X175952142Y-111745000D01*
X175916428Y-111780714D01*
X176916428Y-111709285D02*
X176916428Y-112209285D01*
X176595000Y-111709285D02*
X176595000Y-112102142D01*
X176630714Y-112173571D01*
X176702142Y-112209285D01*
X176809285Y-112209285D01*
X176880714Y-112173571D01*
X176916428Y-112137857D01*
X177273571Y-112209285D02*
X177273571Y-111459285D01*
X177273571Y-111745000D02*
X177345000Y-111709285D01*
X177487857Y-111709285D01*
X177559285Y-111745000D01*
X177595000Y-111780714D01*
X177630714Y-111852142D01*
X177630714Y-112066428D01*
X177595000Y-112137857D01*
X177559285Y-112173571D01*
X177487857Y-112209285D01*
X177345000Y-112209285D01*
X177273571Y-112173571D01*
X177952142Y-112137857D02*
X177987857Y-112173571D01*
X177952142Y-112209285D01*
X177916428Y-112173571D01*
X177952142Y-112137857D01*
X177952142Y-112209285D01*
X178630714Y-112173571D02*
X178559285Y-112209285D01*
X178416428Y-112209285D01*
X178345000Y-112173571D01*
X178309285Y-112137857D01*
X178273571Y-112066428D01*
X178273571Y-111852142D01*
X178309285Y-111780714D01*
X178345000Y-111745000D01*
X178416428Y-111709285D01*
X178559285Y-111709285D01*
X178630714Y-111745000D01*
X179059285Y-112209285D02*
X178987857Y-112173571D01*
X178952142Y-112137857D01*
X178916428Y-112066428D01*
X178916428Y-111852142D01*
X178952142Y-111780714D01*
X178987857Y-111745000D01*
X179059285Y-111709285D01*
X179166428Y-111709285D01*
X179237857Y-111745000D01*
X179273571Y-111780714D01*
X179309285Y-111852142D01*
X179309285Y-112066428D01*
X179273571Y-112137857D01*
X179237857Y-112173571D01*
X179166428Y-112209285D01*
X179059285Y-112209285D01*
X179630714Y-112209285D02*
X179630714Y-111709285D01*
X179630714Y-111780714D02*
X179666428Y-111745000D01*
X179737857Y-111709285D01*
X179845000Y-111709285D01*
X179916428Y-111745000D01*
X179952142Y-111816428D01*
X179952142Y-112209285D01*
X179952142Y-111816428D02*
X179987857Y-111745000D01*
X180059285Y-111709285D01*
X180166428Y-111709285D01*
X180237857Y-111745000D01*
X180273571Y-111816428D01*
X180273571Y-112209285D01*
X181166428Y-111423571D02*
X180523571Y-112387857D01*
X181380714Y-112173571D02*
X181452142Y-112209285D01*
X181595000Y-112209285D01*
X181666428Y-112173571D01*
X181702142Y-112102142D01*
X181702142Y-112066428D01*
X181666428Y-111995000D01*
X181595000Y-111959285D01*
X181487857Y-111959285D01*
X181416428Y-111923571D01*
X181380714Y-111852142D01*
X181380714Y-111816428D01*
X181416428Y-111745000D01*
X181487857Y-111709285D01*
X181595000Y-111709285D01*
X181666428Y-111745000D01*
X182023571Y-112209285D02*
X182023571Y-111709285D01*
X182023571Y-111780714D02*
X182059285Y-111745000D01*
X182130714Y-111709285D01*
X182237857Y-111709285D01*
X182309285Y-111745000D01*
X182345000Y-111816428D01*
X182345000Y-112209285D01*
X182345000Y-111816428D02*
X182380714Y-111745000D01*
X182452142Y-111709285D01*
X182559285Y-111709285D01*
X182630714Y-111745000D01*
X182666428Y-111816428D01*
X182666428Y-112209285D01*
X183309285Y-112173571D02*
X183237857Y-112209285D01*
X183095000Y-112209285D01*
X183023571Y-112173571D01*
X182987857Y-112102142D01*
X182987857Y-111816428D01*
X183023571Y-111745000D01*
X183095000Y-111709285D01*
X183237857Y-111709285D01*
X183309285Y-111745000D01*
X183345000Y-111816428D01*
X183345000Y-111887857D01*
X182987857Y-111959285D01*
X183666428Y-112209285D02*
X183666428Y-111709285D01*
X183666428Y-111459285D02*
X183630714Y-111495000D01*
X183666428Y-111530714D01*
X183702142Y-111495000D01*
X183666428Y-111459285D01*
X183666428Y-111530714D01*
X183987857Y-112173571D02*
X184059285Y-112209285D01*
X184202142Y-112209285D01*
X184273571Y-112173571D01*
X184309285Y-112102142D01*
X184309285Y-112066428D01*
X184273571Y-111995000D01*
X184202142Y-111959285D01*
X184095000Y-111959285D01*
X184023571Y-111923571D01*
X183987857Y-111852142D01*
X183987857Y-111816428D01*
X184023571Y-111745000D01*
X184095000Y-111709285D01*
X184202142Y-111709285D01*
X184273571Y-111745000D01*
X184630714Y-111709285D02*
X184630714Y-112209285D01*
X184630714Y-111780714D02*
X184666428Y-111745000D01*
X184737857Y-111709285D01*
X184845000Y-111709285D01*
X184916428Y-111745000D01*
X184952142Y-111816428D01*
X184952142Y-112209285D01*
X185595000Y-112173571D02*
X185523571Y-112209285D01*
X185380714Y-112209285D01*
X185309285Y-112173571D01*
X185273571Y-112102142D01*
X185273571Y-111816428D01*
X185309285Y-111745000D01*
X185380714Y-111709285D01*
X185523571Y-111709285D01*
X185595000Y-111745000D01*
X185630714Y-111816428D01*
X185630714Y-111887857D01*
X185273571Y-111959285D01*
X185952142Y-112209285D02*
X185952142Y-111709285D01*
X185952142Y-111852142D02*
X185987857Y-111780714D01*
X186023571Y-111745000D01*
X186095000Y-111709285D01*
X186166428Y-111709285D01*
X186952142Y-111423571D02*
X186309285Y-112387857D01*
X187166428Y-112173571D02*
X187237857Y-112209285D01*
X187380714Y-112209285D01*
X187452142Y-112173571D01*
X187487857Y-112102142D01*
X187487857Y-112066428D01*
X187452142Y-111995000D01*
X187380714Y-111959285D01*
X187273571Y-111959285D01*
X187202142Y-111923571D01*
X187166428Y-111852142D01*
X187166428Y-111816428D01*
X187202142Y-111745000D01*
X187273571Y-111709285D01*
X187380714Y-111709285D01*
X187452142Y-111745000D01*
X187809285Y-112209285D02*
X187809285Y-111709285D01*
X187809285Y-111780714D02*
X187845000Y-111745000D01*
X187916428Y-111709285D01*
X188023571Y-111709285D01*
X188095000Y-111745000D01*
X188130714Y-111816428D01*
X188130714Y-112209285D01*
X188130714Y-111816428D02*
X188166428Y-111745000D01*
X188237857Y-111709285D01*
X188345000Y-111709285D01*
X188416428Y-111745000D01*
X188452142Y-111816428D01*
X188452142Y-112209285D01*
X189130714Y-112209285D02*
X189130714Y-111816428D01*
X189095000Y-111745000D01*
X189023571Y-111709285D01*
X188880714Y-111709285D01*
X188809285Y-111745000D01*
X189130714Y-112173571D02*
X189059285Y-112209285D01*
X188880714Y-112209285D01*
X188809285Y-112173571D01*
X188773571Y-112102142D01*
X188773571Y-112030714D01*
X188809285Y-111959285D01*
X188880714Y-111923571D01*
X189059285Y-111923571D01*
X189130714Y-111887857D01*
X189487857Y-112209285D02*
X189487857Y-111709285D01*
X189487857Y-111852142D02*
X189523571Y-111780714D01*
X189559285Y-111745000D01*
X189630714Y-111709285D01*
X189702142Y-111709285D01*
X189845000Y-111709285D02*
X190130714Y-111709285D01*
X189952142Y-111459285D02*
X189952142Y-112102142D01*
X189987857Y-112173571D01*
X190059285Y-112209285D01*
X190130714Y-112209285D01*
X190380714Y-111923571D02*
X190952142Y-111923571D01*
X191202142Y-111709285D02*
X191487857Y-111709285D01*
X191309285Y-111459285D02*
X191309285Y-112102142D01*
X191345000Y-112173571D01*
X191416428Y-112209285D01*
X191487857Y-112209285D01*
X191737857Y-112209285D02*
X191737857Y-111459285D01*
X192059285Y-112209285D02*
X192059285Y-111816428D01*
X192023571Y-111745000D01*
X191952142Y-111709285D01*
X191845000Y-111709285D01*
X191773571Y-111745000D01*
X191737857Y-111780714D01*
X192702142Y-112173571D02*
X192630714Y-112209285D01*
X192487857Y-112209285D01*
X192416428Y-112173571D01*
X192380714Y-112102142D01*
X192380714Y-111816428D01*
X192416428Y-111745000D01*
X192487857Y-111709285D01*
X192630714Y-111709285D01*
X192702142Y-111745000D01*
X192737857Y-111816428D01*
X192737857Y-111887857D01*
X192380714Y-111959285D01*
X193059285Y-112209285D02*
X193059285Y-111709285D01*
X193059285Y-111852142D02*
X193095000Y-111780714D01*
X193130714Y-111745000D01*
X193202142Y-111709285D01*
X193273571Y-111709285D01*
X193523571Y-112209285D02*
X193523571Y-111709285D01*
X193523571Y-111780714D02*
X193559285Y-111745000D01*
X193630714Y-111709285D01*
X193737857Y-111709285D01*
X193809285Y-111745000D01*
X193845000Y-111816428D01*
X193845000Y-112209285D01*
X193845000Y-111816428D02*
X193880714Y-111745000D01*
X193952142Y-111709285D01*
X194059285Y-111709285D01*
X194130714Y-111745000D01*
X194166428Y-111816428D01*
X194166428Y-112209285D01*
X194630714Y-112209285D02*
X194559285Y-112173571D01*
X194523571Y-112137857D01*
X194487857Y-112066428D01*
X194487857Y-111852142D01*
X194523571Y-111780714D01*
X194559285Y-111745000D01*
X194630714Y-111709285D01*
X194737857Y-111709285D01*
X194809285Y-111745000D01*
X194845000Y-111780714D01*
X194880714Y-111852142D01*
X194880714Y-112066428D01*
X194845000Y-112137857D01*
X194809285Y-112173571D01*
X194737857Y-112209285D01*
X194630714Y-112209285D01*
X195166428Y-112173571D02*
X195237857Y-112209285D01*
X195380714Y-112209285D01*
X195452142Y-112173571D01*
X195487857Y-112102142D01*
X195487857Y-112066428D01*
X195452142Y-111995000D01*
X195380714Y-111959285D01*
X195273571Y-111959285D01*
X195202142Y-111923571D01*
X195166428Y-111852142D01*
X195166428Y-111816428D01*
X195202142Y-111745000D01*
X195273571Y-111709285D01*
X195380714Y-111709285D01*
X195452142Y-111745000D01*
X195702142Y-111709285D02*
X195987857Y-111709285D01*
X195809285Y-111459285D02*
X195809285Y-112102142D01*
X195845000Y-112173571D01*
X195916428Y-112209285D01*
X195987857Y-112209285D01*
X196559285Y-112209285D02*
X196559285Y-111816428D01*
X196523571Y-111745000D01*
X196452142Y-111709285D01*
X196309285Y-111709285D01*
X196237857Y-111745000D01*
X196559285Y-112173571D02*
X196487857Y-112209285D01*
X196309285Y-112209285D01*
X196237857Y-112173571D01*
X196202142Y-112102142D01*
X196202142Y-112030714D01*
X196237857Y-111959285D01*
X196309285Y-111923571D01*
X196487857Y-111923571D01*
X196559285Y-111887857D01*
X196809285Y-111709285D02*
X197095000Y-111709285D01*
X196916428Y-111459285D02*
X196916428Y-112102142D01*
X196952142Y-112173571D01*
X197023571Y-112209285D01*
X197095000Y-112209285D01*
D10*
X174718452Y-103277380D02*
X174718452Y-103515476D01*
X174480357Y-103420238D02*
X174718452Y-103515476D01*
X174956547Y-103420238D01*
X174575595Y-103705952D02*
X174718452Y-103515476D01*
X174861309Y-103705952D01*
X175480357Y-103277380D02*
X175480357Y-103515476D01*
X175242261Y-103420238D02*
X175480357Y-103515476D01*
X175718452Y-103420238D01*
X175337500Y-103705952D02*
X175480357Y-103515476D01*
X175623214Y-103705952D01*
X176861309Y-104277380D02*
X176861309Y-103277380D01*
X177242261Y-103277380D01*
X177337500Y-103325000D01*
X177385119Y-103372619D01*
X177432738Y-103467857D01*
X177432738Y-103610714D01*
X177385119Y-103705952D01*
X177337500Y-103753571D01*
X177242261Y-103801190D01*
X176861309Y-103801190D01*
X178432738Y-104277380D02*
X178099404Y-103801190D01*
X177861309Y-104277380D02*
X177861309Y-103277380D01*
X178242261Y-103277380D01*
X178337500Y-103325000D01*
X178385119Y-103372619D01*
X178432738Y-103467857D01*
X178432738Y-103610714D01*
X178385119Y-103705952D01*
X178337500Y-103753571D01*
X178242261Y-103801190D01*
X177861309Y-103801190D01*
X179051785Y-103277380D02*
X179242261Y-103277380D01*
X179337500Y-103325000D01*
X179432738Y-103420238D01*
X179480357Y-103610714D01*
X179480357Y-103944047D01*
X179432738Y-104134523D01*
X179337500Y-104229761D01*
X179242261Y-104277380D01*
X179051785Y-104277380D01*
X178956547Y-104229761D01*
X178861309Y-104134523D01*
X178813690Y-103944047D01*
X178813690Y-103610714D01*
X178861309Y-103420238D01*
X178956547Y-103325000D01*
X179051785Y-103277380D01*
X179766071Y-103277380D02*
X180337500Y-103277380D01*
X180051785Y-104277380D02*
X180051785Y-103277380D01*
X180861309Y-103277380D02*
X181051785Y-103277380D01*
X181147023Y-103325000D01*
X181242261Y-103420238D01*
X181289880Y-103610714D01*
X181289880Y-103944047D01*
X181242261Y-104134523D01*
X181147023Y-104229761D01*
X181051785Y-104277380D01*
X180861309Y-104277380D01*
X180766071Y-104229761D01*
X180670833Y-104134523D01*
X180623214Y-103944047D01*
X180623214Y-103610714D01*
X180670833Y-103420238D01*
X180766071Y-103325000D01*
X180861309Y-103277380D01*
X181575595Y-103277380D02*
X182147023Y-103277380D01*
X181861309Y-104277380D02*
X181861309Y-103277380D01*
X182670833Y-103801190D02*
X182670833Y-104277380D01*
X182337500Y-103277380D02*
X182670833Y-103801190D01*
X183004166Y-103277380D01*
X183337500Y-104277380D02*
X183337500Y-103277380D01*
X183718452Y-103277380D01*
X183813690Y-103325000D01*
X183861309Y-103372619D01*
X183908928Y-103467857D01*
X183908928Y-103610714D01*
X183861309Y-103705952D01*
X183813690Y-103753571D01*
X183718452Y-103801190D01*
X183337500Y-103801190D01*
X184337500Y-103753571D02*
X184670833Y-103753571D01*
X184813690Y-104277380D02*
X184337500Y-104277380D01*
X184337500Y-103277380D01*
X184813690Y-103277380D01*
X186147023Y-103277380D02*
X186147023Y-103515476D01*
X185908928Y-103420238D02*
X186147023Y-103515476D01*
X186385119Y-103420238D01*
X186004166Y-103705952D02*
X186147023Y-103515476D01*
X186289880Y-103705952D01*
X186908928Y-103277380D02*
X186908928Y-103515476D01*
X186670833Y-103420238D02*
X186908928Y-103515476D01*
X187147023Y-103420238D01*
X186766071Y-103705952D02*
X186908928Y-103515476D01*
X187051785Y-103705952D01*
X174527976Y-104982619D02*
X174575595Y-104935000D01*
X174670833Y-104887380D01*
X174908928Y-104887380D01*
X175004166Y-104935000D01*
X175051785Y-104982619D01*
X175099404Y-105077857D01*
X175099404Y-105173095D01*
X175051785Y-105315952D01*
X174480357Y-105887380D01*
X175099404Y-105887380D01*
X175432738Y-104887380D02*
X176099404Y-104887380D01*
X175670833Y-105887380D01*
X176480357Y-105506428D02*
X177242261Y-105506428D01*
X178004166Y-104887380D02*
X178004166Y-105601666D01*
X177956547Y-105744523D01*
X177861309Y-105839761D01*
X177718452Y-105887380D01*
X177623214Y-105887380D01*
X178908928Y-105887380D02*
X178908928Y-105363571D01*
X178861309Y-105268333D01*
X178766071Y-105220714D01*
X178575595Y-105220714D01*
X178480357Y-105268333D01*
X178908928Y-105839761D02*
X178813690Y-105887380D01*
X178575595Y-105887380D01*
X178480357Y-105839761D01*
X178432738Y-105744523D01*
X178432738Y-105649285D01*
X178480357Y-105554047D01*
X178575595Y-105506428D01*
X178813690Y-105506428D01*
X178908928Y-105458809D01*
X179385119Y-105220714D02*
X179385119Y-105887380D01*
X179385119Y-105315952D02*
X179432738Y-105268333D01*
X179527976Y-105220714D01*
X179670833Y-105220714D01*
X179766071Y-105268333D01*
X179813690Y-105363571D01*
X179813690Y-105887380D01*
X180289880Y-105506428D02*
X181051785Y-105506428D01*
X181480357Y-104982619D02*
X181527976Y-104935000D01*
X181623214Y-104887380D01*
X181861309Y-104887380D01*
X181956547Y-104935000D01*
X182004166Y-104982619D01*
X182051785Y-105077857D01*
X182051785Y-105173095D01*
X182004166Y-105315952D01*
X181432738Y-105887380D01*
X182051785Y-105887380D01*
X182670833Y-104887380D02*
X182766071Y-104887380D01*
X182861309Y-104935000D01*
X182908928Y-104982619D01*
X182956547Y-105077857D01*
X183004166Y-105268333D01*
X183004166Y-105506428D01*
X182956547Y-105696904D01*
X182908928Y-105792142D01*
X182861309Y-105839761D01*
X182766071Y-105887380D01*
X182670833Y-105887380D01*
X182575595Y-105839761D01*
X182527976Y-105792142D01*
X182480357Y-105696904D01*
X182432738Y-105506428D01*
X182432738Y-105268333D01*
X182480357Y-105077857D01*
X182527976Y-104982619D01*
X182575595Y-104935000D01*
X182670833Y-104887380D01*
X183385119Y-104982619D02*
X183432738Y-104935000D01*
X183527976Y-104887380D01*
X183766071Y-104887380D01*
X183861309Y-104935000D01*
X183908928Y-104982619D01*
X183956547Y-105077857D01*
X183956547Y-105173095D01*
X183908928Y-105315952D01*
X183337500Y-105887380D01*
X183956547Y-105887380D01*
X184813690Y-105220714D02*
X184813690Y-105887380D01*
X184575595Y-104839761D02*
X184337500Y-105554047D01*
X184956547Y-105554047D01*
X187480357Y-104887380D02*
X187813690Y-105887380D01*
X188147023Y-104887380D01*
X188670833Y-104887380D02*
X188766071Y-104887380D01*
X188861309Y-104935000D01*
X188908928Y-104982619D01*
X188956547Y-105077857D01*
X189004166Y-105268333D01*
X189004166Y-105506428D01*
X188956547Y-105696904D01*
X188908928Y-105792142D01*
X188861309Y-105839761D01*
X188766071Y-105887380D01*
X188670833Y-105887380D01*
X188575595Y-105839761D01*
X188527976Y-105792142D01*
X188480357Y-105696904D01*
X188432738Y-105506428D01*
X188432738Y-105268333D01*
X188480357Y-105077857D01*
X188527976Y-104982619D01*
X188575595Y-104935000D01*
X188670833Y-104887380D01*
X189432738Y-105792142D02*
X189480357Y-105839761D01*
X189432738Y-105887380D01*
X189385119Y-105839761D01*
X189432738Y-105792142D01*
X189432738Y-105887380D01*
X190337500Y-104887380D02*
X190147023Y-104887380D01*
X190051785Y-104935000D01*
X190004166Y-104982619D01*
X189908928Y-105125476D01*
X189861309Y-105315952D01*
X189861309Y-105696904D01*
X189908928Y-105792142D01*
X189956547Y-105839761D01*
X190051785Y-105887380D01*
X190242261Y-105887380D01*
X190337500Y-105839761D01*
X190385119Y-105792142D01*
X190432738Y-105696904D01*
X190432738Y-105458809D01*
X190385119Y-105363571D01*
X190337500Y-105315952D01*
X190242261Y-105268333D01*
X190051785Y-105268333D01*
X189956547Y-105315952D01*
X189908928Y-105363571D01*
X189861309Y-105458809D01*
X190861309Y-105792142D02*
X190908928Y-105839761D01*
X190861309Y-105887380D01*
X190813690Y-105839761D01*
X190861309Y-105792142D01*
X190861309Y-105887380D01*
X191527976Y-104887380D02*
X191623214Y-104887380D01*
X191718452Y-104935000D01*
X191766071Y-104982619D01*
X191813690Y-105077857D01*
X191861309Y-105268333D01*
X191861309Y-105506428D01*
X191813690Y-105696904D01*
X191766071Y-105792142D01*
X191718452Y-105839761D01*
X191623214Y-105887380D01*
X191527976Y-105887380D01*
X191432738Y-105839761D01*
X191385119Y-105792142D01*
X191337500Y-105696904D01*
X191289880Y-105506428D01*
X191289880Y-105268333D01*
X191337500Y-105077857D01*
X191385119Y-104982619D01*
X191432738Y-104935000D01*
X191527976Y-104887380D01*
X174432738Y-106497380D02*
X175004166Y-106497380D01*
X174718452Y-107497380D02*
X174718452Y-106497380D01*
X175337500Y-107497380D02*
X175337500Y-106830714D01*
X175337500Y-107021190D02*
X175385119Y-106925952D01*
X175432738Y-106878333D01*
X175527976Y-106830714D01*
X175623214Y-106830714D01*
X176385119Y-106830714D02*
X176385119Y-107497380D01*
X175956547Y-106830714D02*
X175956547Y-107354523D01*
X176004166Y-107449761D01*
X176099404Y-107497380D01*
X176242261Y-107497380D01*
X176337500Y-107449761D01*
X176385119Y-107402142D01*
X177004166Y-107497380D02*
X176908928Y-107449761D01*
X176861309Y-107354523D01*
X176861309Y-106497380D01*
X177289880Y-106830714D02*
X177527976Y-107497380D01*
X177766071Y-106830714D02*
X177527976Y-107497380D01*
X177432738Y-107735476D01*
X177385119Y-107783095D01*
X177289880Y-107830714D01*
X178861309Y-107449761D02*
X179004166Y-107497380D01*
X179242261Y-107497380D01*
X179337500Y-107449761D01*
X179385119Y-107402142D01*
X179432738Y-107306904D01*
X179432738Y-107211666D01*
X179385119Y-107116428D01*
X179337500Y-107068809D01*
X179242261Y-107021190D01*
X179051785Y-106973571D01*
X178956547Y-106925952D01*
X178908928Y-106878333D01*
X178861309Y-106783095D01*
X178861309Y-106687857D01*
X178908928Y-106592619D01*
X178956547Y-106545000D01*
X179051785Y-106497380D01*
X179289880Y-106497380D01*
X179432738Y-106545000D01*
X179861309Y-107497380D02*
X179861309Y-106830714D01*
X179861309Y-106925952D02*
X179908928Y-106878333D01*
X180004166Y-106830714D01*
X180147023Y-106830714D01*
X180242261Y-106878333D01*
X180289880Y-106973571D01*
X180289880Y-107497380D01*
X180289880Y-106973571D02*
X180337500Y-106878333D01*
X180432738Y-106830714D01*
X180575595Y-106830714D01*
X180670833Y-106878333D01*
X180718452Y-106973571D01*
X180718452Y-107497380D01*
X181623214Y-107497380D02*
X181623214Y-106973571D01*
X181575595Y-106878333D01*
X181480357Y-106830714D01*
X181289880Y-106830714D01*
X181194642Y-106878333D01*
X181623214Y-107449761D02*
X181527976Y-107497380D01*
X181289880Y-107497380D01*
X181194642Y-107449761D01*
X181147023Y-107354523D01*
X181147023Y-107259285D01*
X181194642Y-107164047D01*
X181289880Y-107116428D01*
X181527976Y-107116428D01*
X181623214Y-107068809D01*
X182099404Y-107497380D02*
X182099404Y-106830714D01*
X182099404Y-107021190D02*
X182147023Y-106925952D01*
X182194642Y-106878333D01*
X182289880Y-106830714D01*
X182385119Y-106830714D01*
X182575595Y-106830714D02*
X182956547Y-106830714D01*
X182718452Y-106497380D02*
X182718452Y-107354523D01*
X182766071Y-107449761D01*
X182861309Y-107497380D01*
X182956547Y-107497380D01*
X183908928Y-106497380D02*
X184480357Y-106497380D01*
X184194642Y-107497380D02*
X184194642Y-106497380D01*
X184813690Y-107497380D02*
X184813690Y-106497380D01*
X185242261Y-107497380D02*
X185242261Y-106973571D01*
X185194642Y-106878333D01*
X185099404Y-106830714D01*
X184956547Y-106830714D01*
X184861309Y-106878333D01*
X184813690Y-106925952D01*
X186099404Y-107449761D02*
X186004166Y-107497380D01*
X185813690Y-107497380D01*
X185718452Y-107449761D01*
X185670833Y-107354523D01*
X185670833Y-106973571D01*
X185718452Y-106878333D01*
X185813690Y-106830714D01*
X186004166Y-106830714D01*
X186099404Y-106878333D01*
X186147023Y-106973571D01*
X186147023Y-107068809D01*
X185670833Y-107164047D01*
X186575595Y-107497380D02*
X186575595Y-106830714D01*
X186575595Y-107021190D02*
X186623214Y-106925952D01*
X186670833Y-106878333D01*
X186766071Y-106830714D01*
X186861309Y-106830714D01*
X187194642Y-107497380D02*
X187194642Y-106830714D01*
X187194642Y-106925952D02*
X187242261Y-106878333D01*
X187337500Y-106830714D01*
X187480357Y-106830714D01*
X187575595Y-106878333D01*
X187623214Y-106973571D01*
X187623214Y-107497380D01*
X187623214Y-106973571D02*
X187670833Y-106878333D01*
X187766071Y-106830714D01*
X187908928Y-106830714D01*
X188004166Y-106878333D01*
X188051785Y-106973571D01*
X188051785Y-107497380D01*
X188670833Y-107497380D02*
X188575595Y-107449761D01*
X188527976Y-107402142D01*
X188480357Y-107306904D01*
X188480357Y-107021190D01*
X188527976Y-106925952D01*
X188575595Y-106878333D01*
X188670833Y-106830714D01*
X188813690Y-106830714D01*
X188908928Y-106878333D01*
X188956547Y-106925952D01*
X189004166Y-107021190D01*
X189004166Y-107306904D01*
X188956547Y-107402142D01*
X188908928Y-107449761D01*
X188813690Y-107497380D01*
X188670833Y-107497380D01*
X189385119Y-107449761D02*
X189480357Y-107497380D01*
X189670833Y-107497380D01*
X189766071Y-107449761D01*
X189813690Y-107354523D01*
X189813690Y-107306904D01*
X189766071Y-107211666D01*
X189670833Y-107164047D01*
X189527976Y-107164047D01*
X189432738Y-107116428D01*
X189385119Y-107021190D01*
X189385119Y-106973571D01*
X189432738Y-106878333D01*
X189527976Y-106830714D01*
X189670833Y-106830714D01*
X189766071Y-106878333D01*
X190099404Y-106830714D02*
X190480357Y-106830714D01*
X190242261Y-106497380D02*
X190242261Y-107354523D01*
X190289880Y-107449761D01*
X190385119Y-107497380D01*
X190480357Y-107497380D01*
X191242261Y-107497380D02*
X191242261Y-106973571D01*
X191194642Y-106878333D01*
X191099404Y-106830714D01*
X190908928Y-106830714D01*
X190813690Y-106878333D01*
X191242261Y-107449761D02*
X191147023Y-107497380D01*
X190908928Y-107497380D01*
X190813690Y-107449761D01*
X190766071Y-107354523D01*
X190766071Y-107259285D01*
X190813690Y-107164047D01*
X190908928Y-107116428D01*
X191147023Y-107116428D01*
X191242261Y-107068809D01*
X191575595Y-106830714D02*
X191956547Y-106830714D01*
X191718452Y-106497380D02*
X191718452Y-107354523D01*
X191766071Y-107449761D01*
X191861309Y-107497380D01*
X191956547Y-107497380D01*
X174527976Y-109059761D02*
X174623214Y-109107380D01*
X174813690Y-109107380D01*
X174908928Y-109059761D01*
X174956547Y-108964523D01*
X174956547Y-108916904D01*
X174908928Y-108821666D01*
X174813690Y-108774047D01*
X174670833Y-108774047D01*
X174575595Y-108726428D01*
X174527976Y-108631190D01*
X174527976Y-108583571D01*
X174575595Y-108488333D01*
X174670833Y-108440714D01*
X174813690Y-108440714D01*
X174908928Y-108488333D01*
X175242261Y-108440714D02*
X175623214Y-108440714D01*
X175385119Y-108107380D02*
X175385119Y-108964523D01*
X175432738Y-109059761D01*
X175527976Y-109107380D01*
X175623214Y-109107380D01*
X176337500Y-109059761D02*
X176242261Y-109107380D01*
X176051785Y-109107380D01*
X175956547Y-109059761D01*
X175908928Y-108964523D01*
X175908928Y-108583571D01*
X175956547Y-108488333D01*
X176051785Y-108440714D01*
X176242261Y-108440714D01*
X176337500Y-108488333D01*
X176385119Y-108583571D01*
X176385119Y-108678809D01*
X175908928Y-108774047D01*
X176718452Y-108440714D02*
X176956547Y-109107380D01*
X177194642Y-108440714D01*
X177956547Y-109059761D02*
X177861309Y-109107380D01*
X177670833Y-109107380D01*
X177575595Y-109059761D01*
X177527976Y-108964523D01*
X177527976Y-108583571D01*
X177575595Y-108488333D01*
X177670833Y-108440714D01*
X177861309Y-108440714D01*
X177956547Y-108488333D01*
X178004166Y-108583571D01*
X178004166Y-108678809D01*
X177527976Y-108774047D01*
X179051785Y-108631190D02*
X179004166Y-108583571D01*
X178908928Y-108535952D01*
X178813690Y-108535952D01*
X178718452Y-108583571D01*
X178670833Y-108631190D01*
X178623214Y-108726428D01*
X178623214Y-108821666D01*
X178670833Y-108916904D01*
X178718452Y-108964523D01*
X178813690Y-109012142D01*
X178908928Y-109012142D01*
X179004166Y-108964523D01*
X179051785Y-108916904D01*
X179051785Y-108535952D02*
X179051785Y-108916904D01*
X179099404Y-108964523D01*
X179147023Y-108964523D01*
X179242261Y-108916904D01*
X179289880Y-108821666D01*
X179289880Y-108583571D01*
X179194642Y-108440714D01*
X179051785Y-108345476D01*
X178861309Y-108297857D01*
X178670833Y-108345476D01*
X178527976Y-108440714D01*
X178432738Y-108583571D01*
X178385119Y-108774047D01*
X178432738Y-108964523D01*
X178527976Y-109107380D01*
X178670833Y-109202619D01*
X178861309Y-109250238D01*
X179051785Y-109202619D01*
X179194642Y-109107380D01*
X179718452Y-109107380D02*
X179718452Y-108440714D01*
X179718452Y-108535952D02*
X179766071Y-108488333D01*
X179861309Y-108440714D01*
X180004166Y-108440714D01*
X180099404Y-108488333D01*
X180147023Y-108583571D01*
X180147023Y-109107380D01*
X180147023Y-108583571D02*
X180194642Y-108488333D01*
X180289880Y-108440714D01*
X180432738Y-108440714D01*
X180527976Y-108488333D01*
X180575595Y-108583571D01*
X180575595Y-109107380D01*
X181432738Y-109059761D02*
X181337500Y-109107380D01*
X181147023Y-109107380D01*
X181051785Y-109059761D01*
X181004166Y-108964523D01*
X181004166Y-108583571D01*
X181051785Y-108488333D01*
X181147023Y-108440714D01*
X181337500Y-108440714D01*
X181432738Y-108488333D01*
X181480357Y-108583571D01*
X181480357Y-108678809D01*
X181004166Y-108774047D01*
X181908928Y-109107380D02*
X181908928Y-108440714D01*
X181908928Y-108107380D02*
X181861309Y-108155000D01*
X181908928Y-108202619D01*
X181956547Y-108155000D01*
X181908928Y-108107380D01*
X181908928Y-108202619D01*
X182337500Y-109059761D02*
X182432738Y-109107380D01*
X182623214Y-109107380D01*
X182718452Y-109059761D01*
X182766071Y-108964523D01*
X182766071Y-108916904D01*
X182718452Y-108821666D01*
X182623214Y-108774047D01*
X182480357Y-108774047D01*
X182385119Y-108726428D01*
X182337500Y-108631190D01*
X182337500Y-108583571D01*
X182385119Y-108488333D01*
X182480357Y-108440714D01*
X182623214Y-108440714D01*
X182718452Y-108488333D01*
X183194642Y-108440714D02*
X183194642Y-109107380D01*
X183194642Y-108535952D02*
X183242261Y-108488333D01*
X183337500Y-108440714D01*
X183480357Y-108440714D01*
X183575595Y-108488333D01*
X183623214Y-108583571D01*
X183623214Y-109107380D01*
X184480357Y-109059761D02*
X184385119Y-109107380D01*
X184194642Y-109107380D01*
X184099404Y-109059761D01*
X184051785Y-108964523D01*
X184051785Y-108583571D01*
X184099404Y-108488333D01*
X184194642Y-108440714D01*
X184385119Y-108440714D01*
X184480357Y-108488333D01*
X184527976Y-108583571D01*
X184527976Y-108678809D01*
X184051785Y-108774047D01*
X184956547Y-109107380D02*
X184956547Y-108440714D01*
X184956547Y-108631190D02*
X185004166Y-108535952D01*
X185051785Y-108488333D01*
X185147023Y-108440714D01*
X185242261Y-108440714D01*
X185527976Y-109059761D02*
X185623214Y-109107380D01*
X185813690Y-109107380D01*
X185908928Y-109059761D01*
X185956547Y-108964523D01*
X185956547Y-108916904D01*
X185908928Y-108821666D01*
X185813690Y-108774047D01*
X185670833Y-108774047D01*
X185575595Y-108726428D01*
X185527976Y-108631190D01*
X185527976Y-108583571D01*
X185575595Y-108488333D01*
X185670833Y-108440714D01*
X185813690Y-108440714D01*
X185908928Y-108488333D01*
X186385119Y-109012142D02*
X186432738Y-109059761D01*
X186385119Y-109107380D01*
X186337500Y-109059761D01*
X186385119Y-109012142D01*
X186385119Y-109107380D01*
X186861309Y-108440714D02*
X186861309Y-109107380D01*
X186861309Y-108535952D02*
X186908928Y-108488333D01*
X187004166Y-108440714D01*
X187147023Y-108440714D01*
X187242261Y-108488333D01*
X187289880Y-108583571D01*
X187289880Y-109107380D01*
X188147023Y-109059761D02*
X188051785Y-109107380D01*
X187861309Y-109107380D01*
X187766071Y-109059761D01*
X187718452Y-108964523D01*
X187718452Y-108583571D01*
X187766071Y-108488333D01*
X187861309Y-108440714D01*
X188051785Y-108440714D01*
X188147023Y-108488333D01*
X188194642Y-108583571D01*
X188194642Y-108678809D01*
X187718452Y-108774047D01*
X188480357Y-108440714D02*
X188861309Y-108440714D01*
X188623214Y-108107380D02*
X188623214Y-108964523D01*
X188670833Y-109059761D01*
X188766071Y-109107380D01*
X188861309Y-109107380D01*
%TO.C,U2*%
X119048095Y-97782380D02*
X119048095Y-98591904D01*
X119095714Y-98687142D01*
X119143333Y-98734761D01*
X119238571Y-98782380D01*
X119429047Y-98782380D01*
X119524285Y-98734761D01*
X119571904Y-98687142D01*
X119619523Y-98591904D01*
X119619523Y-97782380D01*
X120048095Y-97877619D02*
X120095714Y-97830000D01*
X120190952Y-97782380D01*
X120429047Y-97782380D01*
X120524285Y-97830000D01*
X120571904Y-97877619D01*
X120619523Y-97972857D01*
X120619523Y-98068095D01*
X120571904Y-98210952D01*
X120000476Y-98782380D01*
X120619523Y-98782380D01*
D17*
%TO.C,K1*%
X126494523Y-84307380D02*
X125224523Y-84307380D01*
X126494523Y-83581666D02*
X125768809Y-84125952D01*
X125224523Y-83581666D02*
X125950238Y-84307380D01*
X126494523Y-82372142D02*
X126494523Y-83097857D01*
X126494523Y-82735000D02*
X125224523Y-82735000D01*
X125405952Y-82855952D01*
X125526904Y-82976904D01*
X125587380Y-83097857D01*
D10*
%TO.C,Q1*%
X148244761Y-127985119D02*
X148149523Y-127937500D01*
X148054285Y-127842261D01*
X147911428Y-127699404D01*
X147816190Y-127651785D01*
X147720952Y-127651785D01*
X147768571Y-127889880D02*
X147673333Y-127842261D01*
X147578095Y-127747023D01*
X147530476Y-127556547D01*
X147530476Y-127223214D01*
X147578095Y-127032738D01*
X147673333Y-126937500D01*
X147768571Y-126889880D01*
X147959047Y-126889880D01*
X148054285Y-126937500D01*
X148149523Y-127032738D01*
X148197142Y-127223214D01*
X148197142Y-127556547D01*
X148149523Y-127747023D01*
X148054285Y-127842261D01*
X147959047Y-127889880D01*
X147768571Y-127889880D01*
X149149523Y-127889880D02*
X148578095Y-127889880D01*
X148863809Y-127889880D02*
X148863809Y-126889880D01*
X148768571Y-127032738D01*
X148673333Y-127127976D01*
X148578095Y-127175595D01*
%TO.C,R8*%
X169772380Y-75036666D02*
X169296190Y-75370000D01*
X169772380Y-75608095D02*
X168772380Y-75608095D01*
X168772380Y-75227142D01*
X168820000Y-75131904D01*
X168867619Y-75084285D01*
X168962857Y-75036666D01*
X169105714Y-75036666D01*
X169200952Y-75084285D01*
X169248571Y-75131904D01*
X169296190Y-75227142D01*
X169296190Y-75608095D01*
X169200952Y-74465238D02*
X169153333Y-74560476D01*
X169105714Y-74608095D01*
X169010476Y-74655714D01*
X168962857Y-74655714D01*
X168867619Y-74608095D01*
X168820000Y-74560476D01*
X168772380Y-74465238D01*
X168772380Y-74274761D01*
X168820000Y-74179523D01*
X168867619Y-74131904D01*
X168962857Y-74084285D01*
X169010476Y-74084285D01*
X169105714Y-74131904D01*
X169153333Y-74179523D01*
X169200952Y-74274761D01*
X169200952Y-74465238D01*
X169248571Y-74560476D01*
X169296190Y-74608095D01*
X169391428Y-74655714D01*
X169581904Y-74655714D01*
X169677142Y-74608095D01*
X169724761Y-74560476D01*
X169772380Y-74465238D01*
X169772380Y-74274761D01*
X169724761Y-74179523D01*
X169677142Y-74131904D01*
X169581904Y-74084285D01*
X169391428Y-74084285D01*
X169296190Y-74131904D01*
X169248571Y-74179523D01*
X169200952Y-74274761D01*
%TO.C,R12*%
X111737142Y-135632380D02*
X111403809Y-135156190D01*
X111165714Y-135632380D02*
X111165714Y-134632380D01*
X111546666Y-134632380D01*
X111641904Y-134680000D01*
X111689523Y-134727619D01*
X111737142Y-134822857D01*
X111737142Y-134965714D01*
X111689523Y-135060952D01*
X111641904Y-135108571D01*
X111546666Y-135156190D01*
X111165714Y-135156190D01*
X112689523Y-135632380D02*
X112118095Y-135632380D01*
X112403809Y-135632380D02*
X112403809Y-134632380D01*
X112308571Y-134775238D01*
X112213333Y-134870476D01*
X112118095Y-134918095D01*
X113070476Y-134727619D02*
X113118095Y-134680000D01*
X113213333Y-134632380D01*
X113451428Y-134632380D01*
X113546666Y-134680000D01*
X113594285Y-134727619D01*
X113641904Y-134822857D01*
X113641904Y-134918095D01*
X113594285Y-135060952D01*
X113022857Y-135632380D01*
X113641904Y-135632380D01*
%TO.C,BR1*%
X113948571Y-91774761D02*
X113996190Y-91631904D01*
X114043809Y-91584285D01*
X114139047Y-91536666D01*
X114281904Y-91536666D01*
X114377142Y-91584285D01*
X114424761Y-91631904D01*
X114472380Y-91727142D01*
X114472380Y-92108095D01*
X113472380Y-92108095D01*
X113472380Y-91774761D01*
X113520000Y-91679523D01*
X113567619Y-91631904D01*
X113662857Y-91584285D01*
X113758095Y-91584285D01*
X113853333Y-91631904D01*
X113900952Y-91679523D01*
X113948571Y-91774761D01*
X113948571Y-92108095D01*
X114472380Y-90536666D02*
X113996190Y-90870000D01*
X114472380Y-91108095D02*
X113472380Y-91108095D01*
X113472380Y-90727142D01*
X113520000Y-90631904D01*
X113567619Y-90584285D01*
X113662857Y-90536666D01*
X113805714Y-90536666D01*
X113900952Y-90584285D01*
X113948571Y-90631904D01*
X113996190Y-90727142D01*
X113996190Y-91108095D01*
X114472380Y-89584285D02*
X114472380Y-90155714D01*
X114472380Y-89870000D02*
X113472380Y-89870000D01*
X113615238Y-89965238D01*
X113710476Y-90060476D01*
X113758095Y-90155714D01*
%TO.C,R15*%
X153012380Y-130330357D02*
X152536190Y-130663690D01*
X153012380Y-130901785D02*
X152012380Y-130901785D01*
X152012380Y-130520833D01*
X152060000Y-130425595D01*
X152107619Y-130377976D01*
X152202857Y-130330357D01*
X152345714Y-130330357D01*
X152440952Y-130377976D01*
X152488571Y-130425595D01*
X152536190Y-130520833D01*
X152536190Y-130901785D01*
X153012380Y-129377976D02*
X153012380Y-129949404D01*
X153012380Y-129663690D02*
X152012380Y-129663690D01*
X152155238Y-129758928D01*
X152250476Y-129854166D01*
X152298095Y-129949404D01*
X152012380Y-128473214D02*
X152012380Y-128949404D01*
X152488571Y-128997023D01*
X152440952Y-128949404D01*
X152393333Y-128854166D01*
X152393333Y-128616071D01*
X152440952Y-128520833D01*
X152488571Y-128473214D01*
X152583809Y-128425595D01*
X152821904Y-128425595D01*
X152917142Y-128473214D01*
X152964761Y-128520833D01*
X153012380Y-128616071D01*
X153012380Y-128854166D01*
X152964761Y-128949404D01*
X152917142Y-128997023D01*
%TO.C,J2*%
X132366666Y-69232380D02*
X132366666Y-69946666D01*
X132319047Y-70089523D01*
X132223809Y-70184761D01*
X132080952Y-70232380D01*
X131985714Y-70232380D01*
X132795238Y-69327619D02*
X132842857Y-69280000D01*
X132938095Y-69232380D01*
X133176190Y-69232380D01*
X133271428Y-69280000D01*
X133319047Y-69327619D01*
X133366666Y-69422857D01*
X133366666Y-69518095D01*
X133319047Y-69660952D01*
X132747619Y-70232380D01*
X133366666Y-70232380D01*
%TO.C,Q5*%
X152878571Y-97680714D02*
X152807142Y-97645000D01*
X152735714Y-97573571D01*
X152628571Y-97466428D01*
X152557142Y-97430714D01*
X152485714Y-97430714D01*
X152521428Y-97609285D02*
X152450000Y-97573571D01*
X152378571Y-97502142D01*
X152342857Y-97359285D01*
X152342857Y-97109285D01*
X152378571Y-96966428D01*
X152450000Y-96895000D01*
X152521428Y-96859285D01*
X152664285Y-96859285D01*
X152735714Y-96895000D01*
X152807142Y-96966428D01*
X152842857Y-97109285D01*
X152842857Y-97359285D01*
X152807142Y-97502142D01*
X152735714Y-97573571D01*
X152664285Y-97609285D01*
X152521428Y-97609285D01*
X153521428Y-96859285D02*
X153164285Y-96859285D01*
X153128571Y-97216428D01*
X153164285Y-97180714D01*
X153235714Y-97145000D01*
X153414285Y-97145000D01*
X153485714Y-97180714D01*
X153521428Y-97216428D01*
X153557142Y-97287857D01*
X153557142Y-97466428D01*
X153521428Y-97537857D01*
X153485714Y-97573571D01*
X153414285Y-97609285D01*
X153235714Y-97609285D01*
X153164285Y-97573571D01*
X153128571Y-97537857D01*
%TO.C,C9*%
X127257142Y-115756666D02*
X127304761Y-115804285D01*
X127352380Y-115947142D01*
X127352380Y-116042380D01*
X127304761Y-116185238D01*
X127209523Y-116280476D01*
X127114285Y-116328095D01*
X126923809Y-116375714D01*
X126780952Y-116375714D01*
X126590476Y-116328095D01*
X126495238Y-116280476D01*
X126400000Y-116185238D01*
X126352380Y-116042380D01*
X126352380Y-115947142D01*
X126400000Y-115804285D01*
X126447619Y-115756666D01*
X127352380Y-115280476D02*
X127352380Y-115090000D01*
X127304761Y-114994761D01*
X127257142Y-114947142D01*
X127114285Y-114851904D01*
X126923809Y-114804285D01*
X126542857Y-114804285D01*
X126447619Y-114851904D01*
X126400000Y-114899523D01*
X126352380Y-114994761D01*
X126352380Y-115185238D01*
X126400000Y-115280476D01*
X126447619Y-115328095D01*
X126542857Y-115375714D01*
X126780952Y-115375714D01*
X126876190Y-115328095D01*
X126923809Y-115280476D01*
X126971428Y-115185238D01*
X126971428Y-114994761D01*
X126923809Y-114899523D01*
X126876190Y-114851904D01*
X126780952Y-114804285D01*
%TO.C,R6*%
X166825380Y-134151666D02*
X166349190Y-134485000D01*
X166825380Y-134723095D02*
X165825380Y-134723095D01*
X165825380Y-134342142D01*
X165873000Y-134246904D01*
X165920619Y-134199285D01*
X166015857Y-134151666D01*
X166158714Y-134151666D01*
X166253952Y-134199285D01*
X166301571Y-134246904D01*
X166349190Y-134342142D01*
X166349190Y-134723095D01*
X165825380Y-133294523D02*
X165825380Y-133485000D01*
X165873000Y-133580238D01*
X165920619Y-133627857D01*
X166063476Y-133723095D01*
X166253952Y-133770714D01*
X166634904Y-133770714D01*
X166730142Y-133723095D01*
X166777761Y-133675476D01*
X166825380Y-133580238D01*
X166825380Y-133389761D01*
X166777761Y-133294523D01*
X166730142Y-133246904D01*
X166634904Y-133199285D01*
X166396809Y-133199285D01*
X166301571Y-133246904D01*
X166253952Y-133294523D01*
X166206333Y-133389761D01*
X166206333Y-133580238D01*
X166253952Y-133675476D01*
X166301571Y-133723095D01*
X166396809Y-133770714D01*
D17*
%TO.C,K4*%
X155589523Y-84307380D02*
X154319523Y-84307380D01*
X155589523Y-83581666D02*
X154863809Y-84125952D01*
X154319523Y-83581666D02*
X155045238Y-84307380D01*
X154742857Y-82493095D02*
X155589523Y-82493095D01*
X154259047Y-82795476D02*
X155166190Y-83097857D01*
X155166190Y-82311666D01*
D10*
%TO.C,C6*%
X168437142Y-134236666D02*
X168484761Y-134284285D01*
X168532380Y-134427142D01*
X168532380Y-134522380D01*
X168484761Y-134665238D01*
X168389523Y-134760476D01*
X168294285Y-134808095D01*
X168103809Y-134855714D01*
X167960952Y-134855714D01*
X167770476Y-134808095D01*
X167675238Y-134760476D01*
X167580000Y-134665238D01*
X167532380Y-134522380D01*
X167532380Y-134427142D01*
X167580000Y-134284285D01*
X167627619Y-134236666D01*
X167532380Y-133379523D02*
X167532380Y-133570000D01*
X167580000Y-133665238D01*
X167627619Y-133712857D01*
X167770476Y-133808095D01*
X167960952Y-133855714D01*
X168341904Y-133855714D01*
X168437142Y-133808095D01*
X168484761Y-133760476D01*
X168532380Y-133665238D01*
X168532380Y-133474761D01*
X168484761Y-133379523D01*
X168437142Y-133331904D01*
X168341904Y-133284285D01*
X168103809Y-133284285D01*
X168008571Y-133331904D01*
X167960952Y-133379523D01*
X167913333Y-133474761D01*
X167913333Y-133665238D01*
X167960952Y-133760476D01*
X168008571Y-133808095D01*
X168103809Y-133855714D01*
%TO.C,R7*%
X174012380Y-134251666D02*
X173536190Y-134585000D01*
X174012380Y-134823095D02*
X173012380Y-134823095D01*
X173012380Y-134442142D01*
X173060000Y-134346904D01*
X173107619Y-134299285D01*
X173202857Y-134251666D01*
X173345714Y-134251666D01*
X173440952Y-134299285D01*
X173488571Y-134346904D01*
X173536190Y-134442142D01*
X173536190Y-134823095D01*
X173012380Y-133918333D02*
X173012380Y-133251666D01*
X174012380Y-133680238D01*
%TO.C,J1*%
X169636666Y-138877380D02*
X169636666Y-139591666D01*
X169589047Y-139734523D01*
X169493809Y-139829761D01*
X169350952Y-139877380D01*
X169255714Y-139877380D01*
X170636666Y-139877380D02*
X170065238Y-139877380D01*
X170350952Y-139877380D02*
X170350952Y-138877380D01*
X170255714Y-139020238D01*
X170160476Y-139115476D01*
X170065238Y-139163095D01*
%TO.C,D11*%
X157269285Y-91409285D02*
X157269285Y-90659285D01*
X157447857Y-90659285D01*
X157555000Y-90695000D01*
X157626428Y-90766428D01*
X157662142Y-90837857D01*
X157697857Y-90980714D01*
X157697857Y-91087857D01*
X157662142Y-91230714D01*
X157626428Y-91302142D01*
X157555000Y-91373571D01*
X157447857Y-91409285D01*
X157269285Y-91409285D01*
X158412142Y-91409285D02*
X157983571Y-91409285D01*
X158197857Y-91409285D02*
X158197857Y-90659285D01*
X158126428Y-90766428D01*
X158055000Y-90837857D01*
X157983571Y-90873571D01*
X159126428Y-91409285D02*
X158697857Y-91409285D01*
X158912142Y-91409285D02*
X158912142Y-90659285D01*
X158840714Y-90766428D01*
X158769285Y-90837857D01*
X158697857Y-90873571D01*
D18*
%TO.C,R11*%
X198486190Y-145081428D02*
X198248095Y-145248095D01*
X198486190Y-145367142D02*
X197986190Y-145367142D01*
X197986190Y-145176666D01*
X198010000Y-145129047D01*
X198033809Y-145105238D01*
X198081428Y-145081428D01*
X198152857Y-145081428D01*
X198200476Y-145105238D01*
X198224285Y-145129047D01*
X198248095Y-145176666D01*
X198248095Y-145367142D01*
X198486190Y-144605238D02*
X198486190Y-144890952D01*
X198486190Y-144748095D02*
X197986190Y-144748095D01*
X198057619Y-144795714D01*
X198105238Y-144843333D01*
X198129047Y-144890952D01*
X198486190Y-144129047D02*
X198486190Y-144414761D01*
X198486190Y-144271904D02*
X197986190Y-144271904D01*
X198057619Y-144319523D01*
X198105238Y-144367142D01*
X198129047Y-144414761D01*
D10*
%TO.C,C7*%
X207013333Y-122207142D02*
X206965714Y-122254761D01*
X206822857Y-122302380D01*
X206727619Y-122302380D01*
X206584761Y-122254761D01*
X206489523Y-122159523D01*
X206441904Y-122064285D01*
X206394285Y-121873809D01*
X206394285Y-121730952D01*
X206441904Y-121540476D01*
X206489523Y-121445238D01*
X206584761Y-121350000D01*
X206727619Y-121302380D01*
X206822857Y-121302380D01*
X206965714Y-121350000D01*
X207013333Y-121397619D01*
X207346666Y-121302380D02*
X208013333Y-121302380D01*
X207584761Y-122302380D01*
%TO.C,C2*%
X171683333Y-78657142D02*
X171635714Y-78704761D01*
X171492857Y-78752380D01*
X171397619Y-78752380D01*
X171254761Y-78704761D01*
X171159523Y-78609523D01*
X171111904Y-78514285D01*
X171064285Y-78323809D01*
X171064285Y-78180952D01*
X171111904Y-77990476D01*
X171159523Y-77895238D01*
X171254761Y-77800000D01*
X171397619Y-77752380D01*
X171492857Y-77752380D01*
X171635714Y-77800000D01*
X171683333Y-77847619D01*
X172064285Y-77847619D02*
X172111904Y-77800000D01*
X172207142Y-77752380D01*
X172445238Y-77752380D01*
X172540476Y-77800000D01*
X172588095Y-77847619D01*
X172635714Y-77942857D01*
X172635714Y-78038095D01*
X172588095Y-78180952D01*
X172016666Y-78752380D01*
X172635714Y-78752380D01*
%TO.C,D1*%
X184442380Y-128788095D02*
X183442380Y-128788095D01*
X183442380Y-128550000D01*
X183490000Y-128407142D01*
X183585238Y-128311904D01*
X183680476Y-128264285D01*
X183870952Y-128216666D01*
X184013809Y-128216666D01*
X184204285Y-128264285D01*
X184299523Y-128311904D01*
X184394761Y-128407142D01*
X184442380Y-128550000D01*
X184442380Y-128788095D01*
X184442380Y-127264285D02*
X184442380Y-127835714D01*
X184442380Y-127550000D02*
X183442380Y-127550000D01*
X183585238Y-127645238D01*
X183680476Y-127740476D01*
X183728095Y-127835714D01*
%TO.C,U3*%
X136138095Y-121422380D02*
X136138095Y-122231904D01*
X136185714Y-122327142D01*
X136233333Y-122374761D01*
X136328571Y-122422380D01*
X136519047Y-122422380D01*
X136614285Y-122374761D01*
X136661904Y-122327142D01*
X136709523Y-122231904D01*
X136709523Y-121422380D01*
X137090476Y-121422380D02*
X137709523Y-121422380D01*
X137376190Y-121803333D01*
X137519047Y-121803333D01*
X137614285Y-121850952D01*
X137661904Y-121898571D01*
X137709523Y-121993809D01*
X137709523Y-122231904D01*
X137661904Y-122327142D01*
X137614285Y-122374761D01*
X137519047Y-122422380D01*
X137233333Y-122422380D01*
X137138095Y-122374761D01*
X137090476Y-122327142D01*
D17*
%TO.C,U4*%
X207782380Y-145084523D02*
X207782380Y-146112619D01*
X207842857Y-146233571D01*
X207903333Y-146294047D01*
X208024285Y-146354523D01*
X208266190Y-146354523D01*
X208387142Y-146294047D01*
X208447619Y-146233571D01*
X208508095Y-146112619D01*
X208508095Y-145084523D01*
X209657142Y-145507857D02*
X209657142Y-146354523D01*
X209354761Y-145024047D02*
X209052380Y-145931190D01*
X209838571Y-145931190D01*
D10*
%TO.C,BZ1*%
X147739047Y-134168571D02*
X147881904Y-134216190D01*
X147929523Y-134263809D01*
X147977142Y-134359047D01*
X147977142Y-134501904D01*
X147929523Y-134597142D01*
X147881904Y-134644761D01*
X147786666Y-134692380D01*
X147405714Y-134692380D01*
X147405714Y-133692380D01*
X147739047Y-133692380D01*
X147834285Y-133740000D01*
X147881904Y-133787619D01*
X147929523Y-133882857D01*
X147929523Y-133978095D01*
X147881904Y-134073333D01*
X147834285Y-134120952D01*
X147739047Y-134168571D01*
X147405714Y-134168571D01*
X148310476Y-133692380D02*
X148977142Y-133692380D01*
X148310476Y-134692380D01*
X148977142Y-134692380D01*
X149881904Y-134692380D02*
X149310476Y-134692380D01*
X149596190Y-134692380D02*
X149596190Y-133692380D01*
X149500952Y-133835238D01*
X149405714Y-133930476D01*
X149310476Y-133978095D01*
D17*
%TO.C,K5*%
X165269523Y-84307380D02*
X163999523Y-84307380D01*
X165269523Y-83581666D02*
X164543809Y-84125952D01*
X163999523Y-83581666D02*
X164725238Y-84307380D01*
X163999523Y-82432619D02*
X163999523Y-83037380D01*
X164604285Y-83097857D01*
X164543809Y-83037380D01*
X164483333Y-82916428D01*
X164483333Y-82614047D01*
X164543809Y-82493095D01*
X164604285Y-82432619D01*
X164725238Y-82372142D01*
X165027619Y-82372142D01*
X165148571Y-82432619D01*
X165209047Y-82493095D01*
X165269523Y-82614047D01*
X165269523Y-82916428D01*
X165209047Y-83037380D01*
X165148571Y-83097857D01*
D10*
%TO.C,C4*%
X171628333Y-76727142D02*
X171580714Y-76774761D01*
X171437857Y-76822380D01*
X171342619Y-76822380D01*
X171199761Y-76774761D01*
X171104523Y-76679523D01*
X171056904Y-76584285D01*
X171009285Y-76393809D01*
X171009285Y-76250952D01*
X171056904Y-76060476D01*
X171104523Y-75965238D01*
X171199761Y-75870000D01*
X171342619Y-75822380D01*
X171437857Y-75822380D01*
X171580714Y-75870000D01*
X171628333Y-75917619D01*
X172485476Y-76155714D02*
X172485476Y-76822380D01*
X172247380Y-75774761D02*
X172009285Y-76489047D01*
X172628333Y-76489047D01*
%TO.C,C12*%
X119857142Y-125537142D02*
X119809523Y-125584761D01*
X119666666Y-125632380D01*
X119571428Y-125632380D01*
X119428571Y-125584761D01*
X119333333Y-125489523D01*
X119285714Y-125394285D01*
X119238095Y-125203809D01*
X119238095Y-125060952D01*
X119285714Y-124870476D01*
X119333333Y-124775238D01*
X119428571Y-124680000D01*
X119571428Y-124632380D01*
X119666666Y-124632380D01*
X119809523Y-124680000D01*
X119857142Y-124727619D01*
X120809523Y-125632380D02*
X120238095Y-125632380D01*
X120523809Y-125632380D02*
X120523809Y-124632380D01*
X120428571Y-124775238D01*
X120333333Y-124870476D01*
X120238095Y-124918095D01*
X121190476Y-124727619D02*
X121238095Y-124680000D01*
X121333333Y-124632380D01*
X121571428Y-124632380D01*
X121666666Y-124680000D01*
X121714285Y-124727619D01*
X121761904Y-124822857D01*
X121761904Y-124918095D01*
X121714285Y-125060952D01*
X121142857Y-125632380D01*
X121761904Y-125632380D01*
%TO.C,R2*%
X199813333Y-137492380D02*
X199480000Y-137016190D01*
X199241904Y-137492380D02*
X199241904Y-136492380D01*
X199622857Y-136492380D01*
X199718095Y-136540000D01*
X199765714Y-136587619D01*
X199813333Y-136682857D01*
X199813333Y-136825714D01*
X199765714Y-136920952D01*
X199718095Y-136968571D01*
X199622857Y-137016190D01*
X199241904Y-137016190D01*
X200194285Y-136587619D02*
X200241904Y-136540000D01*
X200337142Y-136492380D01*
X200575238Y-136492380D01*
X200670476Y-136540000D01*
X200718095Y-136587619D01*
X200765714Y-136682857D01*
X200765714Y-136778095D01*
X200718095Y-136920952D01*
X200146666Y-137492380D01*
X200765714Y-137492380D01*
D18*
%TO.C,D5*%
X169566190Y-70559047D02*
X169066190Y-70559047D01*
X169066190Y-70440000D01*
X169090000Y-70368571D01*
X169137619Y-70320952D01*
X169185238Y-70297142D01*
X169280476Y-70273333D01*
X169351904Y-70273333D01*
X169447142Y-70297142D01*
X169494761Y-70320952D01*
X169542380Y-70368571D01*
X169566190Y-70440000D01*
X169566190Y-70559047D01*
X169066190Y-69820952D02*
X169066190Y-70059047D01*
X169304285Y-70082857D01*
X169280476Y-70059047D01*
X169256666Y-70011428D01*
X169256666Y-69892380D01*
X169280476Y-69844761D01*
X169304285Y-69820952D01*
X169351904Y-69797142D01*
X169470952Y-69797142D01*
X169518571Y-69820952D01*
X169542380Y-69844761D01*
X169566190Y-69892380D01*
X169566190Y-70011428D01*
X169542380Y-70059047D01*
X169518571Y-70082857D01*
D10*
%TO.C,R17*%
X138309285Y-97402142D02*
X137952142Y-97652142D01*
X138309285Y-97830714D02*
X137559285Y-97830714D01*
X137559285Y-97545000D01*
X137595000Y-97473571D01*
X137630714Y-97437857D01*
X137702142Y-97402142D01*
X137809285Y-97402142D01*
X137880714Y-97437857D01*
X137916428Y-97473571D01*
X137952142Y-97545000D01*
X137952142Y-97830714D01*
X138309285Y-96687857D02*
X138309285Y-97116428D01*
X138309285Y-96902142D02*
X137559285Y-96902142D01*
X137666428Y-96973571D01*
X137737857Y-97045000D01*
X137773571Y-97116428D01*
X137559285Y-96437857D02*
X137559285Y-95937857D01*
X138309285Y-96259285D01*
D18*
%TO.C,D7*%
X165146190Y-70529047D02*
X164646190Y-70529047D01*
X164646190Y-70410000D01*
X164670000Y-70338571D01*
X164717619Y-70290952D01*
X164765238Y-70267142D01*
X164860476Y-70243333D01*
X164931904Y-70243333D01*
X165027142Y-70267142D01*
X165074761Y-70290952D01*
X165122380Y-70338571D01*
X165146190Y-70410000D01*
X165146190Y-70529047D01*
X164646190Y-70076666D02*
X164646190Y-69743333D01*
X165146190Y-69957619D01*
D10*
%TO.C,C13*%
X129627142Y-131777142D02*
X129579523Y-131824761D01*
X129436666Y-131872380D01*
X129341428Y-131872380D01*
X129198571Y-131824761D01*
X129103333Y-131729523D01*
X129055714Y-131634285D01*
X129008095Y-131443809D01*
X129008095Y-131300952D01*
X129055714Y-131110476D01*
X129103333Y-131015238D01*
X129198571Y-130920000D01*
X129341428Y-130872380D01*
X129436666Y-130872380D01*
X129579523Y-130920000D01*
X129627142Y-130967619D01*
X130579523Y-131872380D02*
X130008095Y-131872380D01*
X130293809Y-131872380D02*
X130293809Y-130872380D01*
X130198571Y-131015238D01*
X130103333Y-131110476D01*
X130008095Y-131158095D01*
X130912857Y-130872380D02*
X131531904Y-130872380D01*
X131198571Y-131253333D01*
X131341428Y-131253333D01*
X131436666Y-131300952D01*
X131484285Y-131348571D01*
X131531904Y-131443809D01*
X131531904Y-131681904D01*
X131484285Y-131777142D01*
X131436666Y-131824761D01*
X131341428Y-131872380D01*
X131055714Y-131872380D01*
X130960476Y-131824761D01*
X130912857Y-131777142D01*
%TO.C,C1*%
X157837857Y-134265000D02*
X157873571Y-134300714D01*
X157909285Y-134407857D01*
X157909285Y-134479285D01*
X157873571Y-134586428D01*
X157802142Y-134657857D01*
X157730714Y-134693571D01*
X157587857Y-134729285D01*
X157480714Y-134729285D01*
X157337857Y-134693571D01*
X157266428Y-134657857D01*
X157195000Y-134586428D01*
X157159285Y-134479285D01*
X157159285Y-134407857D01*
X157195000Y-134300714D01*
X157230714Y-134265000D01*
X157909285Y-133550714D02*
X157909285Y-133979285D01*
X157909285Y-133765000D02*
X157159285Y-133765000D01*
X157266428Y-133836428D01*
X157337857Y-133907857D01*
X157373571Y-133979285D01*
%TO.C,L2*%
X143222380Y-121946666D02*
X143222380Y-122422857D01*
X142222380Y-122422857D01*
X142317619Y-121660952D02*
X142270000Y-121613333D01*
X142222380Y-121518095D01*
X142222380Y-121280000D01*
X142270000Y-121184761D01*
X142317619Y-121137142D01*
X142412857Y-121089523D01*
X142508095Y-121089523D01*
X142650952Y-121137142D01*
X143222380Y-121708571D01*
X143222380Y-121089523D01*
X144235714Y-122128095D02*
X144902380Y-122128095D01*
X143854761Y-122366190D02*
X144569047Y-122604285D01*
X144569047Y-121985238D01*
X143902380Y-121699523D02*
X143902380Y-121032857D01*
X144902380Y-121461428D01*
X143902380Y-120461428D02*
X143902380Y-120366190D01*
X143950000Y-120270952D01*
X143997619Y-120223333D01*
X144092857Y-120175714D01*
X144283333Y-120128095D01*
X144521428Y-120128095D01*
X144711904Y-120175714D01*
X144807142Y-120223333D01*
X144854761Y-120270952D01*
X144902380Y-120366190D01*
X144902380Y-120461428D01*
X144854761Y-120556666D01*
X144807142Y-120604285D01*
X144711904Y-120651904D01*
X144521428Y-120699523D01*
X144283333Y-120699523D01*
X144092857Y-120651904D01*
X143997619Y-120604285D01*
X143950000Y-120556666D01*
X143902380Y-120461428D01*
X144235714Y-119270952D02*
X144902380Y-119270952D01*
X144235714Y-119699523D02*
X144759523Y-119699523D01*
X144854761Y-119651904D01*
X144902380Y-119556666D01*
X144902380Y-119413809D01*
X144854761Y-119318571D01*
X144807142Y-119270952D01*
X144902380Y-118794761D02*
X143902380Y-118794761D01*
X144378571Y-118794761D02*
X144378571Y-118223333D01*
X144902380Y-118223333D02*
X143902380Y-118223333D01*
%TO.C,R9*%
X167582380Y-75116666D02*
X167106190Y-75450000D01*
X167582380Y-75688095D02*
X166582380Y-75688095D01*
X166582380Y-75307142D01*
X166630000Y-75211904D01*
X166677619Y-75164285D01*
X166772857Y-75116666D01*
X166915714Y-75116666D01*
X167010952Y-75164285D01*
X167058571Y-75211904D01*
X167106190Y-75307142D01*
X167106190Y-75688095D01*
X167582380Y-74640476D02*
X167582380Y-74450000D01*
X167534761Y-74354761D01*
X167487142Y-74307142D01*
X167344285Y-74211904D01*
X167153809Y-74164285D01*
X166772857Y-74164285D01*
X166677619Y-74211904D01*
X166630000Y-74259523D01*
X166582380Y-74354761D01*
X166582380Y-74545238D01*
X166630000Y-74640476D01*
X166677619Y-74688095D01*
X166772857Y-74735714D01*
X167010952Y-74735714D01*
X167106190Y-74688095D01*
X167153809Y-74640476D01*
X167201428Y-74545238D01*
X167201428Y-74354761D01*
X167153809Y-74259523D01*
X167106190Y-74211904D01*
X167010952Y-74164285D01*
%TO.C,Q4*%
X143168571Y-97570714D02*
X143097142Y-97535000D01*
X143025714Y-97463571D01*
X142918571Y-97356428D01*
X142847142Y-97320714D01*
X142775714Y-97320714D01*
X142811428Y-97499285D02*
X142740000Y-97463571D01*
X142668571Y-97392142D01*
X142632857Y-97249285D01*
X142632857Y-96999285D01*
X142668571Y-96856428D01*
X142740000Y-96785000D01*
X142811428Y-96749285D01*
X142954285Y-96749285D01*
X143025714Y-96785000D01*
X143097142Y-96856428D01*
X143132857Y-96999285D01*
X143132857Y-97249285D01*
X143097142Y-97392142D01*
X143025714Y-97463571D01*
X142954285Y-97499285D01*
X142811428Y-97499285D01*
X143775714Y-96999285D02*
X143775714Y-97499285D01*
X143597142Y-96713571D02*
X143418571Y-97249285D01*
X143882857Y-97249285D01*
%TO.C,D3*%
X172882380Y-130288095D02*
X171882380Y-130288095D01*
X171882380Y-130050000D01*
X171930000Y-129907142D01*
X172025238Y-129811904D01*
X172120476Y-129764285D01*
X172310952Y-129716666D01*
X172453809Y-129716666D01*
X172644285Y-129764285D01*
X172739523Y-129811904D01*
X172834761Y-129907142D01*
X172882380Y-130050000D01*
X172882380Y-130288095D01*
X171882380Y-129383333D02*
X171882380Y-128764285D01*
X172263333Y-129097619D01*
X172263333Y-128954761D01*
X172310952Y-128859523D01*
X172358571Y-128811904D01*
X172453809Y-128764285D01*
X172691904Y-128764285D01*
X172787142Y-128811904D01*
X172834761Y-128859523D01*
X172882380Y-128954761D01*
X172882380Y-129240476D01*
X172834761Y-129335714D01*
X172787142Y-129383333D01*
%TO.C,Q3*%
X133418571Y-97640714D02*
X133347142Y-97605000D01*
X133275714Y-97533571D01*
X133168571Y-97426428D01*
X133097142Y-97390714D01*
X133025714Y-97390714D01*
X133061428Y-97569285D02*
X132990000Y-97533571D01*
X132918571Y-97462142D01*
X132882857Y-97319285D01*
X132882857Y-97069285D01*
X132918571Y-96926428D01*
X132990000Y-96855000D01*
X133061428Y-96819285D01*
X133204285Y-96819285D01*
X133275714Y-96855000D01*
X133347142Y-96926428D01*
X133382857Y-97069285D01*
X133382857Y-97319285D01*
X133347142Y-97462142D01*
X133275714Y-97533571D01*
X133204285Y-97569285D01*
X133061428Y-97569285D01*
X133632857Y-96819285D02*
X134097142Y-96819285D01*
X133847142Y-97105000D01*
X133954285Y-97105000D01*
X134025714Y-97140714D01*
X134061428Y-97176428D01*
X134097142Y-97247857D01*
X134097142Y-97426428D01*
X134061428Y-97497857D01*
X134025714Y-97533571D01*
X133954285Y-97569285D01*
X133740000Y-97569285D01*
X133668571Y-97533571D01*
X133632857Y-97497857D01*
%TO.C,Q6*%
X162528571Y-97650714D02*
X162457142Y-97615000D01*
X162385714Y-97543571D01*
X162278571Y-97436428D01*
X162207142Y-97400714D01*
X162135714Y-97400714D01*
X162171428Y-97579285D02*
X162100000Y-97543571D01*
X162028571Y-97472142D01*
X161992857Y-97329285D01*
X161992857Y-97079285D01*
X162028571Y-96936428D01*
X162100000Y-96865000D01*
X162171428Y-96829285D01*
X162314285Y-96829285D01*
X162385714Y-96865000D01*
X162457142Y-96936428D01*
X162492857Y-97079285D01*
X162492857Y-97329285D01*
X162457142Y-97472142D01*
X162385714Y-97543571D01*
X162314285Y-97579285D01*
X162171428Y-97579285D01*
X163135714Y-96829285D02*
X162992857Y-96829285D01*
X162921428Y-96865000D01*
X162885714Y-96900714D01*
X162814285Y-97007857D01*
X162778571Y-97150714D01*
X162778571Y-97436428D01*
X162814285Y-97507857D01*
X162850000Y-97543571D01*
X162921428Y-97579285D01*
X163064285Y-97579285D01*
X163135714Y-97543571D01*
X163171428Y-97507857D01*
X163207142Y-97436428D01*
X163207142Y-97257857D01*
X163171428Y-97186428D01*
X163135714Y-97150714D01*
X163064285Y-97115000D01*
X162921428Y-97115000D01*
X162850000Y-97150714D01*
X162814285Y-97186428D01*
X162778571Y-97257857D01*
%TO.C,D9*%
X138126428Y-91379285D02*
X138126428Y-90629285D01*
X138305000Y-90629285D01*
X138412142Y-90665000D01*
X138483571Y-90736428D01*
X138519285Y-90807857D01*
X138555000Y-90950714D01*
X138555000Y-91057857D01*
X138519285Y-91200714D01*
X138483571Y-91272142D01*
X138412142Y-91343571D01*
X138305000Y-91379285D01*
X138126428Y-91379285D01*
X138912142Y-91379285D02*
X139055000Y-91379285D01*
X139126428Y-91343571D01*
X139162142Y-91307857D01*
X139233571Y-91200714D01*
X139269285Y-91057857D01*
X139269285Y-90772142D01*
X139233571Y-90700714D01*
X139197857Y-90665000D01*
X139126428Y-90629285D01*
X138983571Y-90629285D01*
X138912142Y-90665000D01*
X138876428Y-90700714D01*
X138840714Y-90772142D01*
X138840714Y-90950714D01*
X138876428Y-91022142D01*
X138912142Y-91057857D01*
X138983571Y-91093571D01*
X139126428Y-91093571D01*
X139197857Y-91057857D01*
X139233571Y-91022142D01*
X139269285Y-90950714D01*
%TO.C,R5*%
X194162380Y-128316666D02*
X193686190Y-128650000D01*
X194162380Y-128888095D02*
X193162380Y-128888095D01*
X193162380Y-128507142D01*
X193210000Y-128411904D01*
X193257619Y-128364285D01*
X193352857Y-128316666D01*
X193495714Y-128316666D01*
X193590952Y-128364285D01*
X193638571Y-128411904D01*
X193686190Y-128507142D01*
X193686190Y-128888095D01*
X193162380Y-127411904D02*
X193162380Y-127888095D01*
X193638571Y-127935714D01*
X193590952Y-127888095D01*
X193543333Y-127792857D01*
X193543333Y-127554761D01*
X193590952Y-127459523D01*
X193638571Y-127411904D01*
X193733809Y-127364285D01*
X193971904Y-127364285D01*
X194067142Y-127411904D01*
X194114761Y-127459523D01*
X194162380Y-127554761D01*
X194162380Y-127792857D01*
X194114761Y-127888095D01*
X194067142Y-127935714D01*
%TO.C,C3*%
X171628333Y-75117142D02*
X171580714Y-75164761D01*
X171437857Y-75212380D01*
X171342619Y-75212380D01*
X171199761Y-75164761D01*
X171104523Y-75069523D01*
X171056904Y-74974285D01*
X171009285Y-74783809D01*
X171009285Y-74640952D01*
X171056904Y-74450476D01*
X171104523Y-74355238D01*
X171199761Y-74260000D01*
X171342619Y-74212380D01*
X171437857Y-74212380D01*
X171580714Y-74260000D01*
X171628333Y-74307619D01*
X171961666Y-74212380D02*
X172580714Y-74212380D01*
X172247380Y-74593333D01*
X172390238Y-74593333D01*
X172485476Y-74640952D01*
X172533095Y-74688571D01*
X172580714Y-74783809D01*
X172580714Y-75021904D01*
X172533095Y-75117142D01*
X172485476Y-75164761D01*
X172390238Y-75212380D01*
X172104523Y-75212380D01*
X172009285Y-75164761D01*
X171961666Y-75117142D01*
%TO.C,L1*%
X189772380Y-128226666D02*
X189772380Y-128702857D01*
X188772380Y-128702857D01*
X189772380Y-127369523D02*
X189772380Y-127940952D01*
X189772380Y-127655238D02*
X188772380Y-127655238D01*
X188915238Y-127750476D01*
X189010476Y-127845714D01*
X189058095Y-127940952D01*
%TO.C,D2*%
X193801904Y-146272380D02*
X193801904Y-145272380D01*
X194040000Y-145272380D01*
X194182857Y-145320000D01*
X194278095Y-145415238D01*
X194325714Y-145510476D01*
X194373333Y-145700952D01*
X194373333Y-145843809D01*
X194325714Y-146034285D01*
X194278095Y-146129523D01*
X194182857Y-146224761D01*
X194040000Y-146272380D01*
X193801904Y-146272380D01*
X194754285Y-145367619D02*
X194801904Y-145320000D01*
X194897142Y-145272380D01*
X195135238Y-145272380D01*
X195230476Y-145320000D01*
X195278095Y-145367619D01*
X195325714Y-145462857D01*
X195325714Y-145558095D01*
X195278095Y-145700952D01*
X194706666Y-146272380D01*
X195325714Y-146272380D01*
D17*
%TO.C,K3*%
X145879523Y-84307380D02*
X144609523Y-84307380D01*
X145879523Y-83581666D02*
X145153809Y-84125952D01*
X144609523Y-83581666D02*
X145335238Y-84307380D01*
X144609523Y-83158333D02*
X144609523Y-82372142D01*
X145093333Y-82795476D01*
X145093333Y-82614047D01*
X145153809Y-82493095D01*
X145214285Y-82432619D01*
X145335238Y-82372142D01*
X145637619Y-82372142D01*
X145758571Y-82432619D01*
X145819047Y-82493095D01*
X145879523Y-82614047D01*
X145879523Y-82976904D01*
X145819047Y-83097857D01*
X145758571Y-83158333D01*
D10*
%TO.C,D4*%
X128491904Y-105062380D02*
X128491904Y-104062380D01*
X128730000Y-104062380D01*
X128872857Y-104110000D01*
X128968095Y-104205238D01*
X129015714Y-104300476D01*
X129063333Y-104490952D01*
X129063333Y-104633809D01*
X129015714Y-104824285D01*
X128968095Y-104919523D01*
X128872857Y-105014761D01*
X128730000Y-105062380D01*
X128491904Y-105062380D01*
X129920476Y-104395714D02*
X129920476Y-105062380D01*
X129682380Y-104014761D02*
X129444285Y-104729047D01*
X130063333Y-104729047D01*
%TO.C,D12*%
X167179285Y-91449285D02*
X167179285Y-90699285D01*
X167357857Y-90699285D01*
X167465000Y-90735000D01*
X167536428Y-90806428D01*
X167572142Y-90877857D01*
X167607857Y-91020714D01*
X167607857Y-91127857D01*
X167572142Y-91270714D01*
X167536428Y-91342142D01*
X167465000Y-91413571D01*
X167357857Y-91449285D01*
X167179285Y-91449285D01*
X168322142Y-91449285D02*
X167893571Y-91449285D01*
X168107857Y-91449285D02*
X168107857Y-90699285D01*
X168036428Y-90806428D01*
X167965000Y-90877857D01*
X167893571Y-90913571D01*
X168607857Y-90770714D02*
X168643571Y-90735000D01*
X168715000Y-90699285D01*
X168893571Y-90699285D01*
X168965000Y-90735000D01*
X169000714Y-90770714D01*
X169036428Y-90842142D01*
X169036428Y-90913571D01*
X169000714Y-91020714D01*
X168572142Y-91449285D01*
X169036428Y-91449285D01*
%TO.C,R10*%
X165332380Y-76082857D02*
X164856190Y-76416190D01*
X165332380Y-76654285D02*
X164332380Y-76654285D01*
X164332380Y-76273333D01*
X164380000Y-76178095D01*
X164427619Y-76130476D01*
X164522857Y-76082857D01*
X164665714Y-76082857D01*
X164760952Y-76130476D01*
X164808571Y-76178095D01*
X164856190Y-76273333D01*
X164856190Y-76654285D01*
X165332380Y-75130476D02*
X165332380Y-75701904D01*
X165332380Y-75416190D02*
X164332380Y-75416190D01*
X164475238Y-75511428D01*
X164570476Y-75606666D01*
X164618095Y-75701904D01*
X164332380Y-74511428D02*
X164332380Y-74416190D01*
X164380000Y-74320952D01*
X164427619Y-74273333D01*
X164522857Y-74225714D01*
X164713333Y-74178095D01*
X164951428Y-74178095D01*
X165141904Y-74225714D01*
X165237142Y-74273333D01*
X165284761Y-74320952D01*
X165332380Y-74416190D01*
X165332380Y-74511428D01*
X165284761Y-74606666D01*
X165237142Y-74654285D01*
X165141904Y-74701904D01*
X164951428Y-74749523D01*
X164713333Y-74749523D01*
X164522857Y-74701904D01*
X164427619Y-74654285D01*
X164380000Y-74606666D01*
X164332380Y-74511428D01*
%TO.C,R18*%
X147859285Y-97402142D02*
X147502142Y-97652142D01*
X147859285Y-97830714D02*
X147109285Y-97830714D01*
X147109285Y-97545000D01*
X147145000Y-97473571D01*
X147180714Y-97437857D01*
X147252142Y-97402142D01*
X147359285Y-97402142D01*
X147430714Y-97437857D01*
X147466428Y-97473571D01*
X147502142Y-97545000D01*
X147502142Y-97830714D01*
X147859285Y-96687857D02*
X147859285Y-97116428D01*
X147859285Y-96902142D02*
X147109285Y-96902142D01*
X147216428Y-96973571D01*
X147287857Y-97045000D01*
X147323571Y-97116428D01*
X147430714Y-96259285D02*
X147395000Y-96330714D01*
X147359285Y-96366428D01*
X147287857Y-96402142D01*
X147252142Y-96402142D01*
X147180714Y-96366428D01*
X147145000Y-96330714D01*
X147109285Y-96259285D01*
X147109285Y-96116428D01*
X147145000Y-96045000D01*
X147180714Y-96009285D01*
X147252142Y-95973571D01*
X147287857Y-95973571D01*
X147359285Y-96009285D01*
X147395000Y-96045000D01*
X147430714Y-96116428D01*
X147430714Y-96259285D01*
X147466428Y-96330714D01*
X147502142Y-96366428D01*
X147573571Y-96402142D01*
X147716428Y-96402142D01*
X147787857Y-96366428D01*
X147823571Y-96330714D01*
X147859285Y-96259285D01*
X147859285Y-96116428D01*
X147823571Y-96045000D01*
X147787857Y-96009285D01*
X147716428Y-95973571D01*
X147573571Y-95973571D01*
X147502142Y-96009285D01*
X147466428Y-96045000D01*
X147430714Y-96116428D01*
%TO.C,R3*%
X199793333Y-134222380D02*
X199460000Y-133746190D01*
X199221904Y-134222380D02*
X199221904Y-133222380D01*
X199602857Y-133222380D01*
X199698095Y-133270000D01*
X199745714Y-133317619D01*
X199793333Y-133412857D01*
X199793333Y-133555714D01*
X199745714Y-133650952D01*
X199698095Y-133698571D01*
X199602857Y-133746190D01*
X199221904Y-133746190D01*
X200126666Y-133222380D02*
X200745714Y-133222380D01*
X200412380Y-133603333D01*
X200555238Y-133603333D01*
X200650476Y-133650952D01*
X200698095Y-133698571D01*
X200745714Y-133793809D01*
X200745714Y-134031904D01*
X200698095Y-134127142D01*
X200650476Y-134174761D01*
X200555238Y-134222380D01*
X200269523Y-134222380D01*
X200174285Y-134174761D01*
X200126666Y-134127142D01*
%TO.C,C10*%
X143357142Y-110267142D02*
X143309523Y-110314761D01*
X143166666Y-110362380D01*
X143071428Y-110362380D01*
X142928571Y-110314761D01*
X142833333Y-110219523D01*
X142785714Y-110124285D01*
X142738095Y-109933809D01*
X142738095Y-109790952D01*
X142785714Y-109600476D01*
X142833333Y-109505238D01*
X142928571Y-109410000D01*
X143071428Y-109362380D01*
X143166666Y-109362380D01*
X143309523Y-109410000D01*
X143357142Y-109457619D01*
X144309523Y-110362380D02*
X143738095Y-110362380D01*
X144023809Y-110362380D02*
X144023809Y-109362380D01*
X143928571Y-109505238D01*
X143833333Y-109600476D01*
X143738095Y-109648095D01*
X144928571Y-109362380D02*
X145023809Y-109362380D01*
X145119047Y-109410000D01*
X145166666Y-109457619D01*
X145214285Y-109552857D01*
X145261904Y-109743333D01*
X145261904Y-109981428D01*
X145214285Y-110171904D01*
X145166666Y-110267142D01*
X145119047Y-110314761D01*
X145023809Y-110362380D01*
X144928571Y-110362380D01*
X144833333Y-110314761D01*
X144785714Y-110267142D01*
X144738095Y-110171904D01*
X144690476Y-109981428D01*
X144690476Y-109743333D01*
X144738095Y-109552857D01*
X144785714Y-109457619D01*
X144833333Y-109410000D01*
X144928571Y-109362380D01*
%TO.C,D8*%
X128366428Y-91379285D02*
X128366428Y-90629285D01*
X128545000Y-90629285D01*
X128652142Y-90665000D01*
X128723571Y-90736428D01*
X128759285Y-90807857D01*
X128795000Y-90950714D01*
X128795000Y-91057857D01*
X128759285Y-91200714D01*
X128723571Y-91272142D01*
X128652142Y-91343571D01*
X128545000Y-91379285D01*
X128366428Y-91379285D01*
X129223571Y-90950714D02*
X129152142Y-90915000D01*
X129116428Y-90879285D01*
X129080714Y-90807857D01*
X129080714Y-90772142D01*
X129116428Y-90700714D01*
X129152142Y-90665000D01*
X129223571Y-90629285D01*
X129366428Y-90629285D01*
X129437857Y-90665000D01*
X129473571Y-90700714D01*
X129509285Y-90772142D01*
X129509285Y-90807857D01*
X129473571Y-90879285D01*
X129437857Y-90915000D01*
X129366428Y-90950714D01*
X129223571Y-90950714D01*
X129152142Y-90986428D01*
X129116428Y-91022142D01*
X129080714Y-91093571D01*
X129080714Y-91236428D01*
X129116428Y-91307857D01*
X129152142Y-91343571D01*
X129223571Y-91379285D01*
X129366428Y-91379285D01*
X129437857Y-91343571D01*
X129473571Y-91307857D01*
X129509285Y-91236428D01*
X129509285Y-91093571D01*
X129473571Y-91022142D01*
X129437857Y-90986428D01*
X129366428Y-90950714D01*
%TO.C,R14*%
X117972380Y-136272857D02*
X117496190Y-136606190D01*
X117972380Y-136844285D02*
X116972380Y-136844285D01*
X116972380Y-136463333D01*
X117020000Y-136368095D01*
X117067619Y-136320476D01*
X117162857Y-136272857D01*
X117305714Y-136272857D01*
X117400952Y-136320476D01*
X117448571Y-136368095D01*
X117496190Y-136463333D01*
X117496190Y-136844285D01*
X117972380Y-135320476D02*
X117972380Y-135891904D01*
X117972380Y-135606190D02*
X116972380Y-135606190D01*
X117115238Y-135701428D01*
X117210476Y-135796666D01*
X117258095Y-135891904D01*
X117305714Y-134463333D02*
X117972380Y-134463333D01*
X116924761Y-134701428D02*
X117639047Y-134939523D01*
X117639047Y-134320476D01*
%TO.C,R19*%
X157569285Y-97352142D02*
X157212142Y-97602142D01*
X157569285Y-97780714D02*
X156819285Y-97780714D01*
X156819285Y-97495000D01*
X156855000Y-97423571D01*
X156890714Y-97387857D01*
X156962142Y-97352142D01*
X157069285Y-97352142D01*
X157140714Y-97387857D01*
X157176428Y-97423571D01*
X157212142Y-97495000D01*
X157212142Y-97780714D01*
X157569285Y-96637857D02*
X157569285Y-97066428D01*
X157569285Y-96852142D02*
X156819285Y-96852142D01*
X156926428Y-96923571D01*
X156997857Y-96995000D01*
X157033571Y-97066428D01*
X157569285Y-96280714D02*
X157569285Y-96137857D01*
X157533571Y-96066428D01*
X157497857Y-96030714D01*
X157390714Y-95959285D01*
X157247857Y-95923571D01*
X156962142Y-95923571D01*
X156890714Y-95959285D01*
X156855000Y-95995000D01*
X156819285Y-96066428D01*
X156819285Y-96209285D01*
X156855000Y-96280714D01*
X156890714Y-96316428D01*
X156962142Y-96352142D01*
X157140714Y-96352142D01*
X157212142Y-96316428D01*
X157247857Y-96280714D01*
X157283571Y-96209285D01*
X157283571Y-96066428D01*
X157247857Y-95995000D01*
X157212142Y-95959285D01*
X157140714Y-95923571D01*
%TO.C,R20*%
X167299285Y-97392142D02*
X166942142Y-97642142D01*
X167299285Y-97820714D02*
X166549285Y-97820714D01*
X166549285Y-97535000D01*
X166585000Y-97463571D01*
X166620714Y-97427857D01*
X166692142Y-97392142D01*
X166799285Y-97392142D01*
X166870714Y-97427857D01*
X166906428Y-97463571D01*
X166942142Y-97535000D01*
X166942142Y-97820714D01*
X166620714Y-97106428D02*
X166585000Y-97070714D01*
X166549285Y-96999285D01*
X166549285Y-96820714D01*
X166585000Y-96749285D01*
X166620714Y-96713571D01*
X166692142Y-96677857D01*
X166763571Y-96677857D01*
X166870714Y-96713571D01*
X167299285Y-97142142D01*
X167299285Y-96677857D01*
X166549285Y-96213571D02*
X166549285Y-96142142D01*
X166585000Y-96070714D01*
X166620714Y-96035000D01*
X166692142Y-95999285D01*
X166835000Y-95963571D01*
X167013571Y-95963571D01*
X167156428Y-95999285D01*
X167227857Y-96035000D01*
X167263571Y-96070714D01*
X167299285Y-96142142D01*
X167299285Y-96213571D01*
X167263571Y-96285000D01*
X167227857Y-96320714D01*
X167156428Y-96356428D01*
X167013571Y-96392142D01*
X166835000Y-96392142D01*
X166692142Y-96356428D01*
X166620714Y-96320714D01*
X166585000Y-96285000D01*
X166549285Y-96213571D01*
%TO.C,R16*%
X128259285Y-97492142D02*
X127902142Y-97742142D01*
X128259285Y-97920714D02*
X127509285Y-97920714D01*
X127509285Y-97635000D01*
X127545000Y-97563571D01*
X127580714Y-97527857D01*
X127652142Y-97492142D01*
X127759285Y-97492142D01*
X127830714Y-97527857D01*
X127866428Y-97563571D01*
X127902142Y-97635000D01*
X127902142Y-97920714D01*
X128259285Y-96777857D02*
X128259285Y-97206428D01*
X128259285Y-96992142D02*
X127509285Y-96992142D01*
X127616428Y-97063571D01*
X127687857Y-97135000D01*
X127723571Y-97206428D01*
X127509285Y-96135000D02*
X127509285Y-96277857D01*
X127545000Y-96349285D01*
X127580714Y-96385000D01*
X127687857Y-96456428D01*
X127830714Y-96492142D01*
X128116428Y-96492142D01*
X128187857Y-96456428D01*
X128223571Y-96420714D01*
X128259285Y-96349285D01*
X128259285Y-96206428D01*
X128223571Y-96135000D01*
X128187857Y-96099285D01*
X128116428Y-96063571D01*
X127937857Y-96063571D01*
X127866428Y-96099285D01*
X127830714Y-96135000D01*
X127795000Y-96206428D01*
X127795000Y-96349285D01*
X127830714Y-96420714D01*
X127866428Y-96456428D01*
X127937857Y-96492142D01*
%TO.C,U1*%
X173828095Y-72212380D02*
X173828095Y-73021904D01*
X173875714Y-73117142D01*
X173923333Y-73164761D01*
X174018571Y-73212380D01*
X174209047Y-73212380D01*
X174304285Y-73164761D01*
X174351904Y-73117142D01*
X174399523Y-73021904D01*
X174399523Y-72212380D01*
X175399523Y-73212380D02*
X174828095Y-73212380D01*
X175113809Y-73212380D02*
X175113809Y-72212380D01*
X175018571Y-72355238D01*
X174923333Y-72450476D01*
X174828095Y-72498095D01*
%TO.C,J6*%
X177112380Y-142343333D02*
X177826666Y-142343333D01*
X177969523Y-142390952D01*
X178064761Y-142486190D01*
X178112380Y-142629047D01*
X178112380Y-142724285D01*
X177112380Y-141438571D02*
X177112380Y-141629047D01*
X177160000Y-141724285D01*
X177207619Y-141771904D01*
X177350476Y-141867142D01*
X177540952Y-141914761D01*
X177921904Y-141914761D01*
X178017142Y-141867142D01*
X178064761Y-141819523D01*
X178112380Y-141724285D01*
X178112380Y-141533809D01*
X178064761Y-141438571D01*
X178017142Y-141390952D01*
X177921904Y-141343333D01*
X177683809Y-141343333D01*
X177588571Y-141390952D01*
X177540952Y-141438571D01*
X177493333Y-141533809D01*
X177493333Y-141724285D01*
X177540952Y-141819523D01*
X177588571Y-141867142D01*
X177683809Y-141914761D01*
D18*
%TO.C,D6*%
X167336190Y-70569047D02*
X166836190Y-70569047D01*
X166836190Y-70450000D01*
X166860000Y-70378571D01*
X166907619Y-70330952D01*
X166955238Y-70307142D01*
X167050476Y-70283333D01*
X167121904Y-70283333D01*
X167217142Y-70307142D01*
X167264761Y-70330952D01*
X167312380Y-70378571D01*
X167336190Y-70450000D01*
X167336190Y-70569047D01*
X166836190Y-69854761D02*
X166836190Y-69950000D01*
X166860000Y-69997619D01*
X166883809Y-70021428D01*
X166955238Y-70069047D01*
X167050476Y-70092857D01*
X167240952Y-70092857D01*
X167288571Y-70069047D01*
X167312380Y-70045238D01*
X167336190Y-69997619D01*
X167336190Y-69902380D01*
X167312380Y-69854761D01*
X167288571Y-69830952D01*
X167240952Y-69807142D01*
X167121904Y-69807142D01*
X167074285Y-69830952D01*
X167050476Y-69854761D01*
X167026666Y-69902380D01*
X167026666Y-69997619D01*
X167050476Y-70045238D01*
X167074285Y-70069047D01*
X167121904Y-70092857D01*
D10*
%TO.C,J5*%
X192506666Y-133722380D02*
X192506666Y-134436666D01*
X192459047Y-134579523D01*
X192363809Y-134674761D01*
X192220952Y-134722380D01*
X192125714Y-134722380D01*
X193459047Y-133722380D02*
X192982857Y-133722380D01*
X192935238Y-134198571D01*
X192982857Y-134150952D01*
X193078095Y-134103333D01*
X193316190Y-134103333D01*
X193411428Y-134150952D01*
X193459047Y-134198571D01*
X193506666Y-134293809D01*
X193506666Y-134531904D01*
X193459047Y-134627142D01*
X193411428Y-134674761D01*
X193316190Y-134722380D01*
X193078095Y-134722380D01*
X192982857Y-134674761D01*
X192935238Y-134627142D01*
%TO.C,C8*%
X133223333Y-114927142D02*
X133175714Y-114974761D01*
X133032857Y-115022380D01*
X132937619Y-115022380D01*
X132794761Y-114974761D01*
X132699523Y-114879523D01*
X132651904Y-114784285D01*
X132604285Y-114593809D01*
X132604285Y-114450952D01*
X132651904Y-114260476D01*
X132699523Y-114165238D01*
X132794761Y-114070000D01*
X132937619Y-114022380D01*
X133032857Y-114022380D01*
X133175714Y-114070000D01*
X133223333Y-114117619D01*
X133794761Y-114450952D02*
X133699523Y-114403333D01*
X133651904Y-114355714D01*
X133604285Y-114260476D01*
X133604285Y-114212857D01*
X133651904Y-114117619D01*
X133699523Y-114070000D01*
X133794761Y-114022380D01*
X133985238Y-114022380D01*
X134080476Y-114070000D01*
X134128095Y-114117619D01*
X134175714Y-114212857D01*
X134175714Y-114260476D01*
X134128095Y-114355714D01*
X134080476Y-114403333D01*
X133985238Y-114450952D01*
X133794761Y-114450952D01*
X133699523Y-114498571D01*
X133651904Y-114546190D01*
X133604285Y-114641428D01*
X133604285Y-114831904D01*
X133651904Y-114927142D01*
X133699523Y-114974761D01*
X133794761Y-115022380D01*
X133985238Y-115022380D01*
X134080476Y-114974761D01*
X134128095Y-114927142D01*
X134175714Y-114831904D01*
X134175714Y-114641428D01*
X134128095Y-114546190D01*
X134080476Y-114498571D01*
X133985238Y-114450952D01*
D17*
%TO.C,K2*%
X136179523Y-84307380D02*
X134909523Y-84307380D01*
X136179523Y-83581666D02*
X135453809Y-84125952D01*
X134909523Y-83581666D02*
X135635238Y-84307380D01*
X135030476Y-83097857D02*
X134970000Y-83037380D01*
X134909523Y-82916428D01*
X134909523Y-82614047D01*
X134970000Y-82493095D01*
X135030476Y-82432619D01*
X135151428Y-82372142D01*
X135272380Y-82372142D01*
X135453809Y-82432619D01*
X136179523Y-83158333D01*
X136179523Y-82372142D01*
D10*
%TO.C,C5*%
X172237142Y-134246666D02*
X172284761Y-134294285D01*
X172332380Y-134437142D01*
X172332380Y-134532380D01*
X172284761Y-134675238D01*
X172189523Y-134770476D01*
X172094285Y-134818095D01*
X171903809Y-134865714D01*
X171760952Y-134865714D01*
X171570476Y-134818095D01*
X171475238Y-134770476D01*
X171380000Y-134675238D01*
X171332380Y-134532380D01*
X171332380Y-134437142D01*
X171380000Y-134294285D01*
X171427619Y-134246666D01*
X171332380Y-133341904D02*
X171332380Y-133818095D01*
X171808571Y-133865714D01*
X171760952Y-133818095D01*
X171713333Y-133722857D01*
X171713333Y-133484761D01*
X171760952Y-133389523D01*
X171808571Y-133341904D01*
X171903809Y-133294285D01*
X172141904Y-133294285D01*
X172237142Y-133341904D01*
X172284761Y-133389523D01*
X172332380Y-133484761D01*
X172332380Y-133722857D01*
X172284761Y-133818095D01*
X172237142Y-133865714D01*
%TO.C,C11*%
X158467142Y-110287142D02*
X158419523Y-110334761D01*
X158276666Y-110382380D01*
X158181428Y-110382380D01*
X158038571Y-110334761D01*
X157943333Y-110239523D01*
X157895714Y-110144285D01*
X157848095Y-109953809D01*
X157848095Y-109810952D01*
X157895714Y-109620476D01*
X157943333Y-109525238D01*
X158038571Y-109430000D01*
X158181428Y-109382380D01*
X158276666Y-109382380D01*
X158419523Y-109430000D01*
X158467142Y-109477619D01*
X159419523Y-110382380D02*
X158848095Y-110382380D01*
X159133809Y-110382380D02*
X159133809Y-109382380D01*
X159038571Y-109525238D01*
X158943333Y-109620476D01*
X158848095Y-109668095D01*
X160371904Y-110382380D02*
X159800476Y-110382380D01*
X160086190Y-110382380D02*
X160086190Y-109382380D01*
X159990952Y-109525238D01*
X159895714Y-109620476D01*
X159800476Y-109668095D01*
%TO.C,SW1*%
X164132761Y-144335333D02*
X164180380Y-144192476D01*
X164180380Y-143954380D01*
X164132761Y-143859142D01*
X164085142Y-143811523D01*
X163989904Y-143763904D01*
X163894666Y-143763904D01*
X163799428Y-143811523D01*
X163751809Y-143859142D01*
X163704190Y-143954380D01*
X163656571Y-144144857D01*
X163608952Y-144240095D01*
X163561333Y-144287714D01*
X163466095Y-144335333D01*
X163370857Y-144335333D01*
X163275619Y-144287714D01*
X163228000Y-144240095D01*
X163180380Y-144144857D01*
X163180380Y-143906761D01*
X163228000Y-143763904D01*
X163180380Y-143430571D02*
X164180380Y-143192476D01*
X163466095Y-143002000D01*
X164180380Y-142811523D01*
X163180380Y-142573428D01*
X164180380Y-141668666D02*
X164180380Y-142240095D01*
X164180380Y-141954380D02*
X163180380Y-141954380D01*
X163323238Y-142049619D01*
X163418476Y-142144857D01*
X163466095Y-142240095D01*
%TO.C,J7*%
X201171666Y-123342380D02*
X201171666Y-124056666D01*
X201124047Y-124199523D01*
X201028809Y-124294761D01*
X200885952Y-124342380D01*
X200790714Y-124342380D01*
X201552619Y-123342380D02*
X202219285Y-123342380D01*
X201790714Y-124342380D01*
%TO.C,R1*%
X160749285Y-134255000D02*
X160392142Y-134505000D01*
X160749285Y-134683571D02*
X159999285Y-134683571D01*
X159999285Y-134397857D01*
X160035000Y-134326428D01*
X160070714Y-134290714D01*
X160142142Y-134255000D01*
X160249285Y-134255000D01*
X160320714Y-134290714D01*
X160356428Y-134326428D01*
X160392142Y-134397857D01*
X160392142Y-134683571D01*
X160749285Y-133540714D02*
X160749285Y-133969285D01*
X160749285Y-133755000D02*
X159999285Y-133755000D01*
X160106428Y-133826428D01*
X160177857Y-133897857D01*
X160213571Y-133969285D01*
%TO.C,Q2*%
X123778571Y-97620714D02*
X123707142Y-97585000D01*
X123635714Y-97513571D01*
X123528571Y-97406428D01*
X123457142Y-97370714D01*
X123385714Y-97370714D01*
X123421428Y-97549285D02*
X123350000Y-97513571D01*
X123278571Y-97442142D01*
X123242857Y-97299285D01*
X123242857Y-97049285D01*
X123278571Y-96906428D01*
X123350000Y-96835000D01*
X123421428Y-96799285D01*
X123564285Y-96799285D01*
X123635714Y-96835000D01*
X123707142Y-96906428D01*
X123742857Y-97049285D01*
X123742857Y-97299285D01*
X123707142Y-97442142D01*
X123635714Y-97513571D01*
X123564285Y-97549285D01*
X123421428Y-97549285D01*
X124028571Y-96870714D02*
X124064285Y-96835000D01*
X124135714Y-96799285D01*
X124314285Y-96799285D01*
X124385714Y-96835000D01*
X124421428Y-96870714D01*
X124457142Y-96942142D01*
X124457142Y-97013571D01*
X124421428Y-97120714D01*
X123992857Y-97549285D01*
X124457142Y-97549285D01*
D18*
%TO.C,C15*%
X198318571Y-141101428D02*
X198342380Y-141125238D01*
X198366190Y-141196666D01*
X198366190Y-141244285D01*
X198342380Y-141315714D01*
X198294761Y-141363333D01*
X198247142Y-141387142D01*
X198151904Y-141410952D01*
X198080476Y-141410952D01*
X197985238Y-141387142D01*
X197937619Y-141363333D01*
X197890000Y-141315714D01*
X197866190Y-141244285D01*
X197866190Y-141196666D01*
X197890000Y-141125238D01*
X197913809Y-141101428D01*
X198366190Y-140625238D02*
X198366190Y-140910952D01*
X198366190Y-140768095D02*
X197866190Y-140768095D01*
X197937619Y-140815714D01*
X197985238Y-140863333D01*
X198009047Y-140910952D01*
X197866190Y-140172857D02*
X197866190Y-140410952D01*
X198104285Y-140434761D01*
X198080476Y-140410952D01*
X198056666Y-140363333D01*
X198056666Y-140244285D01*
X198080476Y-140196666D01*
X198104285Y-140172857D01*
X198151904Y-140149047D01*
X198270952Y-140149047D01*
X198318571Y-140172857D01*
X198342380Y-140196666D01*
X198366190Y-140244285D01*
X198366190Y-140363333D01*
X198342380Y-140410952D01*
X198318571Y-140434761D01*
D10*
%TO.C,R4*%
X171633333Y-80362380D02*
X171300000Y-79886190D01*
X171061904Y-80362380D02*
X171061904Y-79362380D01*
X171442857Y-79362380D01*
X171538095Y-79410000D01*
X171585714Y-79457619D01*
X171633333Y-79552857D01*
X171633333Y-79695714D01*
X171585714Y-79790952D01*
X171538095Y-79838571D01*
X171442857Y-79886190D01*
X171061904Y-79886190D01*
X172490476Y-79695714D02*
X172490476Y-80362380D01*
X172252380Y-79314761D02*
X172014285Y-80029047D01*
X172633333Y-80029047D01*
%TO.C,J3*%
X161606666Y-69012380D02*
X161606666Y-69726666D01*
X161559047Y-69869523D01*
X161463809Y-69964761D01*
X161320952Y-70012380D01*
X161225714Y-70012380D01*
X161987619Y-69012380D02*
X162606666Y-69012380D01*
X162273333Y-69393333D01*
X162416190Y-69393333D01*
X162511428Y-69440952D01*
X162559047Y-69488571D01*
X162606666Y-69583809D01*
X162606666Y-69821904D01*
X162559047Y-69917142D01*
X162511428Y-69964761D01*
X162416190Y-70012380D01*
X162130476Y-70012380D01*
X162035238Y-69964761D01*
X161987619Y-69917142D01*
%TO.C,R13*%
X144682380Y-130240357D02*
X144206190Y-130573690D01*
X144682380Y-130811785D02*
X143682380Y-130811785D01*
X143682380Y-130430833D01*
X143730000Y-130335595D01*
X143777619Y-130287976D01*
X143872857Y-130240357D01*
X144015714Y-130240357D01*
X144110952Y-130287976D01*
X144158571Y-130335595D01*
X144206190Y-130430833D01*
X144206190Y-130811785D01*
X144682380Y-129287976D02*
X144682380Y-129859404D01*
X144682380Y-129573690D02*
X143682380Y-129573690D01*
X143825238Y-129668928D01*
X143920476Y-129764166D01*
X143968095Y-129859404D01*
X143682380Y-128954642D02*
X143682380Y-128335595D01*
X144063333Y-128668928D01*
X144063333Y-128526071D01*
X144110952Y-128430833D01*
X144158571Y-128383214D01*
X144253809Y-128335595D01*
X144491904Y-128335595D01*
X144587142Y-128383214D01*
X144634761Y-128430833D01*
X144682380Y-128526071D01*
X144682380Y-128811785D01*
X144634761Y-128907023D01*
X144587142Y-128954642D01*
%TO.C,D10*%
X147399285Y-91369285D02*
X147399285Y-90619285D01*
X147577857Y-90619285D01*
X147685000Y-90655000D01*
X147756428Y-90726428D01*
X147792142Y-90797857D01*
X147827857Y-90940714D01*
X147827857Y-91047857D01*
X147792142Y-91190714D01*
X147756428Y-91262142D01*
X147685000Y-91333571D01*
X147577857Y-91369285D01*
X147399285Y-91369285D01*
X148542142Y-91369285D02*
X148113571Y-91369285D01*
X148327857Y-91369285D02*
X148327857Y-90619285D01*
X148256428Y-90726428D01*
X148185000Y-90797857D01*
X148113571Y-90833571D01*
X149006428Y-90619285D02*
X149077857Y-90619285D01*
X149149285Y-90655000D01*
X149185000Y-90690714D01*
X149220714Y-90762142D01*
X149256428Y-90905000D01*
X149256428Y-91083571D01*
X149220714Y-91226428D01*
X149185000Y-91297857D01*
X149149285Y-91333571D01*
X149077857Y-91369285D01*
X149006428Y-91369285D01*
X148935000Y-91333571D01*
X148899285Y-91297857D01*
X148863571Y-91226428D01*
X148827857Y-91083571D01*
X148827857Y-90905000D01*
X148863571Y-90762142D01*
X148899285Y-90690714D01*
X148935000Y-90655000D01*
X149006428Y-90619285D01*
D18*
%TO.C,C14*%
X198348571Y-143071428D02*
X198372380Y-143095238D01*
X198396190Y-143166666D01*
X198396190Y-143214285D01*
X198372380Y-143285714D01*
X198324761Y-143333333D01*
X198277142Y-143357142D01*
X198181904Y-143380952D01*
X198110476Y-143380952D01*
X198015238Y-143357142D01*
X197967619Y-143333333D01*
X197920000Y-143285714D01*
X197896190Y-143214285D01*
X197896190Y-143166666D01*
X197920000Y-143095238D01*
X197943809Y-143071428D01*
X198396190Y-142595238D02*
X198396190Y-142880952D01*
X198396190Y-142738095D02*
X197896190Y-142738095D01*
X197967619Y-142785714D01*
X198015238Y-142833333D01*
X198039047Y-142880952D01*
X198062857Y-142166666D02*
X198396190Y-142166666D01*
X197872380Y-142285714D02*
X198229523Y-142404761D01*
X198229523Y-142095238D01*
D10*
%TO.C,J4*%
X205036666Y-79262380D02*
X205036666Y-79976666D01*
X204989047Y-80119523D01*
X204893809Y-80214761D01*
X204750952Y-80262380D01*
X204655714Y-80262380D01*
X205941428Y-79595714D02*
X205941428Y-80262380D01*
X205703333Y-79214761D02*
X205465238Y-79929047D01*
X206084285Y-79929047D01*
D19*
%TO.C,U2*%
X114575000Y-108720000D02*
X114575000Y-110220000D01*
X115525000Y-110220000D02*
X115525000Y-115345000D01*
X114575000Y-110220000D02*
X115525000Y-110220000D01*
X124975000Y-108720000D02*
X124975000Y-110220000D01*
X124975000Y-110220000D02*
X124025000Y-110220000D01*
X124025000Y-110220000D02*
X124025000Y-111320000D01*
D20*
%TO.C,K1*%
X122225000Y-88670000D02*
X122225000Y-88670000D01*
X128725000Y-78070000D02*
X128725000Y-78420000D01*
X122225000Y-88670000D02*
X122225000Y-88670000D01*
X122225000Y-78070000D02*
X122225000Y-78070000D01*
X128725000Y-84920000D02*
X128725000Y-84920000D01*
X122225000Y-88420000D02*
X122225000Y-88670000D01*
X122225000Y-78070000D02*
X122225000Y-78070000D01*
X128725000Y-78420000D02*
X128725000Y-78420000D01*
X122225000Y-84920000D02*
X122225000Y-84920000D01*
X122225000Y-78420000D02*
X122225000Y-78070000D01*
X128725000Y-78420000D02*
X128725000Y-78070000D01*
X122225000Y-88670000D02*
X122225000Y-88420000D01*
X122225000Y-88670000D02*
X128725000Y-88670000D01*
X122225000Y-86170000D02*
X122225000Y-84920000D01*
X122225000Y-78070000D02*
X122225000Y-78420000D01*
X128725000Y-86170000D02*
X128725000Y-84920000D01*
X128725000Y-78070000D02*
X128725000Y-78070000D01*
X128725000Y-88670000D02*
X122225000Y-88670000D01*
X128725000Y-86170000D02*
X128725000Y-86170000D01*
X128725000Y-88670000D02*
X128725000Y-88420000D01*
X122225000Y-84920000D02*
X122225000Y-86170000D01*
X128725000Y-88420000D02*
X128725000Y-88670000D01*
X122225000Y-86170000D02*
X122225000Y-86170000D01*
X122225000Y-78420000D02*
X122225000Y-78420000D01*
X128725000Y-78070000D02*
X128725000Y-78070000D01*
X122225000Y-78070000D02*
X128725000Y-78070000D01*
X128725000Y-88670000D02*
X128725000Y-88670000D01*
X128725000Y-88420000D02*
X128725000Y-88420000D01*
D13*
X129615000Y-87170000D02*
X129615000Y-87170000D01*
D20*
X128725000Y-84920000D02*
X128725000Y-86170000D01*
X128725000Y-78070000D02*
X122225000Y-78070000D01*
X128725000Y-88670000D02*
X128725000Y-88670000D01*
D13*
X129515000Y-87170000D02*
X129515000Y-87170000D01*
X129615000Y-87170000D02*
X129615000Y-87170000D01*
D20*
X122225000Y-88420000D02*
X122225000Y-88420000D01*
D13*
X129515000Y-87170000D02*
G75*
G03*
X129615000Y-87170000I50000J0D01*
G01*
X129615000Y-87170000D02*
G75*
G03*
X129515000Y-87170000I-50000J0D01*
G01*
X129615000Y-87170000D02*
G75*
G03*
X129515000Y-87170000I-50000J0D01*
G01*
D19*
%TO.C,Q1*%
X149930000Y-130097500D02*
X149930000Y-130747500D01*
X149930000Y-130097500D02*
X149930000Y-128422500D01*
X146810000Y-130097500D02*
X146810000Y-130747500D01*
X146810000Y-130097500D02*
X146810000Y-129447500D01*
%TO.C,R8*%
X169862500Y-72182742D02*
X169862500Y-72657258D01*
X168817500Y-72182742D02*
X168817500Y-72657258D01*
%TO.C,R12*%
X115590000Y-137160000D02*
X115590000Y-140210000D01*
X111290000Y-137160000D02*
X111290000Y-140210000D01*
X115605526Y-137181766D02*
G75*
G03*
X111290000Y-137160000I-2165526J-1528234D01*
G01*
X111321751Y-140254513D02*
G75*
G03*
X115590000Y-140210000I2118249J1544513D01*
G01*
%TO.C,BR1*%
X119840000Y-93170000D02*
X120040000Y-93170000D01*
X114840000Y-88570000D02*
X115040000Y-88570000D01*
X120040000Y-93170000D02*
X120040000Y-87370000D01*
X114840000Y-93170000D02*
X114840000Y-88570000D01*
X118940000Y-93170000D02*
X115940000Y-93170000D01*
X115040000Y-93170000D02*
X114840000Y-93170000D01*
X115940000Y-88570000D02*
X118940000Y-88570000D01*
%TO.C,R15*%
X150537500Y-129460242D02*
X150537500Y-129934758D01*
X151582500Y-129460242D02*
X151582500Y-129934758D01*
%TO.C,TP2*%
X211590000Y-136490000D02*
G75*
G03*
X211590000Y-136490000I-1200000J0D01*
G01*
%TO.C,J2*%
X131370000Y-69930000D02*
X131370000Y-72530000D01*
X128710000Y-69930000D02*
X128710000Y-72530000D01*
X128710000Y-69930000D02*
X131370000Y-69930000D01*
X128710000Y-67330000D02*
X130040000Y-67330000D01*
X128710000Y-72530000D02*
X131370000Y-72530000D01*
X128710000Y-68660000D02*
X128710000Y-67330000D01*
%TO.C,Q5*%
X154480000Y-94620000D02*
X154480000Y-93970000D01*
X154480000Y-94620000D02*
X154480000Y-95270000D01*
X151360000Y-94620000D02*
X151360000Y-93970000D01*
X151360000Y-94620000D02*
X151360000Y-96295000D01*
%TO.C,TP3*%
X208070000Y-74770000D02*
G75*
G03*
X208070000Y-74770000I-1200000J0D01*
G01*
%TO.C,TP5*%
X211590000Y-74770000D02*
G75*
G03*
X211590000Y-74770000I-1200000J0D01*
G01*
%TO.C,C9*%
X126390000Y-118220580D02*
X126390000Y-117939420D01*
X127410000Y-118220580D02*
X127410000Y-117939420D01*
%TO.C,R6*%
X166890500Y-136712258D02*
X166890500Y-136237742D01*
X165845500Y-136712258D02*
X165845500Y-136237742D01*
D20*
%TO.C,K4*%
X157820000Y-84920000D02*
X157820000Y-86170000D01*
X157820000Y-78070000D02*
X157820000Y-78420000D01*
X151320000Y-84920000D02*
X151320000Y-86170000D01*
X157820000Y-78420000D02*
X157820000Y-78070000D01*
X151320000Y-88420000D02*
X151320000Y-88420000D01*
D13*
X158710000Y-87170000D02*
X158710000Y-87170000D01*
D20*
X151320000Y-78070000D02*
X151320000Y-78420000D01*
X157820000Y-88670000D02*
X157820000Y-88670000D01*
X151320000Y-84920000D02*
X151320000Y-84920000D01*
X157820000Y-88420000D02*
X157820000Y-88420000D01*
X157820000Y-88420000D02*
X157820000Y-88670000D01*
X151320000Y-86170000D02*
X151320000Y-86170000D01*
X157820000Y-78070000D02*
X157820000Y-78070000D01*
X157820000Y-88670000D02*
X157820000Y-88420000D01*
X157820000Y-86170000D02*
X157820000Y-84920000D01*
X151320000Y-88670000D02*
X151320000Y-88420000D01*
X151320000Y-88420000D02*
X151320000Y-88670000D01*
D13*
X158610000Y-87170000D02*
X158610000Y-87170000D01*
D20*
X151320000Y-88670000D02*
X157820000Y-88670000D01*
X157820000Y-78070000D02*
X151320000Y-78070000D01*
X151320000Y-78070000D02*
X157820000Y-78070000D01*
X157820000Y-84920000D02*
X157820000Y-84920000D01*
X151320000Y-78070000D02*
X151320000Y-78070000D01*
X151320000Y-78070000D02*
X151320000Y-78070000D01*
X151320000Y-86170000D02*
X151320000Y-84920000D01*
X151320000Y-78420000D02*
X151320000Y-78070000D01*
X157820000Y-88670000D02*
X151320000Y-88670000D01*
X157820000Y-86170000D02*
X157820000Y-86170000D01*
X157820000Y-78420000D02*
X157820000Y-78420000D01*
X151320000Y-78420000D02*
X151320000Y-78420000D01*
X157820000Y-88670000D02*
X157820000Y-88670000D01*
X157820000Y-78070000D02*
X157820000Y-78070000D01*
D13*
X158710000Y-87170000D02*
X158710000Y-87170000D01*
D20*
X151320000Y-88670000D02*
X151320000Y-88670000D01*
X151320000Y-88670000D02*
X151320000Y-88670000D01*
D13*
X158710000Y-87170000D02*
G75*
G03*
X158610000Y-87170000I-50000J0D01*
G01*
X158610000Y-87170000D02*
G75*
G03*
X158710000Y-87170000I50000J0D01*
G01*
X158710000Y-87170000D02*
G75*
G03*
X158610000Y-87170000I-50000J0D01*
G01*
D19*
%TO.C,C6*%
X167610000Y-136630580D02*
X167610000Y-136349420D01*
X168630000Y-136630580D02*
X168630000Y-136349420D01*
%TO.C,R7*%
X174112500Y-136792258D02*
X174112500Y-136317742D01*
X173067500Y-136792258D02*
X173067500Y-136317742D01*
%TO.C,J1*%
X174550000Y-144995000D02*
X174550000Y-143075000D01*
X174550000Y-147005000D02*
X174550000Y-148710000D01*
X165390000Y-143075000D02*
X165390000Y-144995000D01*
X165390000Y-148710000D02*
X165390000Y-147005000D01*
X174550000Y-148710000D02*
X165390000Y-148710000D01*
%TO.C,D11*%
X157120000Y-92070000D02*
X153220000Y-92070000D01*
X157120000Y-92070000D02*
X157120000Y-90070000D01*
X157120000Y-90070000D02*
X153220000Y-90070000D01*
%TO.C,R11*%
X200487258Y-145262500D02*
X200012742Y-145262500D01*
X200487258Y-144217500D02*
X200012742Y-144217500D01*
%TO.C,C7*%
X209639420Y-121270000D02*
X209920580Y-121270000D01*
X209639420Y-122290000D02*
X209920580Y-122290000D01*
%TO.C,C2*%
X174405580Y-77770000D02*
X174124420Y-77770000D01*
X174405580Y-78790000D02*
X174124420Y-78790000D01*
%TO.C,D1*%
X184770000Y-124660000D02*
X184770000Y-130060000D01*
X188070000Y-124660000D02*
X184770000Y-124660000D01*
X188070000Y-124660000D02*
X188070000Y-130060000D01*
%TO.C,U3*%
X135640000Y-123930000D02*
X134380000Y-123930000D01*
X128820000Y-120170000D02*
X128820000Y-123930000D01*
X128820000Y-123930000D02*
X130080000Y-123930000D01*
X135640000Y-117920000D02*
X135640000Y-123930000D01*
D20*
%TO.C,U4*%
X206750000Y-144780000D02*
X206750000Y-144780000D01*
X206650000Y-144780000D02*
X206650000Y-144780000D01*
X206650000Y-144780000D02*
G75*
G03*
X206750000Y-144780000I50000J0D01*
G01*
X206750000Y-144780000D02*
G75*
G03*
X206650000Y-144780000I-50000J0D01*
G01*
D19*
%TO.C,BZ1*%
X142220000Y-139910000D02*
G75*
G03*
X142220000Y-142909999I6400000J-1500000D01*
G01*
X154850000Y-141410000D02*
G75*
G03*
X154850000Y-141410000I-6230000J0D01*
G01*
D20*
%TO.C,K5*%
X167500000Y-78070000D02*
X161000000Y-78070000D01*
X167500000Y-78070000D02*
X167500000Y-78070000D01*
X167500000Y-88420000D02*
X167500000Y-88420000D01*
X167500000Y-88670000D02*
X167500000Y-88670000D01*
X161000000Y-78070000D02*
X161000000Y-78420000D01*
X167500000Y-78420000D02*
X167500000Y-78070000D01*
X161000000Y-88670000D02*
X161000000Y-88670000D01*
X167500000Y-78070000D02*
X167500000Y-78070000D01*
X161000000Y-88670000D02*
X161000000Y-88420000D01*
X167500000Y-84920000D02*
X167500000Y-84920000D01*
X161000000Y-86170000D02*
X161000000Y-86170000D01*
D13*
X168390000Y-87170000D02*
X168390000Y-87170000D01*
D20*
X161000000Y-88670000D02*
X167500000Y-88670000D01*
X161000000Y-84920000D02*
X161000000Y-84920000D01*
X161000000Y-88420000D02*
X161000000Y-88420000D01*
X161000000Y-88420000D02*
X161000000Y-88670000D01*
D13*
X168390000Y-87170000D02*
X168390000Y-87170000D01*
D20*
X167500000Y-88420000D02*
X167500000Y-88670000D01*
X167500000Y-88670000D02*
X161000000Y-88670000D01*
X167500000Y-88670000D02*
X167500000Y-88420000D01*
X167500000Y-78070000D02*
X167500000Y-78420000D01*
X161000000Y-88670000D02*
X161000000Y-88670000D01*
X161000000Y-86170000D02*
X161000000Y-84920000D01*
X167500000Y-88670000D02*
X167500000Y-88670000D01*
X161000000Y-78420000D02*
X161000000Y-78420000D01*
X161000000Y-78070000D02*
X161000000Y-78070000D01*
X167500000Y-86170000D02*
X167500000Y-84920000D01*
X161000000Y-78070000D02*
X167500000Y-78070000D01*
X161000000Y-78070000D02*
X161000000Y-78070000D01*
X161000000Y-78420000D02*
X161000000Y-78070000D01*
X167500000Y-86170000D02*
X167500000Y-86170000D01*
X161000000Y-84920000D02*
X161000000Y-86170000D01*
X167500000Y-84920000D02*
X167500000Y-86170000D01*
D13*
X168290000Y-87170000D02*
X168290000Y-87170000D01*
D20*
X167500000Y-78420000D02*
X167500000Y-78420000D01*
D13*
X168390000Y-87170000D02*
G75*
G03*
X168290000Y-87170000I-50000J0D01*
G01*
X168390000Y-87170000D02*
G75*
G03*
X168290000Y-87170000I-50000J0D01*
G01*
X168290000Y-87170000D02*
G75*
G03*
X168390000Y-87170000I50000J0D01*
G01*
D19*
%TO.C,C4*%
X174405580Y-75850000D02*
X174124420Y-75850000D01*
X174405580Y-76870000D02*
X174124420Y-76870000D01*
%TO.C,C12*%
X123910000Y-118484437D02*
X123910000Y-119770000D01*
X122845563Y-124240000D02*
X117090000Y-124240000D01*
X123910000Y-118484437D02*
X122845563Y-117420000D01*
X117090000Y-117420000D02*
X117090000Y-119770000D01*
X123910000Y-123175563D02*
X122845563Y-124240000D01*
X124543750Y-123071250D02*
X124543750Y-122283750D01*
X122845563Y-117420000D02*
X117090000Y-117420000D01*
X123910000Y-123175563D02*
X123910000Y-121890000D01*
X124937500Y-122677500D02*
X124150000Y-122677500D01*
X117090000Y-124240000D02*
X117090000Y-121890000D01*
%TO.C,TP4*%
X202650000Y-70260000D02*
G75*
G03*
X202650000Y-70260000I-1200000J0D01*
G01*
%TO.C,R2*%
X199742742Y-137947500D02*
X200217258Y-137947500D01*
X199742742Y-138992500D02*
X200217258Y-138992500D01*
%TO.C,TP4*%
X200260000Y-83750000D02*
G75*
G03*
X200260000Y-83750000I-1200000J0D01*
G01*
%TO.C,D5*%
X168380000Y-66255000D02*
X168380000Y-68940000D01*
X170300000Y-68940000D02*
X170300000Y-66255000D01*
X170300000Y-66255000D02*
X168380000Y-66255000D01*
%TO.C,R17*%
X138452500Y-94022742D02*
X138452500Y-94497258D01*
X137407500Y-94022742D02*
X137407500Y-94497258D01*
%TO.C,D7*%
X165870000Y-68930000D02*
X165870000Y-66245000D01*
X165870000Y-66245000D02*
X163950000Y-66245000D01*
X163950000Y-66245000D02*
X163950000Y-68930000D01*
%TO.C,C13*%
X121860000Y-133424437D02*
X121860000Y-135710000D01*
X121860000Y-133424437D02*
X122924437Y-132360000D01*
X122924437Y-149180000D02*
X138680000Y-149180000D01*
X138680000Y-149180000D02*
X138680000Y-145830000D01*
X122924437Y-132360000D02*
X138680000Y-132360000D01*
X119620000Y-133710000D02*
X121620000Y-133710000D01*
X120620000Y-132710000D02*
X120620000Y-134710000D01*
X138680000Y-132360000D02*
X138680000Y-135710000D01*
X121860000Y-148115563D02*
X122924437Y-149180000D01*
X121860000Y-148115563D02*
X121860000Y-145830000D01*
%TO.C,TP4*%
X211590000Y-78260000D02*
G75*
G03*
X211590000Y-78260000I-1200000J0D01*
G01*
%TO.C,C1*%
X158490000Y-134280580D02*
X158490000Y-133999420D01*
X159510000Y-134280580D02*
X159510000Y-133999420D01*
D21*
%TO.C,L2*%
X157983800Y-123606800D02*
X157983800Y-111059200D01*
X148662000Y-111059200D02*
X145436200Y-111059200D01*
X145436200Y-111059200D02*
X145436200Y-123606800D01*
X157983800Y-111059200D02*
X154758000Y-111059200D01*
X145436200Y-123606800D02*
X148662000Y-123606800D01*
X154758000Y-123606800D02*
X157983800Y-123606800D01*
X151710000Y-124572000D02*
G75*
G03*
X151710000Y-124419600I0J76200D01*
G01*
X151710000Y-124419600D02*
G75*
G03*
X151710000Y-124572000I0J-76200D01*
G01*
D19*
%TO.C,TP1*%
X208030000Y-136570000D02*
G75*
G03*
X208030000Y-136570000I-1200000J0D01*
G01*
%TO.C,R9*%
X167642500Y-72262742D02*
X167642500Y-72737258D01*
X166597500Y-72262742D02*
X166597500Y-72737258D01*
%TO.C,Q4*%
X144730000Y-94600000D02*
X144730000Y-95250000D01*
X141610000Y-94600000D02*
X141610000Y-96275000D01*
X141610000Y-94600000D02*
X141610000Y-93950000D01*
X144730000Y-94600000D02*
X144730000Y-93950000D01*
%TO.C,D3*%
X171560000Y-130110000D02*
X171560000Y-128435000D01*
X168440000Y-130110000D02*
X168440000Y-129460000D01*
X171560000Y-130110000D02*
X171560000Y-130760000D01*
X168440000Y-130110000D02*
X168440000Y-130760000D01*
%TO.C,SW2*%
X207758000Y-129878000D02*
X209818000Y-129878000D01*
X206418000Y-129878000D02*
X206818000Y-129878000D01*
X206418000Y-125138000D02*
X206818000Y-125138000D01*
X206418000Y-125138000D02*
X206418000Y-129878000D01*
X211158000Y-125138000D02*
X210758000Y-125138000D01*
X211158000Y-125138000D02*
X211158000Y-129878000D01*
X211158000Y-129878000D02*
X210758000Y-129878000D01*
X207758000Y-125138000D02*
X209818000Y-125138000D01*
%TO.C,Q3*%
X135070000Y-94620000D02*
X135070000Y-93970000D01*
X135070000Y-94620000D02*
X135070000Y-95270000D01*
X131950000Y-94620000D02*
X131950000Y-93970000D01*
X131950000Y-94620000D02*
X131950000Y-96295000D01*
%TO.C,Q6*%
X161060000Y-94640000D02*
X161060000Y-96315000D01*
X164180000Y-94640000D02*
X164180000Y-95290000D01*
X164180000Y-94640000D02*
X164180000Y-93990000D01*
X161060000Y-94640000D02*
X161060000Y-93990000D01*
%TO.C,TP4*%
X200370000Y-73540000D02*
G75*
G03*
X200370000Y-73540000I-1200000J0D01*
G01*
%TO.C,D9*%
X137760000Y-90050000D02*
X133860000Y-90050000D01*
X137760000Y-92050000D02*
X137760000Y-90050000D01*
X137760000Y-92050000D02*
X133860000Y-92050000D01*
%TO.C,R5*%
X195732500Y-127912742D02*
X195732500Y-128387258D01*
X194687500Y-127912742D02*
X194687500Y-128387258D01*
%TO.C,C3*%
X174405580Y-75250000D02*
X174124420Y-75250000D01*
X174405580Y-74230000D02*
X174124420Y-74230000D01*
%TO.C,L1*%
X190310000Y-128895242D02*
X190310000Y-127224758D01*
X192130000Y-128895242D02*
X192130000Y-127224758D01*
%TO.C,D2*%
X195540000Y-146510000D02*
X192855000Y-146510000D01*
X192855000Y-146510000D02*
X192855000Y-148430000D01*
X192855000Y-148430000D02*
X195540000Y-148430000D01*
D20*
%TO.C,K3*%
X141610000Y-78420000D02*
X141610000Y-78070000D01*
D13*
X149000000Y-87170000D02*
X149000000Y-87170000D01*
D20*
X148110000Y-88670000D02*
X141610000Y-88670000D01*
X148110000Y-88420000D02*
X148110000Y-88670000D01*
X141610000Y-78070000D02*
X141610000Y-78070000D01*
X148110000Y-78070000D02*
X148110000Y-78070000D01*
X141610000Y-88420000D02*
X141610000Y-88420000D01*
X141610000Y-78070000D02*
X148110000Y-78070000D01*
D13*
X148900000Y-87170000D02*
X148900000Y-87170000D01*
D20*
X148110000Y-78070000D02*
X148110000Y-78420000D01*
X148110000Y-84920000D02*
X148110000Y-86170000D01*
X141610000Y-78420000D02*
X141610000Y-78420000D01*
X141610000Y-88670000D02*
X148110000Y-88670000D01*
X141610000Y-78070000D02*
X141610000Y-78420000D01*
X148110000Y-88670000D02*
X148110000Y-88670000D01*
X148110000Y-78420000D02*
X148110000Y-78070000D01*
X141610000Y-88670000D02*
X141610000Y-88670000D01*
X148110000Y-88420000D02*
X148110000Y-88420000D01*
X148110000Y-84920000D02*
X148110000Y-84920000D01*
X141610000Y-88420000D02*
X141610000Y-88670000D01*
X148110000Y-78420000D02*
X148110000Y-78420000D01*
X141610000Y-86170000D02*
X141610000Y-84920000D01*
X148110000Y-78070000D02*
X148110000Y-78070000D01*
X148110000Y-78070000D02*
X141610000Y-78070000D01*
X148110000Y-86170000D02*
X148110000Y-86170000D01*
X148110000Y-88670000D02*
X148110000Y-88420000D01*
X141610000Y-88670000D02*
X141610000Y-88670000D01*
X141610000Y-84920000D02*
X141610000Y-86170000D01*
X148110000Y-88670000D02*
X148110000Y-88670000D01*
X141610000Y-88670000D02*
X141610000Y-88420000D01*
X148110000Y-86170000D02*
X148110000Y-84920000D01*
X141610000Y-86170000D02*
X141610000Y-86170000D01*
D13*
X149000000Y-87170000D02*
X149000000Y-87170000D01*
D20*
X141610000Y-84920000D02*
X141610000Y-84920000D01*
X141610000Y-78070000D02*
X141610000Y-78070000D01*
D13*
X149000000Y-87170000D02*
G75*
G03*
X148900000Y-87170000I-50000J0D01*
G01*
X148900000Y-87170000D02*
G75*
G03*
X149000000Y-87170000I50000J0D01*
G01*
X149000000Y-87170000D02*
G75*
G03*
X148900000Y-87170000I-50000J0D01*
G01*
D19*
%TO.C,D4*%
X128540000Y-103580000D02*
X133940000Y-103580000D01*
X128540000Y-100280000D02*
X128540000Y-103580000D01*
X128540000Y-100280000D02*
X133940000Y-100280000D01*
%TO.C,D12*%
X166840000Y-92090000D02*
X162940000Y-92090000D01*
X166840000Y-90090000D02*
X162940000Y-90090000D01*
X166840000Y-92090000D02*
X166840000Y-90090000D01*
%TO.C,R10*%
X164387500Y-72282742D02*
X164387500Y-72757258D01*
X165432500Y-72282742D02*
X165432500Y-72757258D01*
%TO.C,R18*%
X146977500Y-94032742D02*
X146977500Y-94507258D01*
X148022500Y-94032742D02*
X148022500Y-94507258D01*
%TO.C,R3*%
X199722742Y-135722500D02*
X200197258Y-135722500D01*
X199722742Y-134677500D02*
X200197258Y-134677500D01*
%TO.C,C10*%
X138740000Y-98450000D02*
X138740000Y-102200000D01*
X149260000Y-107905563D02*
X149260000Y-105220000D01*
X150125000Y-107095000D02*
X150125000Y-105845000D01*
X150750000Y-106470000D02*
X149500000Y-106470000D01*
X149260000Y-107905563D02*
X148195563Y-108970000D01*
X148195563Y-98450000D02*
X138740000Y-98450000D01*
X148195563Y-108970000D02*
X138740000Y-108970000D01*
X149260000Y-99514437D02*
X149260000Y-102200000D01*
X138740000Y-108970000D02*
X138740000Y-105220000D01*
X149260000Y-99514437D02*
X148195563Y-98450000D01*
%TO.C,D8*%
X128030000Y-92040000D02*
X124130000Y-92040000D01*
X128030000Y-92040000D02*
X128030000Y-90040000D01*
X128030000Y-90040000D02*
X124130000Y-90040000D01*
%TO.C,R14*%
X118022500Y-138827258D02*
X118022500Y-138352742D01*
X116977500Y-138827258D02*
X116977500Y-138352742D01*
%TO.C,R19*%
X157752500Y-94022742D02*
X157752500Y-94497258D01*
X156707500Y-94022742D02*
X156707500Y-94497258D01*
%TO.C,R20*%
X166427500Y-94012742D02*
X166427500Y-94487258D01*
X167472500Y-94012742D02*
X167472500Y-94487258D01*
%TO.C,R16*%
X127327500Y-94002742D02*
X127327500Y-94477258D01*
X128372500Y-94002742D02*
X128372500Y-94477258D01*
D22*
%TO.C,U1*%
X195412500Y-91440000D02*
X195412500Y-92170000D01*
X195412500Y-66670000D02*
X195412500Y-73390000D01*
X177412500Y-66670000D02*
X195412500Y-66670000D01*
X177412500Y-91440000D02*
X177412500Y-92170000D01*
X195412500Y-92170000D02*
X194167500Y-92170000D01*
X177412500Y-92170000D02*
X178657500Y-92170000D01*
X177412500Y-73390000D02*
X177412500Y-66670000D01*
D13*
X176312500Y-74160000D02*
G75*
G03*
X176312500Y-74160000I-100000J0D01*
G01*
D19*
%TO.C,J6*%
X179990000Y-143340000D02*
X178660000Y-143340000D01*
X181260000Y-140680000D02*
X188940000Y-140680000D01*
X178660000Y-143340000D02*
X178660000Y-142010000D01*
X181260000Y-143340000D02*
X188940000Y-143340000D01*
X181260000Y-143340000D02*
X181260000Y-140680000D01*
X188940000Y-143340000D02*
X188940000Y-140680000D01*
%TO.C,D6*%
X168080000Y-66255000D02*
X166160000Y-66255000D01*
X168080000Y-68940000D02*
X168080000Y-66255000D01*
X166160000Y-66255000D02*
X166160000Y-68940000D01*
%TO.C,J5*%
X188690000Y-136770000D02*
X186090000Y-136770000D01*
X189960000Y-134110000D02*
X191290000Y-134110000D01*
X191290000Y-134110000D02*
X191290000Y-135440000D01*
X186090000Y-134110000D02*
X186090000Y-136770000D01*
X188690000Y-134110000D02*
X188690000Y-136770000D01*
X188690000Y-134110000D02*
X186090000Y-134110000D01*
%TO.C,C8*%
X133249420Y-115490000D02*
X133530580Y-115490000D01*
X133249420Y-116510000D02*
X133530580Y-116510000D01*
D20*
%TO.C,K2*%
X138410000Y-78070000D02*
X131910000Y-78070000D01*
X138410000Y-78070000D02*
X138410000Y-78420000D01*
X138410000Y-88420000D02*
X138410000Y-88670000D01*
X138410000Y-88670000D02*
X138410000Y-88670000D01*
X131910000Y-86170000D02*
X131910000Y-84920000D01*
X131910000Y-78070000D02*
X138410000Y-78070000D01*
D13*
X139300000Y-87170000D02*
X139300000Y-87170000D01*
D20*
X138410000Y-88670000D02*
X131910000Y-88670000D01*
X138410000Y-78420000D02*
X138410000Y-78420000D01*
X131910000Y-86170000D02*
X131910000Y-86170000D01*
X131910000Y-88420000D02*
X131910000Y-88670000D01*
X131910000Y-88670000D02*
X131910000Y-88670000D01*
X131910000Y-84920000D02*
X131910000Y-86170000D01*
X131910000Y-78070000D02*
X131910000Y-78070000D01*
D13*
X139300000Y-87170000D02*
X139300000Y-87170000D01*
D20*
X138410000Y-88670000D02*
X138410000Y-88670000D01*
X138410000Y-78420000D02*
X138410000Y-78070000D01*
X138410000Y-84920000D02*
X138410000Y-86170000D01*
X131910000Y-88670000D02*
X131910000Y-88420000D01*
X131910000Y-88420000D02*
X131910000Y-88420000D01*
X138410000Y-86170000D02*
X138410000Y-86170000D01*
X138410000Y-88420000D02*
X138410000Y-88420000D01*
X131910000Y-88670000D02*
X138410000Y-88670000D01*
X138410000Y-78070000D02*
X138410000Y-78070000D01*
X131910000Y-78420000D02*
X131910000Y-78420000D01*
X131910000Y-78070000D02*
X131910000Y-78070000D01*
X138410000Y-84920000D02*
X138410000Y-84920000D01*
X138410000Y-78070000D02*
X138410000Y-78070000D01*
X131910000Y-78420000D02*
X131910000Y-78070000D01*
X131910000Y-88670000D02*
X131910000Y-88670000D01*
X138410000Y-86170000D02*
X138410000Y-84920000D01*
X131910000Y-78070000D02*
X131910000Y-78420000D01*
X138410000Y-88670000D02*
X138410000Y-88420000D01*
X131910000Y-84920000D02*
X131910000Y-84920000D01*
D13*
X139200000Y-87170000D02*
X139200000Y-87170000D01*
X139200000Y-87170000D02*
G75*
G03*
X139300000Y-87170000I50000J0D01*
G01*
X139300000Y-87170000D02*
G75*
G03*
X139200000Y-87170000I-50000J0D01*
G01*
X139300000Y-87170000D02*
G75*
G03*
X139200000Y-87170000I-50000J0D01*
G01*
D19*
%TO.C,C5*%
X172410000Y-136700580D02*
X172410000Y-136419420D01*
X171390000Y-136700580D02*
X171390000Y-136419420D01*
%TO.C,C11*%
X165235000Y-107115000D02*
X165235000Y-105865000D01*
X164370000Y-99534437D02*
X164370000Y-102220000D01*
X165860000Y-106490000D02*
X164610000Y-106490000D01*
X163305563Y-98470000D02*
X153850000Y-98470000D01*
X153850000Y-98470000D02*
X153850000Y-102220000D01*
X164370000Y-107925563D02*
X163305563Y-108990000D01*
X163305563Y-108990000D02*
X153850000Y-108990000D01*
X153850000Y-108990000D02*
X153850000Y-105240000D01*
X164370000Y-99534437D02*
X163305563Y-98470000D01*
X164370000Y-107925563D02*
X164370000Y-105240000D01*
%TO.C,SW1*%
X158158000Y-140632000D02*
X158558000Y-140632000D01*
X159498000Y-140632000D02*
X161558000Y-140632000D01*
X162898000Y-145372000D02*
X162498000Y-145372000D01*
X162898000Y-140632000D02*
X162498000Y-140632000D01*
X159498000Y-145372000D02*
X161558000Y-145372000D01*
X158158000Y-140632000D02*
X158158000Y-145372000D01*
X162898000Y-140632000D02*
X162898000Y-145372000D01*
X158158000Y-145372000D02*
X158558000Y-145372000D01*
%TO.C,J7*%
X202835000Y-86770000D02*
X200175000Y-86770000D01*
X202835000Y-119850000D02*
X200175000Y-119850000D01*
X200175000Y-119850000D02*
X200175000Y-86770000D01*
X200175000Y-122450000D02*
X200175000Y-121120000D01*
X201505000Y-122450000D02*
X200175000Y-122450000D01*
X202835000Y-119850000D02*
X202835000Y-86770000D01*
%TO.C,R1*%
X162362500Y-134367258D02*
X162362500Y-133892742D01*
X161317500Y-134367258D02*
X161317500Y-133892742D01*
%TO.C,Q2*%
X125390000Y-94600000D02*
X125390000Y-93950000D01*
X125390000Y-94600000D02*
X125390000Y-95250000D01*
X122270000Y-94600000D02*
X122270000Y-93950000D01*
X122270000Y-94600000D02*
X122270000Y-96275000D01*
%TO.C,C15*%
X200380580Y-140270000D02*
X200099420Y-140270000D01*
X200380580Y-141290000D02*
X200099420Y-141290000D01*
%TO.C,R4*%
X174487258Y-79387500D02*
X174012742Y-79387500D01*
X174487258Y-80432500D02*
X174012742Y-80432500D01*
%TO.C,J3*%
X160500000Y-66390000D02*
X134520000Y-66390000D01*
X160500000Y-72710000D02*
X134520000Y-72710000D01*
X160500000Y-66950000D02*
X134520000Y-66950000D01*
X160500000Y-72250000D02*
X134520000Y-72250000D01*
X160740000Y-66890000D02*
X160740000Y-66150000D01*
X160740000Y-66150000D02*
X160240000Y-66150000D01*
X160500000Y-72710000D02*
X160500000Y-66390000D01*
X134520000Y-72710000D02*
X134520000Y-66390000D01*
%TO.C,R13*%
X146222500Y-129420242D02*
X146222500Y-129894758D01*
X145177500Y-129420242D02*
X145177500Y-129894758D01*
%TO.C,D10*%
X147370000Y-92040000D02*
X147370000Y-90040000D01*
X147370000Y-90040000D02*
X143470000Y-90040000D01*
X147370000Y-92040000D02*
X143470000Y-92040000D01*
%TO.C,C14*%
X200360580Y-143240000D02*
X200079420Y-143240000D01*
X200360580Y-142220000D02*
X200079420Y-142220000D01*
%TO.C,J4*%
X211720000Y-82280000D02*
X210165000Y-82280000D01*
X206455000Y-82280000D02*
X204900000Y-82280000D01*
X208995000Y-82280000D02*
X207625000Y-82280000D01*
X211720000Y-84200000D02*
X211435000Y-84200000D01*
X211720000Y-82280000D02*
X211720000Y-84200000D01*
X207725000Y-84200000D02*
X206355000Y-84200000D01*
X210265000Y-84200000D02*
X208895000Y-84200000D01*
X211435000Y-84200000D02*
X211435000Y-85430000D01*
X205185000Y-84200000D02*
X204900000Y-84200000D01*
X204900000Y-82280000D02*
X204900000Y-84200000D01*
%TD*%
%LPC*%
D23*
%TO.C,U2*%
X116375000Y-113045000D03*
X118075000Y-113045000D03*
X119775000Y-113045000D03*
D24*
X119775000Y-103895000D03*
D23*
X121475000Y-113045000D03*
X123175000Y-113045000D03*
%TD*%
D25*
%TO.C,K1*%
X128015000Y-87170000D03*
X128015000Y-83970000D03*
X128015000Y-81770000D03*
X128015000Y-79570000D03*
X122935000Y-79570000D03*
X122935000Y-81770000D03*
X122935000Y-83970000D03*
X122935000Y-87170000D03*
%TD*%
D26*
%TO.C,Q1*%
X149320000Y-129160000D03*
X147420000Y-129160000D03*
X148370000Y-131035000D03*
%TD*%
D27*
%TO.C,R8*%
X169340000Y-71595000D03*
X169340000Y-73245000D03*
%TD*%
D28*
%TO.C,R12*%
X113440000Y-137010000D03*
X113440000Y-140410000D03*
%TD*%
D29*
%TO.C,H3*%
X181040000Y-134700000D03*
%TD*%
D30*
%TO.C,BR1*%
X119440000Y-87895000D03*
X115440000Y-87895000D03*
X115440000Y-93845000D03*
X119440000Y-93845000D03*
%TD*%
D27*
%TO.C,R15*%
X151060000Y-128872500D03*
X151060000Y-130522500D03*
%TD*%
D31*
%TO.C,TP2*%
X210390000Y-136490000D03*
%TD*%
D32*
%TO.C,J2*%
X130040000Y-68660000D03*
D33*
X130040000Y-71200000D03*
%TD*%
D34*
%TO.C,Q5*%
X151970000Y-95557500D03*
X153870000Y-95557500D03*
X152920000Y-93682500D03*
%TD*%
D31*
%TO.C,TP3*%
X206870000Y-74770000D03*
%TD*%
%TO.C,TP5*%
X210390000Y-74770000D03*
%TD*%
D35*
%TO.C,C9*%
X126900000Y-118855000D03*
X126900000Y-117305000D03*
%TD*%
D36*
%TO.C,R6*%
X166368000Y-137300000D03*
X166368000Y-135650000D03*
%TD*%
D25*
%TO.C,K4*%
X157110000Y-87170000D03*
X157110000Y-83970000D03*
X157110000Y-81770000D03*
X157110000Y-79570000D03*
X152030000Y-79570000D03*
X152030000Y-81770000D03*
X152030000Y-83970000D03*
X152030000Y-87170000D03*
%TD*%
D35*
%TO.C,C6*%
X168120000Y-137265000D03*
X168120000Y-135715000D03*
%TD*%
D36*
%TO.C,R7*%
X173590000Y-137380000D03*
X173590000Y-135730000D03*
%TD*%
D37*
%TO.C,J1*%
X167080000Y-142320000D03*
X172860000Y-142320000D03*
D38*
X166770000Y-141200000D03*
X167570000Y-141200000D03*
D39*
X168720000Y-141200000D03*
X169720000Y-141200000D03*
X170220000Y-141200000D03*
X171220000Y-141200000D03*
D38*
X172370000Y-141200000D03*
X173170000Y-141200000D03*
X173170000Y-141200000D03*
X172370000Y-141200000D03*
D39*
X171720000Y-141200000D03*
X170720000Y-141200000D03*
X169220000Y-141200000D03*
X168220000Y-141200000D03*
D38*
X167570000Y-141200000D03*
X166770000Y-141200000D03*
D40*
X174290000Y-141800000D03*
D41*
X165650000Y-146000000D03*
D40*
X165650000Y-141800000D03*
D41*
X174290000Y-146000000D03*
%TD*%
D29*
%TO.C,H2*%
X209120000Y-68950000D03*
%TD*%
D42*
%TO.C,D11*%
X156520000Y-91070000D03*
X153220000Y-91070000D03*
%TD*%
D43*
%TO.C,R11*%
X201075000Y-144740000D03*
X199425000Y-144740000D03*
%TD*%
D44*
%TO.C,C7*%
X209005000Y-121780000D03*
X210555000Y-121780000D03*
%TD*%
D45*
%TO.C,C2*%
X175040000Y-78280000D03*
X173490000Y-78280000D03*
%TD*%
D46*
%TO.C,D1*%
X186420000Y-126060000D03*
X186420000Y-130060000D03*
%TD*%
D47*
%TO.C,U3*%
X134530000Y-118870000D03*
X132230000Y-118870000D03*
D48*
X132230000Y-125170000D03*
D47*
X129930000Y-118870000D03*
%TD*%
D49*
%TO.C,U4*%
X207750000Y-144780000D03*
X207750000Y-145780000D03*
X207750000Y-146780000D03*
X209750000Y-146780000D03*
X209750000Y-145780000D03*
X209750000Y-144780000D03*
%TD*%
D50*
%TO.C,BZ1*%
X146120000Y-141410000D03*
D31*
X151120000Y-141410000D03*
%TD*%
D29*
%TO.C,H5*%
X117290000Y-80140000D03*
%TD*%
D25*
%TO.C,K5*%
X166790000Y-87170000D03*
X166790000Y-83970000D03*
X166790000Y-81770000D03*
X166790000Y-79570000D03*
X161710000Y-79570000D03*
X161710000Y-81770000D03*
X161710000Y-83970000D03*
X161710000Y-87170000D03*
%TD*%
D45*
%TO.C,C4*%
X175040000Y-76360000D03*
X173490000Y-76360000D03*
%TD*%
D51*
%TO.C,C12*%
X123200000Y-120830000D03*
X117800000Y-120830000D03*
%TD*%
D31*
%TO.C,TP4*%
X201450000Y-70260000D03*
%TD*%
D52*
%TO.C,R2*%
X199155000Y-138470000D03*
X200805000Y-138470000D03*
%TD*%
D31*
%TO.C,TP4*%
X199060000Y-83750000D03*
%TD*%
D53*
%TO.C,D5*%
X169340000Y-67002500D03*
X169340000Y-68877500D03*
%TD*%
D27*
%TO.C,R17*%
X137930000Y-93435000D03*
X137930000Y-95085000D03*
%TD*%
D53*
%TO.C,D7*%
X164910000Y-66992500D03*
X164910000Y-68867500D03*
%TD*%
D54*
%TO.C,C13*%
X124020000Y-140770000D03*
X136520000Y-140770000D03*
%TD*%
D31*
%TO.C,TP4*%
X210390000Y-78260000D03*
%TD*%
D35*
%TO.C,C1*%
X159000000Y-134915000D03*
X159000000Y-133365000D03*
%TD*%
D55*
%TO.C,L2*%
X151710000Y-122286000D03*
X151710000Y-112380000D03*
%TD*%
D31*
%TO.C,TP1*%
X206830000Y-136570000D03*
%TD*%
D29*
%TO.C,H4*%
X113750000Y-146300000D03*
%TD*%
D27*
%TO.C,R9*%
X167120000Y-71675000D03*
X167120000Y-73325000D03*
%TD*%
D34*
%TO.C,Q4*%
X142220000Y-95537500D03*
X144120000Y-95537500D03*
X143170000Y-93662500D03*
%TD*%
D26*
%TO.C,D3*%
X170950000Y-129172500D03*
X169050000Y-129172500D03*
X170000000Y-131047500D03*
%TD*%
D56*
%TO.C,SW2*%
X210288000Y-131108000D03*
X210288000Y-123908000D03*
X207288000Y-123908000D03*
X207288000Y-131108000D03*
%TD*%
D34*
%TO.C,Q3*%
X132560000Y-95557500D03*
X134460000Y-95557500D03*
X133510000Y-93682500D03*
%TD*%
%TO.C,Q6*%
X161670000Y-95577500D03*
X163570000Y-95577500D03*
X162620000Y-93702500D03*
%TD*%
D31*
%TO.C,TP4*%
X199170000Y-73540000D03*
%TD*%
D42*
%TO.C,D9*%
X137160000Y-91050000D03*
X133860000Y-91050000D03*
%TD*%
D27*
%TO.C,R5*%
X195210000Y-127325000D03*
X195210000Y-128975000D03*
%TD*%
D29*
%TO.C,H9*%
X208310000Y-115860000D03*
%TD*%
D45*
%TO.C,C3*%
X175040000Y-74740000D03*
X173490000Y-74740000D03*
%TD*%
D57*
%TO.C,L1*%
X191220000Y-129635000D03*
X191220000Y-126485000D03*
%TD*%
D58*
%TO.C,D2*%
X193602500Y-147470000D03*
X195477500Y-147470000D03*
%TD*%
D29*
%TO.C,H1*%
X113750000Y-68950000D03*
%TD*%
D25*
%TO.C,K3*%
X147400000Y-87170000D03*
X147400000Y-83970000D03*
X147400000Y-81770000D03*
X147400000Y-79570000D03*
X142320000Y-79570000D03*
X142320000Y-81770000D03*
X142320000Y-83970000D03*
X142320000Y-87170000D03*
%TD*%
D59*
%TO.C,D4*%
X129940000Y-101930000D03*
X133940000Y-101930000D03*
%TD*%
D42*
%TO.C,D12*%
X166240000Y-91090000D03*
X162940000Y-91090000D03*
%TD*%
D27*
%TO.C,R10*%
X164910000Y-71695000D03*
X164910000Y-73345000D03*
%TD*%
%TO.C,R18*%
X147500000Y-93445000D03*
X147500000Y-95095000D03*
%TD*%
D52*
%TO.C,R3*%
X199135000Y-135200000D03*
X200785000Y-135200000D03*
%TD*%
D60*
%TO.C,C10*%
X148000000Y-103710000D03*
X140000000Y-103710000D03*
%TD*%
D29*
%TO.C,H6*%
X200400000Y-80140000D03*
%TD*%
D42*
%TO.C,D8*%
X127430000Y-91040000D03*
X124130000Y-91040000D03*
%TD*%
D36*
%TO.C,R14*%
X117500000Y-139415000D03*
X117500000Y-137765000D03*
%TD*%
D27*
%TO.C,R19*%
X157230000Y-93435000D03*
X157230000Y-95085000D03*
%TD*%
%TO.C,R20*%
X166950000Y-93425000D03*
X166950000Y-95075000D03*
%TD*%
%TO.C,R16*%
X127850000Y-93415000D03*
X127850000Y-95065000D03*
%TD*%
D61*
%TO.C,U1*%
X177662500Y-74160000D03*
X177662500Y-75430000D03*
X177662500Y-76700000D03*
X177662500Y-77970000D03*
X177662500Y-79240000D03*
X177662500Y-80510000D03*
X177662500Y-81780000D03*
X177662500Y-83050000D03*
X177662500Y-84320000D03*
X177662500Y-85590000D03*
X177662500Y-86860000D03*
X177662500Y-88130000D03*
X177662500Y-89400000D03*
X177662500Y-90670000D03*
D62*
X179427500Y-91920000D03*
X180697500Y-91920000D03*
X181967500Y-91920000D03*
X183237500Y-91920000D03*
X184507500Y-91920000D03*
X185777500Y-91920000D03*
X187047500Y-91920000D03*
X188317500Y-91920000D03*
X189587500Y-91920000D03*
X190857500Y-91920000D03*
X192127500Y-91920000D03*
X193397500Y-91920000D03*
D61*
X195162500Y-90670000D03*
X195162500Y-89400000D03*
X195162500Y-88130000D03*
X195162500Y-86860000D03*
X195162500Y-85590000D03*
X195162500Y-84320000D03*
X195162500Y-83050000D03*
X195162500Y-81780000D03*
X195162500Y-80510000D03*
X195162500Y-79240000D03*
X195162500Y-77970000D03*
X195162500Y-76700000D03*
X195162500Y-75430000D03*
X195162500Y-74160000D03*
D63*
X184912500Y-81880000D03*
X183512500Y-81880000D03*
X186312500Y-81880000D03*
X183512500Y-83280000D03*
X184912500Y-83280000D03*
X186312500Y-83280000D03*
X183512500Y-80480000D03*
X184912500Y-80480000D03*
X186312500Y-80480000D03*
%TD*%
D32*
%TO.C,J6*%
X179990000Y-142010000D03*
D33*
X182530000Y-142010000D03*
X185070000Y-142010000D03*
X187610000Y-142010000D03*
%TD*%
D53*
%TO.C,D6*%
X167120000Y-67002500D03*
X167120000Y-68877500D03*
%TD*%
D32*
%TO.C,J5*%
X189960000Y-135440000D03*
D33*
X187420000Y-135440000D03*
%TD*%
D44*
%TO.C,C8*%
X132615000Y-116000000D03*
X134165000Y-116000000D03*
%TD*%
D25*
%TO.C,K2*%
X137700000Y-87170000D03*
X137700000Y-83970000D03*
X137700000Y-81770000D03*
X137700000Y-79570000D03*
X132620000Y-79570000D03*
X132620000Y-81770000D03*
X132620000Y-83970000D03*
X132620000Y-87170000D03*
%TD*%
D29*
%TO.C,H8*%
X117290000Y-129040000D03*
%TD*%
D35*
%TO.C,C5*%
X171900000Y-137335000D03*
X171900000Y-135785000D03*
%TD*%
D60*
%TO.C,C11*%
X163110000Y-103730000D03*
X155110000Y-103730000D03*
%TD*%
D56*
%TO.C,SW1*%
X162028000Y-139402000D03*
X162028000Y-146602000D03*
X159028000Y-139402000D03*
X159028000Y-146602000D03*
%TD*%
D32*
%TO.C,J7*%
X201505000Y-121120000D03*
D33*
X201505000Y-118580000D03*
X201505000Y-116040000D03*
X201505000Y-113500000D03*
X201505000Y-110960000D03*
X201505000Y-108420000D03*
X201505000Y-105880000D03*
X201505000Y-103340000D03*
X201505000Y-100800000D03*
X201505000Y-98260000D03*
X201505000Y-95720000D03*
X201505000Y-93180000D03*
X201505000Y-90640000D03*
X201505000Y-88100000D03*
%TD*%
D36*
%TO.C,R1*%
X161840000Y-134955000D03*
X161840000Y-133305000D03*
%TD*%
D34*
%TO.C,Q2*%
X122880000Y-95537500D03*
X124780000Y-95537500D03*
X123830000Y-93662500D03*
%TD*%
D45*
%TO.C,C15*%
X201015000Y-140780000D03*
X199465000Y-140780000D03*
%TD*%
D43*
%TO.C,R4*%
X175075000Y-79910000D03*
X173425000Y-79910000D03*
%TD*%
D64*
%TO.C,J3*%
X158940000Y-69550000D03*
D65*
X156400000Y-69550000D03*
X153860000Y-69550000D03*
X151320000Y-69550000D03*
X148780000Y-69550000D03*
X146240000Y-69550000D03*
X143700000Y-69550000D03*
X141160000Y-69550000D03*
X138620000Y-69550000D03*
X136080000Y-69550000D03*
%TD*%
D27*
%TO.C,R13*%
X145700000Y-128832500D03*
X145700000Y-130482500D03*
%TD*%
D42*
%TO.C,D10*%
X146770000Y-91040000D03*
X143470000Y-91040000D03*
%TD*%
D29*
%TO.C,H7*%
X200400000Y-129040000D03*
%TD*%
D45*
%TO.C,C14*%
X200995000Y-142730000D03*
X199445000Y-142730000D03*
%TD*%
D66*
%TO.C,J4*%
X210850000Y-84590000D03*
X209580000Y-81890000D03*
X208310000Y-84590000D03*
X207040000Y-81890000D03*
X205770000Y-84590000D03*
%TD*%
M02*
