%TF.GenerationSoftware,KiCad,Pcbnew,6.0.11+dfsg-1~bpo11+1*%
%TF.CreationDate,2024-01-26T07:42:42-05:00*%
%TF.ProjectId,Thermostat,54686572-6d6f-4737-9461-742e6b696361,V0.5.2*%
%TF.SameCoordinates,Original*%
%TF.FileFunction,Copper,L4,Bot*%
%TF.FilePolarity,Positive*%
%FSLAX46Y46*%
G04 Gerber Fmt 4.6, Leading zero omitted, Abs format (unit mm)*
G04 Created by KiCad (PCBNEW 6.0.11+dfsg-1~bpo11+1) date 2024-01-26 07:42:42*
%MOMM*%
%LPD*%
G01*
G04 APERTURE LIST*
%TA.AperFunction,ComponentPad*%
%ADD10C,1.381000*%
%TD*%
%TA.AperFunction,ComponentPad*%
%ADD11C,1.500000*%
%TD*%
%TA.AperFunction,ComponentPad*%
%ADD12C,2.000000*%
%TD*%
%TA.AperFunction,ComponentPad*%
%ADD13R,1.700000X1.700000*%
%TD*%
%TA.AperFunction,ComponentPad*%
%ADD14O,1.700000X1.700000*%
%TD*%
%TA.AperFunction,ComponentPad*%
%ADD15O,1.000000X2.100000*%
%TD*%
%TA.AperFunction,ComponentPad*%
%ADD16O,1.000000X1.800000*%
%TD*%
%TA.AperFunction,ComponentPad*%
%ADD17R,2.000000X2.000000*%
%TD*%
%TA.AperFunction,ComponentPad*%
%ADD18C,0.400000*%
%TD*%
%TA.AperFunction,ComponentPad*%
%ADD19R,2.200000X2.200000*%
%TD*%
%TA.AperFunction,ComponentPad*%
%ADD20C,2.200000*%
%TD*%
%TA.AperFunction,ViaPad*%
%ADD21C,1.250000*%
%TD*%
%TA.AperFunction,ViaPad*%
%ADD22C,0.800000*%
%TD*%
%TA.AperFunction,Conductor*%
%ADD23C,0.650000*%
%TD*%
%TA.AperFunction,Conductor*%
%ADD24C,0.350000*%
%TD*%
G04 APERTURE END LIST*
D10*
%TO.P,K1,1,COIL+*%
%TO.N,+3V3*%
X128015000Y-87170000D03*
%TO.P,K1,2,NC_1*%
%TO.N,unconnected-(K1-Pad2)*%
X128015000Y-83970000D03*
%TO.P,K1,3,COM_1*%
%TO.N,RH*%
X128015000Y-81770000D03*
%TO.P,K1,4,NO_1*%
%TO.N,W*%
X128015000Y-79570000D03*
%TO.P,K1,5,NO_2*%
%TO.N,unconnected-(K1-Pad5)*%
X122935000Y-79570000D03*
%TO.P,K1,6,COM_2*%
%TO.N,unconnected-(K1-Pad6)*%
X122935000Y-81770000D03*
%TO.P,K1,7,NC_2*%
%TO.N,unconnected-(K1-Pad7)*%
X122935000Y-83970000D03*
%TO.P,K1,8,COIL-*%
%TO.N,Net-(D8-Pad2)*%
X122935000Y-87170000D03*
%TD*%
D11*
%TO.P,R12,1*%
%TO.N,+3V3*%
X113440000Y-137010000D03*
%TO.P,R12,2*%
%TO.N,LIGHT_SENS*%
X113440000Y-140410000D03*
%TD*%
D12*
%TO.P,TP2,1,1*%
%TO.N,SDA*%
X210390000Y-136490000D03*
%TD*%
D13*
%TO.P,J2,1,Pin_1*%
%TO.N,RH*%
X130040000Y-68660000D03*
D14*
%TO.P,J2,2,Pin_2*%
%TO.N,RC*%
X130040000Y-71200000D03*
%TD*%
D12*
%TO.P,TP3,1,1*%
%TO.N,+3V3*%
X206870000Y-74770000D03*
%TD*%
%TO.P,TP5,1,1*%
%TO.N,GND*%
X210390000Y-74770000D03*
%TD*%
D10*
%TO.P,K4,1,COIL+*%
%TO.N,+3V3*%
X157110000Y-87170000D03*
%TO.P,K4,2,NC_1*%
%TO.N,unconnected-(K4-Pad2)*%
X157110000Y-83970000D03*
%TO.P,K4,3,COM_1*%
%TO.N,RH*%
X157110000Y-81770000D03*
%TO.P,K4,4,NO_1*%
%TO.N,G*%
X157110000Y-79570000D03*
%TO.P,K4,5,NO_2*%
%TO.N,unconnected-(K4-Pad5)*%
X152030000Y-79570000D03*
%TO.P,K4,6,COM_2*%
%TO.N,unconnected-(K4-Pad6)*%
X152030000Y-81770000D03*
%TO.P,K4,7,NC_2*%
%TO.N,unconnected-(K4-Pad7)*%
X152030000Y-83970000D03*
%TO.P,K4,8,COIL-*%
%TO.N,Net-(D11-Pad2)*%
X152030000Y-87170000D03*
%TD*%
D15*
%TO.P,J1,S1,SHIELD*%
%TO.N,unconnected-(J1-PadS1)*%
X174290000Y-141800000D03*
D16*
X165650000Y-146000000D03*
D15*
X165650000Y-141800000D03*
D16*
X174290000Y-146000000D03*
%TD*%
D17*
%TO.P,BZ1,1,-*%
%TO.N,+5V*%
X146120000Y-141410000D03*
D12*
%TO.P,BZ1,2,+*%
%TO.N,Net-(BZ1-Pad2)*%
X151120000Y-141410000D03*
%TD*%
D10*
%TO.P,K5,1,COIL+*%
%TO.N,+3V3*%
X166790000Y-87170000D03*
%TO.P,K5,2,NC_1*%
%TO.N,unconnected-(K5-Pad2)*%
X166790000Y-83970000D03*
%TO.P,K5,3,COM_1*%
%TO.N,RH*%
X166790000Y-81770000D03*
%TO.P,K5,4,NO_1*%
%TO.N,O{slash}B*%
X166790000Y-79570000D03*
%TO.P,K5,5,NO_2*%
%TO.N,unconnected-(K5-Pad5)*%
X161710000Y-79570000D03*
%TO.P,K5,6,COM_2*%
%TO.N,unconnected-(K5-Pad6)*%
X161710000Y-81770000D03*
%TO.P,K5,7,NC_2*%
%TO.N,unconnected-(K5-Pad7)*%
X161710000Y-83970000D03*
%TO.P,K5,8,COIL-*%
%TO.N,Net-(D12-Pad2)*%
X161710000Y-87170000D03*
%TD*%
D12*
%TO.P,TP4,1,1*%
%TO.N,unconnected-(U1-Pad34)*%
X201450000Y-70260000D03*
%TD*%
%TO.P,TP4,1,1*%
%TO.N,unconnected-(U1-Pad33)*%
X199060000Y-83750000D03*
%TD*%
%TO.P,TP4,1,1*%
%TO.N,+5V*%
X210390000Y-78260000D03*
%TD*%
%TO.P,TP1,1,1*%
%TO.N,SCL*%
X206830000Y-136570000D03*
%TD*%
%TO.P,TP4,1,1*%
%TO.N,unconnected-(U1-Pad35)*%
X199170000Y-73540000D03*
%TD*%
D10*
%TO.P,K3,1,COIL+*%
%TO.N,+3V3*%
X147400000Y-87170000D03*
%TO.P,K3,2,NC_1*%
%TO.N,unconnected-(K3-Pad2)*%
X147400000Y-83970000D03*
%TO.P,K3,3,COM_1*%
%TO.N,RH*%
X147400000Y-81770000D03*
%TO.P,K3,4,NO_1*%
%TO.N,E*%
X147400000Y-79570000D03*
%TO.P,K3,5,NO_2*%
%TO.N,unconnected-(K3-Pad5)*%
X142320000Y-79570000D03*
%TO.P,K3,6,COM_2*%
%TO.N,unconnected-(K3-Pad6)*%
X142320000Y-81770000D03*
%TO.P,K3,7,NC_2*%
%TO.N,unconnected-(K3-Pad7)*%
X142320000Y-83970000D03*
%TO.P,K3,8,COIL-*%
%TO.N,Net-(D10-Pad2)*%
X142320000Y-87170000D03*
%TD*%
D18*
%TO.P,U1,41_10,GND*%
%TO.N,GND*%
X184912500Y-81180000D03*
%TO.P,U1,41_11,GND*%
X183512500Y-81180000D03*
%TO.P,U1,41_12,GND*%
X186312500Y-81180000D03*
%TO.P,U1,41_13,GND*%
X183512500Y-82580000D03*
%TO.P,U1,41_14,GND*%
X184912500Y-82580000D03*
%TO.P,U1,41_15,GND*%
X186312500Y-82580000D03*
%TO.P,U1,41_16,GND*%
X184212500Y-80480000D03*
%TO.P,U1,41_17,GND*%
X185612500Y-80480000D03*
%TO.P,U1,41_18,GND*%
X184212500Y-81880000D03*
%TO.P,U1,41_19,GND*%
X185612500Y-81880000D03*
%TO.P,U1,41_20,GND*%
X184212500Y-83280000D03*
%TO.P,U1,41_21,GND*%
X185612500Y-83280000D03*
%TD*%
D13*
%TO.P,J6,1,Pin_1*%
%TO.N,UART_VCC*%
X179990000Y-142010000D03*
D14*
%TO.P,J6,2,Pin_2*%
%TO.N,RXD0*%
X182530000Y-142010000D03*
%TO.P,J6,3,Pin_3*%
%TO.N,TXD0*%
X185070000Y-142010000D03*
%TO.P,J6,4,Pin_4*%
%TO.N,GND*%
X187610000Y-142010000D03*
%TD*%
D13*
%TO.P,J5,1,Pin_1*%
%TO.N,+5V*%
X189960000Y-135440000D03*
D14*
%TO.P,J5,2,Pin_2*%
%TO.N,UART_VCC*%
X187420000Y-135440000D03*
%TD*%
D10*
%TO.P,K2,1,COIL+*%
%TO.N,+3V3*%
X137700000Y-87170000D03*
%TO.P,K2,2,NC_1*%
%TO.N,unconnected-(K2-Pad2)*%
X137700000Y-83970000D03*
%TO.P,K2,3,COM_1*%
%TO.N,RC*%
X137700000Y-81770000D03*
%TO.P,K2,4,NO_1*%
%TO.N,Y*%
X137700000Y-79570000D03*
%TO.P,K2,5,NO_2*%
%TO.N,unconnected-(K2-Pad5)*%
X132620000Y-79570000D03*
%TO.P,K2,6,COM_2*%
%TO.N,unconnected-(K2-Pad6)*%
X132620000Y-81770000D03*
%TO.P,K2,7,NC_2*%
%TO.N,unconnected-(K2-Pad7)*%
X132620000Y-83970000D03*
%TO.P,K2,8,COIL-*%
%TO.N,Net-(D9-Pad2)*%
X132620000Y-87170000D03*
%TD*%
D13*
%TO.P,J7,1,Pin_1*%
%TO.N,+5V*%
X201505000Y-121120000D03*
D14*
%TO.P,J7,2,Pin_2*%
%TO.N,GND*%
X201505000Y-118580000D03*
%TO.P,J7,3,Pin_3*%
%TO.N,TFT_CS*%
X201505000Y-116040000D03*
%TO.P,J7,4,Pin_4*%
%TO.N,TFT_RESET*%
X201505000Y-113500000D03*
%TO.P,J7,5,Pin_5*%
%TO.N,TFT_DC*%
X201505000Y-110960000D03*
%TO.P,J7,6,Pin_6*%
%TO.N,TFT_MOSI*%
X201505000Y-108420000D03*
%TO.P,J7,7,Pin_7*%
%TO.N,TFT_CLK*%
X201505000Y-105880000D03*
%TO.P,J7,8,Pin_8*%
%TO.N,TFT_LED*%
X201505000Y-103340000D03*
%TO.P,J7,9,Pin_9*%
%TO.N,TFT_MISO*%
X201505000Y-100800000D03*
%TO.P,J7,10,Pin_10*%
%TO.N,TFT_CLK*%
X201505000Y-98260000D03*
%TO.P,J7,11,Pin_11*%
%TO.N,TOUCH_CS*%
X201505000Y-95720000D03*
%TO.P,J7,12,Pin_12*%
%TO.N,TFT_MOSI*%
X201505000Y-93180000D03*
%TO.P,J7,13,Pin_13*%
%TO.N,TFT_MISO*%
X201505000Y-90640000D03*
%TO.P,J7,14,Pin_14*%
%TO.N,TOUCH_IRQ*%
X201505000Y-88100000D03*
%TD*%
D19*
%TO.P,J3,1,Pin_1*%
%TO.N,unconnected-(J3-Pad1)*%
X158940000Y-69550000D03*
D20*
%TO.P,J3,2,Pin_2*%
%TO.N,E*%
X156400000Y-69550000D03*
%TO.P,J3,3,Pin_3*%
%TO.N,O{slash}B*%
X153860000Y-69550000D03*
%TO.P,J3,4,Pin_4*%
%TO.N,G*%
X151320000Y-69550000D03*
%TO.P,J3,5,Pin_5*%
%TO.N,Y*%
X148780000Y-69550000D03*
%TO.P,J3,6,Pin_6*%
%TO.N,W*%
X146240000Y-69550000D03*
%TO.P,J3,7,Pin_7*%
%TO.N,unconnected-(J3-Pad7)*%
X143700000Y-69550000D03*
%TO.P,J3,8,Pin_8*%
%TO.N,RC*%
X141160000Y-69550000D03*
%TO.P,J3,9,Pin_9*%
%TO.N,RH*%
X138620000Y-69550000D03*
%TO.P,J3,10,Pin_10*%
%TO.N,C*%
X136080000Y-69550000D03*
%TD*%
D21*
%TO.N,GND*%
X140000000Y-105867100D03*
D22*
X119150000Y-103750000D03*
X115200000Y-107760000D03*
X210700000Y-140420000D03*
X175310000Y-134980000D03*
X115180000Y-99970000D03*
D21*
X147420000Y-127588400D03*
X163565700Y-146289400D03*
D22*
X124320000Y-101930000D03*
D21*
X124560700Y-112074400D03*
X192145300Y-147398500D03*
X119775000Y-116252000D03*
D22*
X119180000Y-99970000D03*
D21*
X117800000Y-119175900D03*
X155014000Y-95557500D03*
D22*
X120200000Y-105650000D03*
X124370000Y-105680000D03*
D21*
X136159200Y-119224100D03*
D22*
X170010000Y-132590000D03*
X117040000Y-103810000D03*
X164540000Y-136150000D03*
D21*
X131740600Y-139492700D03*
X131800000Y-141140000D03*
X174055800Y-139909300D03*
X179249200Y-74160000D03*
D22*
X121070000Y-103780000D03*
D21*
X141850000Y-105860000D03*
D22*
X118090000Y-105710000D03*
X197180000Y-140770000D03*
D21*
X164661000Y-94486500D03*
X159000000Y-132084300D03*
X131740000Y-137820000D03*
D22*
X175310000Y-133970000D03*
D21*
X121010000Y-93280000D03*
X172207300Y-78280000D03*
X156770000Y-105890000D03*
D22*
X115150000Y-103750000D03*
D21*
X155110000Y-105886100D03*
X163578100Y-139727000D03*
D22*
X123370000Y-107790000D03*
X116150000Y-101900000D03*
X162970000Y-66980000D03*
D21*
X125178500Y-93955300D03*
X208228900Y-80701100D03*
X117500000Y-140650000D03*
D22*
X164560000Y-134990000D03*
X121100000Y-100000000D03*
X117090000Y-107820000D03*
X197200000Y-142730000D03*
X122070000Y-101930000D03*
D21*
X135588400Y-95719600D03*
D22*
X117070000Y-100030000D03*
X123320000Y-103780000D03*
D21*
X117830000Y-122560000D03*
D22*
X121120000Y-107790000D03*
X122120000Y-105680000D03*
D21*
X132642400Y-103684700D03*
D22*
X119200000Y-107760000D03*
X120150000Y-101900000D03*
X118040000Y-101960000D03*
X116200000Y-105650000D03*
X123350000Y-100000000D03*
X210310000Y-127550000D03*
D21*
X193563800Y-74192400D03*
X144626300Y-93877100D03*
X126900000Y-116020200D03*
D22*
%TO.N,+3V3*%
X197590000Y-138480000D03*
D21*
X179265600Y-75655000D03*
X172191500Y-80322800D03*
X129503200Y-124868300D03*
X133560000Y-120960000D03*
D22*
X199440000Y-146040000D03*
X197600000Y-135190000D03*
D21*
X160865800Y-132330800D03*
X129560000Y-126370000D03*
X131256100Y-116621600D03*
D22*
%TO.N,SDA*%
X211448200Y-99634000D03*
%TO.N,EN*%
X174252900Y-80697100D03*
X162691000Y-134104000D03*
%TO.N,LED_HEAT*%
X184150300Y-85682300D03*
X170660000Y-73220000D03*
%TO.N,LED_COOL*%
X179017500Y-77501400D03*
X172309000Y-75433400D03*
%TO.N,TOUCH_IRQ*%
X191766800Y-90527400D03*
%TO.N,HVAC_HEAT*%
X168364500Y-79601400D03*
X179030600Y-81286600D03*
%TO.N,LED_FAN*%
X175968800Y-73938300D03*
X185816300Y-86550700D03*
%TO.N,MOTION*%
X209433400Y-85865100D03*
X191677600Y-88353400D03*
%TO.N,LD_TX*%
X197831400Y-85622100D03*
X193268500Y-83980000D03*
%TO.N,LD_RX*%
X191265100Y-83350000D03*
X196514800Y-85952500D03*
%TO.N,RXD0*%
X189714800Y-82845400D03*
%TO.N,TXD0*%
X193154000Y-78411400D03*
%TO.N,Net-(J1-PadB5)*%
X171720000Y-142433000D03*
X172848400Y-138293700D03*
%TO.N,HVAC_2STAGE*%
X189272000Y-85225400D03*
X165765100Y-97791300D03*
%TD*%
D23*
%TO.N,+5V*%
X204102600Y-106095200D02*
X204102600Y-118522400D01*
X153698400Y-147463300D02*
X147645100Y-141410000D01*
X146120000Y-141410000D02*
X147645100Y-141410000D01*
X210390000Y-99807800D02*
X204102600Y-106095200D01*
X210390000Y-78260000D02*
X210390000Y-99807800D01*
X184137600Y-147463300D02*
X153698400Y-147463300D01*
X201505000Y-122495100D02*
X189960000Y-134040100D01*
X189960000Y-135440000D02*
X189960000Y-141640900D01*
X201505000Y-121120000D02*
X201505000Y-122495100D01*
X189960000Y-141640900D02*
X184137600Y-147463300D01*
X189960000Y-134040100D02*
X189960000Y-135440000D01*
X204102600Y-118522400D02*
X201505000Y-121120000D01*
D24*
%TO.N,SDA*%
X210390000Y-136490000D02*
X211448200Y-135431800D01*
X211448200Y-135431800D02*
X211448200Y-99634000D01*
%TO.N,EN*%
X174252900Y-82293900D02*
X174252900Y-80697100D01*
X162691000Y-134104000D02*
X162691000Y-93855800D01*
X162691000Y-93855800D02*
X174252900Y-82293900D01*
D23*
%TO.N,RH*%
X163362400Y-85197600D02*
X166790000Y-81770000D01*
X147400000Y-81770000D02*
X150817700Y-85187700D01*
X150817700Y-85187700D02*
X153692300Y-85187700D01*
X157110000Y-81770000D02*
X160537600Y-85197600D01*
X153692300Y-85187700D02*
X157110000Y-81770000D01*
X126790300Y-80545300D02*
X128015000Y-81770000D01*
X160537600Y-85197600D02*
X163362400Y-85197600D01*
X126790300Y-71909700D02*
X126790300Y-80545300D01*
X128015000Y-81770000D02*
X131432700Y-85187700D01*
X131432700Y-85187700D02*
X143982300Y-85187700D01*
X130040000Y-68660000D02*
X126790300Y-71909700D01*
X143982300Y-85187700D02*
X147400000Y-81770000D01*
D24*
%TO.N,TFT_MOSI*%
X201505000Y-108420000D02*
X201505000Y-107194900D01*
X203287700Y-95728400D02*
X201964400Y-94405100D01*
X202012700Y-107194900D02*
X203287700Y-105919900D01*
X203287700Y-105919900D02*
X203287700Y-95728400D01*
X201964400Y-94405100D02*
X201505000Y-94405100D01*
X201505000Y-93180000D02*
X201505000Y-94405100D01*
X201505000Y-107194900D02*
X202012700Y-107194900D01*
%TO.N,TFT_MISO*%
X201505000Y-90640000D02*
X201505000Y-91865100D01*
X200277200Y-92633500D02*
X200277200Y-99572200D01*
X201505000Y-91865100D02*
X201045600Y-91865100D01*
X201045600Y-91865100D02*
X200277200Y-92633500D01*
X200277200Y-99572200D02*
X201505000Y-100800000D01*
%TO.N,LED_HEAT*%
X179355600Y-80511500D02*
X176465900Y-80511500D01*
X171698500Y-76208500D02*
X170660000Y-75170000D01*
X176465900Y-80511500D02*
X172162900Y-76208500D01*
X184150300Y-85682300D02*
X184150300Y-85306200D01*
X184150300Y-85306200D02*
X179355600Y-80511500D01*
X172162900Y-76208500D02*
X171698500Y-76208500D01*
X170660000Y-75170000D02*
X170660000Y-73220000D01*
%TO.N,LED_COOL*%
X179017500Y-77501400D02*
X174377000Y-77501400D01*
X174377000Y-77501400D02*
X172309000Y-75433400D01*
%TO.N,TFT_CLK*%
X201505000Y-99485100D02*
X201964400Y-99485100D01*
X201505000Y-105880000D02*
X201505000Y-104654900D01*
X202012700Y-104654900D02*
X201505000Y-104654900D01*
X202737500Y-100258200D02*
X202737500Y-103930100D01*
X202737500Y-103930100D02*
X202012700Y-104654900D01*
X201964400Y-99485100D02*
X202737500Y-100258200D01*
X201505000Y-98260000D02*
X201505000Y-99485100D01*
%TO.N,TOUCH_IRQ*%
X201505000Y-88100000D02*
X200279900Y-88100000D01*
X194194200Y-88100000D02*
X191766800Y-90527400D01*
X200279900Y-88100000D02*
X194194200Y-88100000D01*
%TO.N,HVAC_HEAT*%
X176441700Y-81286600D02*
X174477700Y-79322600D01*
X168643300Y-79322600D02*
X168364500Y-79601400D01*
X174477700Y-79322600D02*
X168643300Y-79322600D01*
X179030600Y-81286600D02*
X176441700Y-81286600D01*
D23*
%TO.N,G*%
X151320000Y-73780000D02*
X157110000Y-79570000D01*
X151320000Y-69550000D02*
X151320000Y-73780000D01*
%TO.N,RC*%
X135462600Y-75247400D02*
X135462500Y-75247500D01*
X141160000Y-69550000D02*
X135462600Y-75247400D01*
X135462500Y-75247500D02*
X135462500Y-79532500D01*
X130040000Y-71200000D02*
X131415100Y-71200000D01*
X135462600Y-75247400D02*
X131415100Y-71200000D01*
X135462500Y-79532500D02*
X137700000Y-81770000D01*
D24*
%TO.N,LED_FAN*%
X179792600Y-79940200D02*
X179792600Y-77180300D01*
X179792600Y-77180300D02*
X179338600Y-76726300D01*
X185816300Y-86550700D02*
X185816300Y-85963900D01*
X185816300Y-85963900D02*
X179792600Y-79940200D01*
X179338600Y-76726300D02*
X178756800Y-76726300D01*
X178756800Y-76726300D02*
X175968800Y-73938300D01*
D23*
%TO.N,O{slash}B*%
X163880000Y-79570000D02*
X166790000Y-79570000D01*
X153860000Y-69550000D02*
X163880000Y-79570000D01*
D24*
%TO.N,MOTION*%
X191677600Y-88353400D02*
X193284300Y-86746700D01*
X193284300Y-86746700D02*
X208551800Y-86746700D01*
X208551800Y-86746700D02*
X209433400Y-85865100D01*
%TO.N,LD_TX*%
X196189300Y-83980000D02*
X193268500Y-83980000D01*
X197831400Y-85622100D02*
X196189300Y-83980000D01*
%TO.N,LD_RX*%
X193867600Y-85952500D02*
X191265100Y-83350000D01*
X196514800Y-85952500D02*
X193867600Y-85952500D01*
%TO.N,UART_VCC*%
X180850000Y-140784900D02*
X179990000Y-140784900D01*
X179990000Y-142010000D02*
X179990000Y-140784900D01*
X186194900Y-135440000D02*
X180850000Y-140784900D01*
X187420000Y-135440000D02*
X186194900Y-135440000D01*
%TO.N,RXD0*%
X178973000Y-143235200D02*
X178764800Y-143027000D01*
X190047100Y-85546500D02*
X190047100Y-84904300D01*
X190047100Y-84904300D02*
X189714800Y-84572000D01*
X182530000Y-142010000D02*
X181304900Y-142010000D01*
X181304900Y-142928800D02*
X180998500Y-143235200D01*
X181304900Y-142010000D02*
X181304900Y-142928800D01*
X178764800Y-143027000D02*
X178764800Y-96828800D01*
X178764800Y-96828800D02*
X190047100Y-85546500D01*
X180998500Y-143235200D02*
X178973000Y-143235200D01*
X189714800Y-84572000D02*
X189714800Y-82845400D01*
%TO.N,TXD0*%
X190490000Y-84569200D02*
X190490000Y-81075400D01*
X190490000Y-81075400D02*
X193154000Y-78411400D01*
X190597200Y-130888700D02*
X190597200Y-84676400D01*
X185070000Y-142010000D02*
X185070000Y-140784900D01*
X188689900Y-132796000D02*
X190597200Y-130888700D01*
X190597200Y-84676400D02*
X190490000Y-84569200D01*
X188689900Y-137165000D02*
X188689900Y-132796000D01*
X185070000Y-140784900D02*
X188689900Y-137165000D01*
%TO.N,Net-(J1-PadB5)*%
X171720000Y-142433000D02*
X171720000Y-139422100D01*
X171720000Y-139422100D02*
X172848400Y-138293700D01*
%TO.N,unconnected-(J1-PadS1)*%
X165650000Y-141800000D02*
X165650000Y-146000000D01*
X174290000Y-146000000D02*
X174290000Y-141800000D01*
%TO.N,HVAC_2STAGE*%
X176706100Y-97791300D02*
X165765100Y-97791300D01*
X189272000Y-85225400D02*
X176706100Y-97791300D01*
%TD*%
M02*
