M48
INCH
T1C0.0079
T2C0.0157
T3C0.0236
T4C0.0236
T5C0.0315
T6C0.0335
T7C0.0394
T8C0.0433
%
G90
G05
T1
X7.2249Y-3.1961
X7.2249Y-3.2512
X7.2525Y-3.1685
X7.2525Y-3.2236
X7.2525Y-3.2787
X7.28Y-3.1961
X7.28Y-3.2512
X7.3076Y-3.1685
X7.3076Y-3.2236
X7.3076Y-3.2787
X7.3351Y-3.1961
X7.3351Y-3.2512
T2
X6.4052Y-5.2797
X6.4161Y-2.637
X6.5262Y-3.8501
X6.6285Y-3.1339
X6.7189Y-2.8827
X6.7606Y-5.6076
X6.7838Y-2.9698
X6.8051Y-5.4446
X6.8604Y-3.1771
X6.9279Y-2.911
X7.0479Y-3.0512
X7.0484Y-3.2003
X7.25Y-3.3733
X7.3156Y-3.4075
X7.4517Y-3.3553
X7.4691Y-3.2616
X7.5301Y-3.2815
X7.5464Y-3.4785
X7.5499Y-3.5641
X7.6045Y-3.0871
X7.609Y-3.3063
X7.7368Y-3.384
X7.7886Y-3.3709
X8.2454Y-3.3805
X8.3247Y-3.9226
T3
X4.5335Y-4.0846
X4.5346Y-3.9358
X4.5354Y-4.2425
X4.5728Y-4.0118
X4.5748Y-4.1594
X4.6079Y-4.087
X4.6091Y-3.9382
X4.6098Y-4.2449
X4.626Y-5.5374
X4.6378Y-4.692
X4.639Y-4.8252
X4.6472Y-4.0142
X4.6492Y-4.1618
X4.6909Y-4.0846
X4.6921Y-3.9358
X4.6929Y-4.2425
X4.7156Y-4.5769
X4.7303Y-4.0118
X4.7323Y-4.1594
X4.7642Y-3.6724
X4.7665Y-4.0858
X4.7677Y-3.937
X4.7685Y-4.2437
X4.8059Y-4.013
X4.8079Y-4.1606
X4.8551Y-4.0858
X4.8563Y-3.937
X4.8571Y-4.2437
X4.8945Y-4.013
X4.8965Y-4.1606
X4.904Y-4.4124
X4.9283Y-3.699
X4.9961Y-4.5677
X5.0986Y-4.9161
X5.1008Y-4.9752
X5.1676Y-4.5914
X5.1866Y-5.426
X5.1866Y-5.4918
X5.189Y-5.5567
X5.2221Y-4.0821
X5.2583Y-4.7622
X5.3381Y-3.7685
X5.3606Y-4.6939
X5.5118Y-4.168
X5.5846Y-4.1677
X5.6939Y-3.6959
X5.8039Y-5.0232
X6.1029Y-3.7621
X6.1067Y-4.1687
X6.172Y-4.1689
X6.2598Y-5.2002
X6.3333Y-5.2099
X6.4396Y-5.7594
X6.4401Y-5.5011
X6.478Y-5.3602
X6.4787Y-5.3146
X6.4827Y-3.7199
X6.6933Y-5.2201
X6.7792Y-3.1623
X6.7798Y-3.0819
X6.8526Y-5.5082
X6.902Y-5.2744
X6.902Y-5.3142
X7.0571Y-2.9197
X7.0577Y-2.9785
X7.5648Y-5.8031
X7.6206Y-2.921
X7.763Y-5.5421
X7.7638Y-5.6193
X7.7791Y-5.452
X7.7795Y-5.3224
X7.852Y-5.7496
X8.198Y-3.1772
X8.2799Y-5.0217
X8.2953Y-5.5283
T5
X4.4661Y-5.3941
X4.4661Y-5.528
T6
X4.84Y-3.1327
X4.84Y-3.2193
X4.84Y-3.3059
X4.84Y-3.4319
X5.04Y-3.1327
X5.04Y-3.2193
X5.04Y-3.3059
X5.04Y-3.4319
X5.2213Y-3.1327
X5.2213Y-3.2193
X5.2213Y-3.3059
X5.2213Y-3.4319
X5.4213Y-3.1327
X5.4213Y-3.2193
X5.4213Y-3.3059
X5.4213Y-3.4319
X5.6031Y-3.1327
X5.6031Y-3.2193
X5.6031Y-3.3059
X5.6031Y-3.4319
X5.8031Y-3.1327
X5.8031Y-3.2193
X5.8031Y-3.3059
X5.8031Y-3.4319
X5.9854Y-3.1327
X5.9854Y-3.2193
X5.9854Y-3.3059
X5.9854Y-3.4319
X6.1854Y-3.1327
X6.1854Y-3.2193
X6.1854Y-3.3059
X6.1854Y-3.4319
X6.3665Y-3.1327
X6.3665Y-3.2193
X6.3665Y-3.3059
X6.3665Y-3.4319
X6.5665Y-3.1327
X6.5665Y-3.2193
X6.5665Y-3.3059
X6.5665Y-3.4319
T7
X5.1197Y-2.7031
X5.1197Y-2.8031
X5.7528Y-5.5673
X5.9496Y-5.5673
X7.0862Y-5.5909
X7.1862Y-5.5909
X7.2862Y-5.5909
X7.3787Y-5.3323
X7.3862Y-5.5909
X7.4787Y-5.3323
X7.837Y-3.2972
X7.8413Y-2.8953
X7.9311Y-2.7661
X7.9333Y-3.4685
X7.9333Y-3.5685
X7.9333Y-3.6685
X7.9333Y-3.7685
X7.9333Y-3.8685
X7.9333Y-3.9685
X7.9333Y-4.0685
X7.9333Y-4.1685
X7.9333Y-4.2685
X7.9333Y-4.3685
X7.9333Y-4.4685
X7.9333Y-4.5685
X7.9333Y-4.6685
X7.9333Y-4.7685
X8.1429Y-5.3768
X8.1445Y-2.9437
X8.2831Y-2.9437
X8.2831Y-3.0811
X8.2831Y-5.3736
T8
X5.3575Y-2.7382
X5.4575Y-2.7382
X5.5575Y-2.7382
X5.6575Y-2.7382
X5.7575Y-2.7382
X5.8575Y-2.7382
X5.9575Y-2.7382
X6.0575Y-2.7382
X6.1575Y-2.7382
X6.2575Y-2.7382
T4
G00X6.5217Y-5.561
M15
G01X6.5217Y-5.6043
M16
G05
G00X6.5217Y-5.7323
M15
G01X6.5217Y-5.7638
M16
G05
G00X6.8618Y-5.561
M15
G01X6.8618Y-5.6043
M16
G05
G00X6.8618Y-5.7323
M15
G01X6.8618Y-5.7638
M16
G05
T0
M30
